<?xml version="1.0" encoding="UTF-8" standalone="no"?>
<svg width="24px" height="16px" viewBox="0 0 24 16" version="1.1" xmlns="http://www.w3.org/2000/svg" xmlns:xlink="http://www.w3.org/1999/xlink">
    <!-- Generator: Sketch 47.1 (45422) - http://www.bohemiancoding.com/sketch -->
    <title>cloud-download</title>
    <desc>Created with Sketch.</desc>
    <defs></defs>
    <g id="Diseño" stroke="none" stroke-width="1" fill="none" fill-rule="evenodd">
        <g id="vertical-2_fase2" transform="translate(-1300.000000, -682.000000)" fill="#505151">
            <g id="cloud-download" transform="translate(1300.000000, 682.000000)">
                <path d="M19.4,6 C18.7,2.6 15.7,0 12,0 C9.1,0 6.6,1.6 5.4,4 C2.3,4.4 0,6.9 0,10 C0,13.3 2.7,16 6,16 L19,16 C21.8,16 24,13.8 24,11 C24,8.4 21.9,6.2 19.4,6 L19.4,6 Z M17,9 L12,14 L7,9 L10,9 L10,5 L14,5 L14,9 L17,9 L17,9 Z" id="Shape"></path>
            </g>
        </g>
    </g>
</svg>
