<?xml version="1.0" encoding="utf-8"?>
<!-- Generator: Adobe Illustrator 23.0.1, SVG Export Plug-In . SVG Version: 6.00 Build 0)  -->
<svg width="355px" height="118px" version="1.1" id="Capa_1" xmlns="http://www.w3.org/2000/svg" xmlns:xlink="http://www.w3.org/1999/xlink" x="0px" y="0px"
	 viewBox="0 0 354.5 117.5" style="enable-background:new 0 0 354.5 117.5;" xml:space="preserve">
<style type="text/css">
	.st0{fill:#22456E;}
	.st1{fill:#4B8FCD;}
	.st2{fill:#F0812E;}
	.st3{opacity:0.8;fill:#95C6EC;enable-background:new    ;}
	.st4{opacity:0.8;fill:#C7DFEF;enable-background:new    ;}
	.st5{fill:#FFFFFF;}
	.st6{opacity:0.8;}
	.st7{fill:#95C6EC;}
	.st8{fill:#C7DFEF;}
</style>
<title>wikichron_networks_logo</title>
<g>
	<g id="ikichron-5">
		<g>
			<path class="st0" d="M95.9,41.4h10.3l3.7,19.2l3.9-19.2h8.9l4.4,19.4l3.9-19.4h9.4l-7.5,32.2h-10.3L118,54.4l-4.5,19.2h-10.2
				L95.9,41.4z"/>
			<path class="st0" d="M142.3,43.9c-0.2-2.6,1.8-5,4.4-5.1c2.6-0.2,5,1.8,5.1,4.4c0.2,2.6-1.8,5-4.4,5.1c-0.1,0-0.2,0-0.3,0
				c-2.5,0.2-4.7-1.7-4.8-4.3C142.4,44,142.4,43.9,142.3,43.9z M142.8,50.1h8.8v23.5h-8.8V50.1z"/>
			<path class="st0" d="M156.1,39.9h8.9V59l5.7-8.9h9.1l-7.2,10.5l7.8,13h-9.8l-5.6-9.8v9.8h-8.9L156.1,39.9z"/>
			<path class="st0" d="M182.5,43.9c-0.2-2.6,1.8-4.9,4.4-5.1s4.9,1.8,5.1,4.4c0.2,2.6-1.8,4.9-4.4,5.1c-0.1,0-0.2,0-0.3,0
				c-2.5,0.2-4.6-1.7-4.8-4.2C182.5,44,182.5,43.9,182.5,43.9z M182.9,50.1h8.8v23.5h-8.8V50.1z"/>
			<path class="st1" d="M195.4,57.7v-0.4c0-9.9,7.2-16.4,16.7-16.4c8.7,0,14.5,4,15.3,12.7h-10.5c-0.3-3-1.9-4.6-4.7-4.6
				c-3.7,0-5.9,2.9-5.9,8.3v0.4c0,5.4,2.2,8.3,6.1,8.3c2.9,0,5-1.5,5.3-4.7h10.2c-0.5,8.5-6.8,12.9-15.3,12.9
				C200.9,74.2,195.4,67.6,195.4,57.7z"/>
			<path class="st1" d="M230.6,39.9h8.9v14c1.5-2.9,4.6-4.6,7.8-4.4c4.4,0,7.6,2.8,7.6,8.7v15.5H246V60.1c0-2.4-0.8-3.6-3-3.6
				s-3.5,1.3-3.5,4.1v13h-8.9L230.6,39.9z"/>
			<path class="st1" d="M258.9,50.1h8.9v4.8c1-3.2,4.2-5.3,7.6-5.1v8.3c-4.9-0.3-7.6,1.4-7.6,4.7v10.9h-8.9V50.1z"/>
			<path class="st1" d="M277.3,62.1v-0.4c0-7.6,5.7-12.3,13.1-12.3s13,4.6,13,12.1v0.4c0,7.7-5.8,12.3-13.1,12.3
				S277.3,69.9,277.3,62.1z M294.5,62v-0.3c0-3.7-1.3-5.7-4-5.7s-4.2,1.8-4.2,5.5v0.4c0,3.8,1.3,5.8,4.2,5.8S294.5,65.7,294.5,62
				L294.5,62z"/>
			<path class="st1" d="M306.6,50.1h8.9v3.8c1.5-2.9,4.6-4.6,7.8-4.4c4.4,0,7.6,2.8,7.6,8.7v15.5h-8.9V60.1c0-2.4-0.8-3.6-3-3.6
				s-3.5,1.3-3.5,4.1v13h-8.9L306.6,50.1z"/>
		</g>
	</g>
	<path class="st2" d="M233.9,81.7l0.1,1.5c0.9-1.2,2.3-1.8,3.7-1.8c1.2-0.1,2.3,0.4,3.1,1.2c0.7,1.1,1.1,2.3,1,3.6v8.4h-3.5v-8.3
		c0.1-0.6-0.1-1.2-0.5-1.6c-0.4-0.4-1-0.6-1.6-0.5c-0.9,0-1.8,0.4-2.2,1.2v9.2h-3.5v-13L233.9,81.7z"/>
	<path class="st2" d="M250.5,94.9c-1.7,0.1-3.4-0.6-4.7-1.8c-1.2-1.2-1.9-2.9-1.8-4.7v-0.3c0-1.2,0.2-2.4,0.8-3.5
		c0.5-1,1.2-1.8,2.2-2.4c1-0.6,2.1-0.9,3.2-0.8c1.6-0.1,3.1,0.5,4.2,1.7c1.1,1.3,1.7,3,1.5,4.8v1.4h-8.3c0.1,0.8,0.4,1.5,1,2.1
		c0.6,0.5,1.4,0.8,2.2,0.8c1.2,0.1,2.4-0.5,3.1-1.5l1.7,1.9c-0.5,0.8-1.3,1.3-2.1,1.7C252.5,94.8,251.5,95,250.5,94.9z M250.1,84.2
		c-0.6,0-1.2,0.2-1.7,0.7c-0.5,0.6-0.8,1.3-0.8,2h4.8v-0.3c0-0.7-0.2-1.3-0.6-1.8C251.4,84.4,250.7,84.2,250.1,84.2L250.1,84.2z"/>
	<path class="st2" d="M262,78.5v3.2h2.2v2.5H262v6.5c0,0.4,0.1,0.7,0.3,1c0.3,0.2,0.7,0.4,1.1,0.3c0.3,0,0.7,0,1-0.1v2.6
		c-0.7,0.2-1.4,0.3-2.1,0.3c-2.4,0-3.7-1.2-3.7-3.7v-7h-1.9v-2.6h1.9v-3.2L262,78.5z"/>
	<path class="st2" d="M277.5,90l1.7-8.3h3.4l-3.3,13h-2.9l-2.5-8.2l-2.5,8.2h-2.9l-3.3-13h3.4l1.7,8.3l2.4-8.3h2.5L277.5,90z"/>
	<path class="st2" d="M283.7,88.1c0-1.2,0.2-2.4,0.7-3.4c0.5-1,1.2-1.8,2.2-2.4c1-0.6,2.1-0.9,3.2-0.8c1.6-0.1,3.2,0.5,4.3,1.6
		c1.2,1.2,1.8,2.7,1.9,4.4v0.9c0.1,1.8-0.5,3.5-1.7,4.8c-2.5,2.4-6.5,2.4-9,0c-1.2-1.4-1.8-3.1-1.7-4.9L283.7,88.1z M287.2,88.3
		c-0.1,1,0.2,2,0.7,2.8c0.5,0.7,1.2,1,2,1c0.8,0,1.6-0.3,2-1c0.6-0.9,0.8-2,0.7-3.1c0.1-1-0.2-2-0.7-2.8c-0.4-0.7-1.2-1-2-1
		c-0.8,0-1.6,0.3-2,1C287.4,86.2,287.1,87.2,287.2,88.3z"/>
	<path class="st2" d="M305.5,84.9c-0.4-0.1-0.8-0.1-1.3-0.1c-1.1-0.1-2.1,0.4-2.6,1.3v8.5h-3.5v-13h3.3l0.1,1.6
		c0.5-1.1,1.7-1.8,2.9-1.8c0.4,0,0.7,0.1,1.1,0.2L305.5,84.9z"/>
	<path class="st2" d="M311.9,89.5l-1.2,1.2v4h-3.5V76.2h3.5v10.2l0.7-0.9l3.3-3.9h4.2l-4.7,5.4l5.1,7.6h-4L311.9,89.5z"/>
	<path class="st2" d="M327.4,91.1c0-0.4-0.2-0.8-0.6-1c-0.6-0.3-1.3-0.5-2-0.7c-3.1-0.6-4.6-2-4.6-3.9c0-1.1,0.5-2.2,1.4-2.9
		c1.1-0.8,2.4-1.2,3.8-1.2c1.4-0.1,2.8,0.3,4,1.2c0.9,0.7,1.5,1.8,1.5,3h-3.5c0-0.5-0.2-0.9-0.5-1.2c-0.4-0.4-1-0.5-1.5-0.5
		c-0.5,0-1,0.1-1.4,0.4c-0.3,0.2-0.5,0.6-0.5,1c0,0.4,0.2,0.7,0.6,0.9c0.6,0.3,1.2,0.5,1.8,0.6c0.7,0.1,1.5,0.3,2.2,0.6
		c1.8,0.7,2.8,1.8,2.8,3.5c0,1.2-0.6,2.2-1.5,2.9c-1.2,0.8-2.6,1.2-4,1.1c-1,0-2-0.2-2.9-0.6c-0.8-0.3-1.5-0.9-2-1.6
		c-0.5-0.6-0.7-1.4-0.7-2.2h3.3c0,0.6,0.2,1.1,0.7,1.4c0.5,0.4,1.1,0.5,1.7,0.5c0.5,0,1.1-0.1,1.5-0.4
		C327.2,91.8,327.4,91.5,327.4,91.1z"/>
	<circle class="st3" cx="64.2" cy="50.1" r="8"/>
	<ellipse class="st4" cx="62.5" cy="50.1" rx="6.3" ry="8"/>
	<path class="st5" d="M64.2,58.1c0.3,0,0.7,0,1-0.1c-3.1-0.5-5.5-3.8-5.5-7.9s2.4-7.5,5.5-7.9c-4.4-0.6-8.4,2.5-9,6.9
		c-0.6,4.4,2.5,8.4,6.9,9C63.4,58,63.8,58.1,64.2,58.1L64.2,58.1z"/>
	<g class="st6">
		<circle class="st7" cx="87" cy="28.4" r="5.7"/>
		<circle class="st7" cx="64.2" cy="77.5" r="5.7"/>
	</g>
	<g class="st6">
		<ellipse class="st8" cx="85.3" cy="28.4" rx="4" ry="5.7"/>
		<ellipse class="st8" cx="62.5" cy="77.5" rx="4" ry="5.7"/>
	</g>
	<circle class="st3" cx="37.9" cy="75.2" r="5.7"/>
	<g class="st6">
		<circle class="st8" cx="45.9" cy="31.8" r="3.4"/>
		<ellipse class="st8" cx="36.2" cy="75.2" rx="4" ry="5.7"/>
	</g>
	<path class="st5" d="M37.9,80.9c0.3,0,0.7,0,1-0.1c-1.9-0.5-3.3-2.8-3.3-5.6s1.4-5.1,3.3-5.6c-3.1-0.5-6,1.6-6.6,4.7
		c-0.5,3.1,1.6,6,4.7,6.6C37.3,80.9,37.6,80.9,37.9,80.9L37.9,80.9z"/>
	<path class="st5" d="M64.3,83.2c0.3,0,0.7,0,1-0.1c-1.9-0.5-3.3-2.8-3.3-5.6s1.4-5.1,3.3-5.6c-3.1-0.6-6.1,1.4-6.7,4.5
		s1.4,6.1,4.5,6.7C63.6,83.2,63.9,83.2,64.3,83.2z"/>
	<path class="st5" d="M87.2,34.1c0.3,0,0.7,0,1-0.1c-1.9-0.5-3.3-2.8-3.3-5.6s1.4-5.1,3.3-5.6c-3.1-0.6-6.1,1.5-6.6,4.6
		C81,30.5,83,33.4,86.1,34C86.5,34,86.8,34.1,87.2,34.1L87.2,34.1z"/>
	<circle class="st4" cx="82.5" cy="68.3" r="3.4"/>
	<path class="st0" d="M64.2,59.2c-5.1,0-9.2-4.1-9.2-9.1c0-5.1,4.1-9.2,9.1-9.2c5.1,0,9.2,4.1,9.2,9.1c0,0,0,0,0,0
		C73.3,55.1,69.2,59.2,64.2,59.2z M64.2,43.2c-3.8,0-6.9,3.1-6.9,6.9c0,3.8,3.1,6.9,6.9,6.9s6.9-3.1,6.9-6.9c0,0,0,0,0,0
		C71,46.3,68,43.2,64.2,43.2C64.2,43.2,64.2,43.2,64.2,43.2z"/>
	<path class="st0" d="M87,35.2c-3.8,0-6.9-3.1-6.9-6.9c0-3.8,3.1-6.9,6.9-6.9c3.8,0,6.9,3.1,6.9,6.9c0,0,0,0,0,0
		C93.9,32.1,90.8,35.2,87,35.2C87,35.2,87,35.2,87,35.2z M87,23.8c-2.5,0-4.6,2-4.6,4.6s2,4.6,4.6,4.6s4.6-2,4.6-4.6c0,0,0,0,0,0
		C91.6,25.8,89.5,23.8,87,23.8L87,23.8z"/>
	<path class="st0" d="M64.2,84.3c-3.8,0-6.9-3.1-6.9-6.9c0-3.8,3.1-6.9,6.9-6.9s6.9,3.1,6.9,6.9c0,0,0,0,0,0
		C71,81.3,68,84.3,64.2,84.3C64.2,84.3,64.2,84.3,64.2,84.3z M64.2,72.9c-2.5,0-4.6,2-4.6,4.6s2,4.6,4.6,4.6s4.6-2,4.6-4.6
		c0,0,0,0,0,0C68.7,75,66.7,72.9,64.2,72.9z"/>
	<path class="st0" d="M37.9,82.1c-3.8,0-6.9-3.1-6.9-6.9s3.1-6.9,6.9-6.9c3.8,0,6.9,3.1,6.9,6.9v0C44.7,79,41.7,82.1,37.9,82.1z
		 M37.9,70.6c-2.5,0-4.6,2-4.6,4.6s2,4.6,4.6,4.6s4.6-2,4.6-4.6c0,0,0,0,0,0C42.5,72.7,40.4,70.6,37.9,70.6z"/>
	<path class="st0" d="M45.9,36.4c-2.5,0-4.6-2-4.6-4.6s2-4.6,4.6-4.6s4.6,2,4.6,4.6c0,0,0,0,0,0C50.5,34.3,48.4,36.4,45.9,36.4z
		 M45.9,29.5c-1.3,0-2.3,1-2.3,2.3c0,1.3,1,2.3,2.3,2.3s2.3-1,2.3-2.3c0,0,0,0,0,0C48.2,30.5,47.2,29.5,45.9,29.5
		C45.9,29.5,45.9,29.5,45.9,29.5L45.9,29.5z"/>
	<path class="st0" d="M82.4,72.9c-2.5,0-4.6-2-4.6-4.6s2-4.6,4.6-4.6s4.6,2,4.6,4.6c0,0,0,0,0,0C87,70.9,85,72.9,82.4,72.9z
		 M82.4,66.1c-1.3,0-2.3,1-2.3,2.3c0,1.3,1,2.3,2.3,2.3c1.3,0,2.3-1,2.3-2.3C84.7,67.1,83.7,66.1,82.4,66.1
		C82.5,66.1,82.5,66.1,82.4,66.1z"/>
	<path class="st0" d="M64.2,72.9c-0.6,0-1.1-0.5-1.1-1.1V58.1c0.1-0.6,0.6-1.1,1.3-1c0.6,0.1,1,0.5,1,1v13.7
		C65.3,72.4,64.8,72.9,64.2,72.9z"/>
	<path class="st0" d="M69.9,45.5c-0.6,0-1.1-0.5-1.1-1.1c0-0.3,0.1-0.6,0.3-0.8L81.6,31c0.3-0.3,0.7-0.4,1.1-0.3
		c0.4,0.1,0.7,0.4,0.8,0.8c0.1,0.4,0,0.8-0.3,1.1L70.7,45.2C70.5,45.4,70.2,45.5,69.9,45.5L69.9,45.5z"/>
	<path class="st0" d="M42.5,72.9c-0.4,0-0.8-0.3-1-0.7c-0.2-0.4-0.1-0.9,0.2-1.2l16-16c0.5-0.4,1.2-0.3,1.6,0.1c0.4,0.4,0.4,1,0,1.5
		l-16,16C43.1,72.8,42.8,72.9,42.5,72.9L42.5,72.9z"/>
	<path class="st0" d="M58.5,45.5c-0.3,0-0.6-0.1-0.8-0.3L47.4,34.9c-0.4-0.5-0.3-1.2,0.1-1.6c0.4-0.4,1-0.4,1.5,0l10.3,10.3
		c0.3,0.3,0.4,0.8,0.2,1.2C59.3,45.2,58.9,45.5,58.5,45.5z"/>
	<path class="st0" d="M80.2,67.2c-0.3,0-0.6-0.1-0.8-0.3L69.1,56.6c-0.4-0.4-0.4-1.2,0-1.6c0.4-0.4,1.2-0.4,1.6,0c0,0,0,0,0,0
		L81,65.3c0.3,0.3,0.4,0.8,0.2,1.2C81.1,66.9,80.6,67.2,80.2,67.2z"/>
</g>
</svg>
