<?xml version="1.0" encoding="UTF-8"?>
<svg width="187px" height="50px" viewBox="0 0 187 50" version="1.1" xmlns="http://www.w3.org/2000/svg" xmlns:xlink="http://www.w3.org/1999/xlink">
    <!-- Generator: Sketch 51.3 (57544) - http://www.bohemiancoding.com/sketch -->
    <title>logo-classics</title>
    <desc>Created with Sketch.</desc>
    <defs></defs>
    <g id="Diseño" stroke="none" stroke-width="1" fill="none" fill-rule="evenodd">
        <g id="home_previa_op2" transform="translate(-319.000000, -416.000000)">
            <g id="Group-2" transform="translate(287.000000, 300.000000)">
                <g id="classic">
                    <g id="logo-classics" transform="translate(31.545741, 115.930599)">
                        <polygon id="Fill-14" fill="#22446D" points="0.52373817 2.39518927 8.64992114 2.39518927 11.5600158 17.5489748 14.6120662 2.39518927 21.6033912 2.39518927 25.0458202 17.7256309 28.1333596 2.39518927 35.5852524 2.39518927 29.6940852 27.7690063 21.5679022 27.7690063 18.019795 12.6160095 14.4354101 27.7690063 6.41490536 27.7690063"></polygon>
                        <path d="M37.5031546,27.7688486 L44.4582019,27.7688486 L44.4582019,9.20891167 L37.5031546,9.20891167 L37.5031546,27.7688486 Z M37.1829653,4.31143533 C37.1829653,2.25386435 38.8154574,0.763328076 40.9810726,0.763328076 C43.1096215,0.763328076 44.7421136,2.25386435 44.7421136,4.31143533 C44.7421136,6.33430599 43.1096215,7.82484227 40.9810726,7.82484227 C38.8154574,7.82484227 37.1829653,6.33430599 37.1829653,4.31143533 Z" id="Fill-16" fill="#22446D"></path>
                        <polygon id="Fill-18" fill="#22446D" points="48.0425868 1.15291798 55.033123 1.15291798 55.033123 16.2357256 59.5402208 9.20891167 66.7089905 9.20891167 60.9960568 17.5125394 67.1711356 27.7688486 59.4337539 27.7688486 55.033123 20.0322555 55.033123 27.7688486 48.0425868 27.7688486"></polygon>
                        <path d="M69.1577287,27.7688486 L76.1135647,27.7688486 L76.1135647,9.20891167 L69.1577287,9.20891167 L69.1577287,27.7688486 Z M68.8391167,4.31143533 C68.8391167,2.25386435 70.4708202,0.763328076 72.6364353,0.763328076 C74.7649842,0.763328076 76.3974763,2.25386435 76.3974763,4.31143533 C76.3974763,6.33430599 74.7649842,7.82484227 72.6364353,7.82484227 C70.4708202,7.82484227 68.8391167,6.33430599 68.8391167,4.31143533 Z" id="Fill-19" fill="#22446D"></path>
                        <path d="M79.0237382,15.2414826 L79.0237382,14.9583596 C79.0237382,7.11529968 84.665694,2.00488959 92.1538644,2.00488959 C99.0032334,2.00488959 103.616798,5.12791798 104.22011,12.0119874 L95.9164826,12.0119874 C95.6672713,9.67050473 94.4251577,8.35741325 92.1893533,8.35741325 C89.2800473,8.35741325 87.5055994,10.627918 87.5055994,14.9228707 L87.5055994,15.2059937 C87.5055994,19.4299685 89.2082808,21.7714511 92.3320978,21.7714511 C94.6026025,21.7714511 96.2350946,20.6003155 96.5190063,18.0458991 L104.539511,18.0458991 C104.113644,24.7170347 99.2161672,28.2304416 92.5095426,28.2304416 C83.3533912,28.2304416 79.0237382,23.0135647 79.0237382,15.2414826" id="Fill-20" fill="#4B8FCC"></path>
                        <path d="M106.81112,1.15291798 L113.802445,1.15291798 L113.802445,12.1899842 C114.831625,10.2380915 116.818218,8.71206625 119.942035,8.71206625 C123.455442,8.71206625 125.903391,10.9478707 125.903391,15.5614353 L125.903391,27.7688486 L118.913644,27.7688486 L118.913644,17.1229495 C118.913644,15.2412461 118.238565,14.2830442 116.570584,14.2830442 C114.831625,14.2830442 113.802445,15.3130126 113.802445,17.5125394 L113.802445,27.7688486 L106.81112,27.7688486 L106.81112,1.15291798 Z" id="Fill-21" fill="#4B8FCC"></path>
                        <path d="M129.133438,9.20883281 L136.124763,9.20883281 L136.124763,12.9706625 C137.295899,10.0960568 139.31877,8.92570978 142.086909,8.96119874 L142.086909,15.4903785 C138.218612,15.2766562 136.124763,16.5542587 136.124763,19.2159306 L136.124763,27.7687697 L129.133438,27.7687697 L129.133438,9.20883281 Z" id="Fill-22" fill="#4B8FCC"></path>
                        <path d="M157.169558,18.5777603 L157.169558,18.3293375 C157.169558,15.4192429 156.140379,13.8577287 153.975552,13.8577287 C151.847003,13.8577287 150.675868,15.312776 150.675868,18.2228707 L150.675868,18.5067823 C150.675868,21.5225552 151.739748,23.084858 153.975552,23.084858 C156.104101,23.084858 157.169558,21.5225552 157.169558,18.5777603 M143.613565,18.7197161 L143.613565,18.4350158 C143.613565,12.4026814 148.119874,8.71182965 153.975552,8.71182965 C159.760252,8.71182965 164.266562,12.2962145 164.266562,18.2583596 L164.266562,18.5422713 C164.266562,24.6455836 159.723975,28.2299685 153.940063,28.2299685 C148.155363,28.2299685 143.613565,24.823817 143.613565,18.7197161" id="Fill-23" fill="#4B8FCC"></path>
                        <path d="M166.716483,9.20883281 L173.707019,9.20883281 L173.707019,12.1899054 C174.736987,10.2380126 176.72358,8.71198738 179.846609,8.71198738 C183.360016,8.71198738 185.808754,10.9477918 185.808754,15.5613565 L185.808754,27.7687697 L178.818218,27.7687697 L178.818218,17.1228707 C178.818218,15.2411672 178.143139,14.2837539 176.475158,14.2837539 C174.736987,14.2837539 173.707019,15.3129338 173.707019,17.5124606 L173.707019,27.7687697 L166.716483,27.7687697 L166.716483,9.20883281 Z" id="Fill-24" fill="#4B8FCC"></path>
                        <path d="M120.975011,43.877141 C121.443764,43.877141 121.824619,43.7482361 122.11759,43.4904223 C122.41056,43.2326085 122.562902,42.8898385 122.574621,42.462102 L124.956457,42.462102 C124.950597,43.1066365 124.774818,43.6969626 124.429113,44.2330981 C124.083408,44.7692336 123.610268,45.185245 123.009679,45.481145 C122.40909,45.7770449 121.745523,45.9249926 121.018957,45.9249926 C119.659575,45.9249926 118.58732,45.492868 117.80216,44.6286059 C117.017,43.7643438 116.624425,42.570508 116.624425,41.0470629 L116.624425,40.8800707 C116.624425,39.4152197 117.01407,38.246286 117.793371,37.3732348 C118.572672,36.5001836 119.641997,36.0636645 121.001379,36.0636645 C122.190838,36.0636645 123.144441,36.40204 123.862218,37.0788012 C124.579995,37.7555624 124.944738,38.6564323 124.956457,39.7814379 L122.574621,39.7814379 C122.562902,39.289248 122.41056,38.8893496 122.11759,38.5817309 C121.824619,38.2741122 121.437904,38.1203051 120.957433,38.1203051 C120.365633,38.1203051 119.918861,38.335635 119.617101,38.7663012 C119.315342,39.1969674 119.164465,39.8956909 119.164465,40.8624926 L119.164465,41.1261645 C119.164465,42.104685 119.313877,42.807803 119.612707,43.2355395 C119.911536,43.663276 120.365633,43.877141 120.975011,43.877141 Z M126.011144,40.9064379 C126.011144,39.9630738 126.192783,39.1222619 126.556066,38.383977 C126.919349,37.645692 127.442293,37.0744087 128.124914,36.6701098 C128.807534,36.2658109 129.600007,36.0636645 130.502355,36.0636645 C131.785565,36.0636645 132.832917,36.4562387 133.644445,37.2413989 C134.455972,38.026559 134.908605,39.0929546 135.002355,40.4406176 L135.019933,41.0910082 C135.019933,42.5499999 134.612711,43.7203984 133.798254,44.6022387 C132.983796,45.484079 131.891034,45.9249926 130.519933,45.9249926 C129.148833,45.9249926 128.054605,45.4855439 127.237218,44.6066332 C126.419832,43.7277226 126.011144,42.532422 126.011144,41.0206957 L126.011144,40.9064379 Z M128.551183,41.0910082 C128.551183,41.9933565 128.721103,42.683291 129.060949,43.1608325 C129.400794,43.6383739 129.887118,43.877141 130.519933,43.877141 C131.135171,43.877141 131.615635,43.6413036 131.96134,43.1696215 C132.307044,42.6979395 132.479894,41.9435525 132.479894,40.9064379 C132.479894,40.0216679 132.307044,39.3361279 131.96134,38.8497973 C131.615635,38.3634667 131.129311,38.1203051 130.502355,38.1203051 C129.881258,38.1203051 129.400794,38.3620019 129.060949,38.8454028 C128.721103,39.3288036 128.551183,40.0773313 128.551183,41.0910082 Z M138.966222,36.2394457 L139.045324,37.3029223 C139.719155,36.4767463 140.630279,36.0636645 141.778722,36.0636645 C143.003338,36.0636645 143.84415,36.5470581 144.301183,37.5138598 C144.969155,36.5470581 145.921294,36.0636645 147.157629,36.0636645 C148.188884,36.0636645 148.956454,36.3639544 149.460363,36.9645434 C149.964272,37.5651323 150.216222,38.4689319 150.216222,39.6759692 L150.216222,45.7492114 L147.667394,45.7492114 L147.667394,39.6847582 C147.667394,39.145693 147.561927,38.751654 147.350988,38.5026293 C147.140049,38.2536046 146.767983,38.1290942 146.234777,38.1290942 C145.473054,38.1290942 144.945716,38.4923718 144.652746,39.2189379 L144.661535,45.7492114 L142.121496,45.7492114 L142.121496,39.6935473 C142.121496,39.1427633 142.013098,38.7443298 141.7963,38.4982348 C141.579503,38.2521398 141.210366,38.1290942 140.688879,38.1290942 C139.968172,38.1290942 139.446693,38.4279193 139.124425,39.0255785 L139.124425,45.7492114 L136.584386,45.7492114 L136.584386,36.2394457 L138.966222,36.2394457 Z M160.727941,41.0822192 C160.727941,42.5470702 160.395425,43.7203984 159.730382,44.6022387 C159.06534,45.484079 158.1674,45.9249926 157.036535,45.9249926 C156.075593,45.9249926 155.299233,45.5910116 154.707433,44.9230395 L154.707433,49.4054614 L152.167394,49.4054614 L152.167394,36.2394457 L154.522863,36.2394457 L154.610754,37.1710864 C155.225991,36.4328014 156.028717,36.0636645 157.018957,36.0636645 C158.190838,36.0636645 159.101961,36.4972539 159.752355,37.3644457 C160.402749,38.2316376 160.727941,39.4269381 160.727941,40.9503832 L160.727941,41.0822192 Z M158.187902,40.8976489 C158.187902,40.0128788 158.031165,39.3302684 157.717687,38.8497973 C157.404209,38.3693261 156.948647,38.1290942 156.350988,38.1290942 C155.554109,38.1290942 155.006263,38.4337786 154.707433,39.0431567 L154.707433,42.9367114 C155.017982,43.5636676 155.571687,43.877141 156.368566,43.877141 C157.581463,43.877141 158.187902,42.8839869 158.187902,40.8976489 Z M167.811925,45.7492114 C167.694737,45.5206946 167.609777,45.2365177 167.557043,44.8966723 C166.941805,45.5822226 166.142009,45.9249926 165.157629,45.9249926 C164.225983,45.9249926 163.454018,45.6554641 162.841711,45.1163989 C162.229403,44.5773337 161.923254,43.897653 161.923254,43.0773364 C161.923254,42.0695188 162.296785,41.2960891 163.043859,40.7570239 C163.790933,40.2179587 164.870512,39.9455004 166.282629,39.939641 L167.451574,39.939641 L167.451574,39.3947192 C167.451574,38.9552638 167.338782,38.6037049 167.113195,38.3400317 C166.887608,38.0763585 166.531654,37.9445239 166.045324,37.9445239 C165.617587,37.9445239 165.282142,38.0470619 165.038976,38.252141 C164.795811,38.4572202 164.67423,38.7384674 164.67423,39.095891 L162.134191,39.095891 C162.134191,38.545107 162.304111,38.0353465 162.643957,37.5665942 C162.983802,37.0978418 163.464266,36.7301697 164.085363,36.4635668 C164.70646,36.1969639 165.403718,36.0636645 166.17716,36.0636645 C167.349041,36.0636645 168.279207,36.3580951 168.967687,36.9469653 C169.656167,37.5358354 170.000402,38.3634638 170.000402,39.4298754 L170.000402,43.5519457 C170.006261,44.454294 170.132237,45.1369044 170.378332,45.5997973 L170.378332,45.7492114 L167.811925,45.7492114 Z M165.71134,43.9826098 C166.086341,43.9826098 166.432041,43.8991145 166.748449,43.7321215 C167.064857,43.5651285 167.299229,43.3410096 167.451574,43.0597582 L167.451574,41.4249926 L166.502355,41.4249926 C165.230864,41.4249926 164.554113,41.8644413 164.472082,42.743352 L164.463293,42.892766 C164.463293,43.2091739 164.57462,43.4699135 164.797277,43.6749926 C165.019934,43.8800718 165.324619,43.9826098 165.71134,43.9826098 Z M177.295324,38.6212817 C176.949619,38.5744064 176.644935,38.5509692 176.381261,38.5509692 C175.420319,38.5509692 174.790443,38.8761612 174.491613,39.5265551 L174.491613,45.7492114 L171.951574,45.7492114 L171.951574,36.2394457 L174.350988,36.2394457 L174.4213,37.3732348 C174.931069,36.5001836 175.637116,36.0636645 176.539465,36.0636645 C176.820716,36.0636645 177.084385,36.10175 177.33048,36.1779223 L177.295324,38.6212817 Z M182.726965,45.9249926 C181.332426,45.9249926 180.197184,45.4972625 179.321203,44.6417895 C178.445222,43.7863165 178.007238,42.6466794 178.007238,41.2228442 L178.007238,40.9767504 C178.007238,40.0216675 178.191806,39.1676722 178.560949,38.4147387 C178.930091,37.6618052 179.453035,37.0817329 180.129797,36.6745043 C180.806558,36.2672757 181.578523,36.0636645 182.445715,36.0636645 C183.746502,36.0636645 184.770418,36.4738166 185.517492,37.2941332 C186.264566,38.1144498 186.638097,39.2775241 186.638097,40.783391 L186.638097,41.8205004 L180.582433,41.8205004 C180.664465,42.4415973 180.912021,42.9396392 181.325109,43.314641 C181.738197,43.6896429 182.261141,43.877141 182.893957,43.877141 C183.872477,43.877141 184.637118,43.5226524 185.187902,42.8136645 L186.435949,44.2111254 C186.055088,44.7501906 185.539468,45.1705966 184.889074,45.4723559 C184.23868,45.7741152 183.517984,45.9249926 182.726965,45.9249926 Z M182.436925,38.1203051 C181.933017,38.1203051 181.524329,38.2902253 181.210851,38.6300707 C180.897373,38.9699162 180.696692,39.4562394 180.6088,40.0890551 L184.142004,40.0890551 L184.142004,39.8869067 C184.130285,39.3244039 183.977943,38.8893496 183.684972,38.5817309 C183.392002,38.2741122 182.975991,38.1203051 182.436925,38.1203051 Z" id="compare" fill="#4B8FCC"></path>
                    </g>
                </g>
            </g>
        </g>
    </g>
</svg>