<?xml version="1.0" encoding="UTF-8" standalone="no"?>
<svg width="30px" height="30px" viewBox="0 0 30 30" version="1.1" xmlns="http://www.w3.org/2000/svg" xmlns:xlink="http://www.w3.org/1999/xlink">
    <!-- Generator: Sketch 47.1 (45422) - http://www.bohemiancoding.com/sketch -->
    <title>Group 11</title>
    <desc>Created with Sketch.</desc>
    <defs></defs>
    <g id="Diseño" stroke="none" stroke-width="1" fill="none" fill-rule="evenodd">
        <g id="vertical-1_fase2" transform="translate(-21.000000, -25.000000)" fill-rule="nonzero" fill="#FFFFFF">
            <g id="Group-7" transform="translate(6.000000, -1.000000)">
                <g id="Group-11" transform="translate(15.000000, 26.000000)">
                    <path d="M27.7297297,13.8243243 L29.8378378,13.8243243 L29.9054054,13.7567568 C29.9054054,13.1081081 29.8513514,12.4459459 29.7567568,11.7972973 L27.7297297,13.8243243 Z" id="Shape"></path>
                    <path d="M22.8918919,1.85135135 L16.2027027,8.54054054 L16.2027027,10.6486486 L24.1756757,2.67567568 C23.7567568,2.36486486 23.3243243,2.09459459 22.8918919,1.85135135 Z" id="Shape"></path>
                    <path d="M19.9189189,0.621621622 L16.2027027,4.33783784 L16.2027027,6.44594595 L21.472973,1.17567568 C20.972973,0.945945946 20.4459459,0.77027027 19.9189189,0.621621622 Z" id="Shape"></path>
                    <path d="M18.1891892,0.256756757 C17.5405405,0.162162162 16.8918919,0.108108108 16.2297297,0.108108108 L16.2027027,0.135135135 L16.2027027,2.24324324 L18.1891892,0.256756757 Z" id="Shape"></path>
                    <path d="M21.4324324,13.8243243 L28.1486486,7.10810811 C27.9054054,6.67567568 27.6351351,6.24324324 27.3243243,5.82432432 L19.3243243,13.8243243 L21.4324324,13.8243243 Z" id="Shape"></path>
                    <path d="M26.3918919,4.64864865 C26.2297297,4.47297297 26.0675676,4.2972973 25.8918919,4.12162162 C25.7162162,3.94594595 25.527027,3.77027027 25.3378378,3.59459459 L16.2027027,12.7432432 L16.2027027,13.8108108 L17.2297297,13.8108108 L26.3918919,4.64864865 Z" id="Shape"></path>
                    <path d="M25.6351351,13.8243243 L29.3918919,10.0675676 C29.2432432,9.54054054 29.0540541,9.02702703 28.8513514,8.51351351 L23.5405405,13.8243243 L25.6351351,13.8243243 Z" id="Shape"></path>
                    <path d="M13.8108108,2.47297297 C6.21621622,2.47297297 0.0540540541,8.63513514 0.0540540541,16.2297297 C0.0540540541,23.8243243 6.21621622,29.9864865 13.8108108,29.9864865 C21.4054054,29.9864865 27.5675676,23.8243243 27.5675676,16.2297297 L13.8108108,16.2297297 L13.8108108,2.47297297 Z" id="Shape"></path>
                </g>
            </g>
        </g>
    </g>
</svg>