<?xml version="1.0" encoding="UTF-8"?>
<svg width="16px" height="16px" viewBox="0 0 16 16" version="1.1" xmlns="http://www.w3.org/2000/svg" xmlns:xlink="http://www.w3.org/1999/xlink">
    <!-- Generator: sketchtool 51.3 (57544) - http://www.bohemiancoding.com/sketch -->
    <title>C1919529-FA80-48AA-93A5-D5324BB02776</title>
    <desc>Created with sketchtool.</desc>
    <defs></defs>
    <g id="Diseño" stroke="none" stroke-width="1" fill="none" fill-rule="evenodd">
        <g id="Release_04_wikis" transform="translate(-942.000000, -252.000000)" fill="#4FB6FF" fill-rule="nonzero">
            <g id="sort-by" transform="translate(931.000000, 242.000000)">
                <path d="M21.2852243,23.70425 C21.3685368,23.70425 21.4369743,23.731 21.4903181,23.7846563 C21.5439743,23.8380938 21.5704118,23.9065625 21.5704118,23.9897813 L21.5704118,25.70275 C21.5704118,25.7862813 21.5440056,25.854375 21.4903181,25.9080938 C21.4369743,25.9615625 21.3685368,25.9882813 21.2852243,25.9882813 L19.0012556,25.9882813 C18.9179431,25.9882813 18.8496306,25.9615625 18.7960368,25.9080938 C18.7425056,25.8544063 18.7157868,25.7862813 18.7157868,25.70275 L18.7157868,23.9897813 C18.7157868,23.9065625 18.7426306,23.838125 18.7960368,23.7846563 C18.8495993,23.7309688 18.9179431,23.70425 19.0012556,23.70425 L21.2852243,23.70425 Z M17.0025993,22.5622187 C17.0859743,22.5622187 17.1543181,22.5889687 17.2078493,22.6422812 C17.2612556,22.6961875 17.2880993,22.7644063 17.2880993,22.8480312 C17.2880993,22.9190625 17.2584118,22.9906875 17.1988493,23.0619062 L14.3527243,25.9080937 C14.2932868,25.9614375 14.2248181,25.9881562 14.1475056,25.9881562 C14.0760681,25.9881562 14.0077243,25.9614375 13.9422868,25.9080937 L11.0872556,23.0529375 C10.9981306,22.95775 10.9771931,22.8537187 11.0248493,22.7405625 C11.0724743,22.621625 11.1617243,22.5621875 11.2924743,22.5621875 L13.0055368,22.5621875 L13.0055368,10.2854687 C13.0055368,10.2022813 13.0323806,10.1338438 13.0857868,10.08025 C13.1392556,10.0267188 13.2077868,10 13.2910056,10 L15.0040681,10 C15.0874118,10 15.1557556,10.0268437 15.2093181,10.0802813 C15.2628806,10.13375 15.2895681,10.2022813 15.2895681,10.2855 L15.2895681,22.5622187 L17.0025993,22.5622187 Z M22.9982243,19.1363125 C23.0815368,19.1363125 23.1499743,19.1630625 23.2033181,19.2165 C23.2569118,19.2699375 23.2837243,19.3384063 23.2837243,19.4215938 L23.2837243,21.1348125 C23.2837243,21.218 23.2569118,21.2864375 23.2033181,21.3399063 C23.1499431,21.393375 23.0815368,21.4200938 22.9982243,21.4200938 L19.0011618,21.4200938 C18.9178493,21.4200938 18.8495056,21.393375 18.7959431,21.3399063 C18.7424118,21.2864688 18.7156931,21.218 18.7156931,21.1348125 L18.7156931,19.4215938 C18.7156931,19.3384063 18.7425056,19.2699688 18.7959431,19.2165 C18.8495056,19.1630313 18.9178493,19.1363125 19.0011618,19.1363125 L22.9982243,19.1363125 Z M26.6295993,10.08025 C26.6830368,10.1337187 26.7098806,10.2022813 26.7097556,10.2855 L26.7097556,11.9985312 C26.7097556,12.0818438 26.6830368,12.1501875 26.6295681,12.20375 C26.5760056,12.2572813 26.5076618,12.284 26.4243493,12.284 L19.0012556,12.284 C18.9179431,12.284 18.8496306,12.2571562 18.7960368,12.20375 C18.7425056,12.1501875 18.7157868,12.0818438 18.7157868,11.9985312 L18.7157868,10.2854687 C18.7157868,10.2022813 18.7426306,10.1338438 18.7960368,10.08025 C18.8495993,10.0267188 18.9179431,10 19.0012556,10 L26.4243493,10 C26.5076618,10 26.5760056,10.0268437 26.6295993,10.08025 Z M24.7113493,14.5681562 C24.7944431,14.5681562 24.8628806,14.595 24.9166618,14.6484687 C24.9700368,14.701875 24.9967556,14.7703437 24.9967556,14.8536875 L24.9967556,16.5666875 C24.9967556,16.6500312 24.9700368,16.718375 24.9166618,16.7719062 C24.8630056,16.8255 24.7945681,16.8522187 24.7113493,16.8522187 L19.0011618,16.8522187 C18.9178493,16.8522187 18.8495056,16.825375 18.7959431,16.7719062 C18.7424118,16.718375 18.7156931,16.6500312 18.7156931,16.5666875 L18.7156931,14.8536875 C18.7156931,14.7703437 18.7425056,14.702 18.7959431,14.6484687 C18.8495056,14.594875 18.9178493,14.5681562 19.0011618,14.5681562 L24.7113493,14.5681562 Z" id="ico_sort"></path>
            </g>
        </g>
    </g>
</svg>