<?xml version="1.0" encoding="UTF-8"?>
<svg width="16px" height="16px" viewBox="0 0 16 16" version="1.1" xmlns="http://www.w3.org/2000/svg" xmlns:xlink="http://www.w3.org/1999/xlink">
    <!-- Generator: sketchtool 51.3 (57544) - http://www.bohemiancoding.com/sketch -->
    <title>3D641F9D-F722-4282-9EBA-24AD0CDCF92F</title>
    <desc>Created with sketchtool.</desc>
    <defs></defs>
    <g id="Diseño" stroke="none" stroke-width="1" fill="none" fill-rule="evenodd">
        <g id="screen-01_Wikis_b" transform="translate(-297.000000, -829.000000)" fill="#4FB6FF" fill-rule="nonzero">
            <g id="Group-9" transform="translate(58.000000, 493.000000)">
                <g id="verified-icon" transform="translate(239.000000, 336.000000)">
                    <path d="M14.9407554,4.003906 L12.9140627,3.1023435 L12.011719,1.07486953 L9.80612003,1.3052081 L8.011719,0.003906 L6.2162763,1.3052081 L4.011719,1.07486953 L3.1100263,3.10143207 L1.08255233,4.003906 L1.31302107,6.20950497 L0.011719,8.003906 L1.31302107,9.79934873 L1.08255233,12.003906 L3.10924503,12.9054685 L4.011719,14.9329425 L6.21731797,14.7026039 L8.011719,16.003906 L9.8071617,14.7026039 L12.011719,14.9329425 L12.9132815,12.9062498 L14.9407554,12.003906 L14.7102867,9.79830707 L16.011719,8.003906 L14.7102867,6.2084633 L14.9407554,4.003906 Z M6.411719,11.203906 L4.1476565,8.9398435 L4.902344,8.1878904 L6.411719,9.694531 L10.9369794,5.1692706 L11.6916669,5.92382787 L6.411719,11.203906 Z" id="Shape"></path>
                </g>
            </g>
        </g>
    </g>
</svg>