<?xml version="1.0" encoding="UTF-8"?>
<svg width="17px" height="14px" viewBox="0 0 17 14" version="1.1" xmlns="http://www.w3.org/2000/svg" xmlns:xlink="http://www.w3.org/1999/xlink">
    <!-- Generator: sketchtool 51.3 (57544) - http://www.bohemiancoding.com/sketch -->
    <title>D453C8A3-4C98-454B-998B-574FD0C8C545</title>
    <desc>Created with sketchtool.</desc>
    <defs></defs>
    <g id="Diseño" stroke="none" stroke-width="1" fill="none" fill-rule="evenodd">
        <g id="Release_04_wikis" transform="translate(-58.000000, -251.000000)" fill="#FFFFFF">
            <g id="filtros" transform="translate(58.000000, 226.000000)">
                <g id="filter" transform="translate(0.000000, 24.000000)">
                    <g id="ico-filter" transform="translate(8.246862, 8.246862) rotate(-90.000000) translate(-8.246862, -8.246862) translate(1.246862, 0.246862)">
                        <path d="M2.44444444,13.1815949 C1.40871789,12.8155181 0.666666667,11.8277501 0.666666667,10.6666667 C0.666666667,9.50558327 1.40871789,8.51781521 2.44444444,8.15173841 L2.44444444,0.888888889 L2.44444444,-2.27373675e-12 L4.22222222,-2.27373675e-12 L4.22222222,0.888888889 L4.22222222,8.15173841 C5.25794878,8.51781521 6,9.50558327 6,10.6666667 C6,11.8277501 5.25794878,12.8155181 4.22222222,13.1815949 L4.22222222,15.1111111 L4.22222222,16 L2.44444444,16 L2.44444444,15.1111111 L2.44444444,13.1815949 Z M12.2222222,2.81840507 C13.2579488,3.18448188 14,4.17224993 14,5.33333333 C14,6.49441673 13.2579488,7.48218479 12.2222222,7.84826159 L12.2222222,15.1111111 L12.2222222,16 L10.4444444,16 L10.4444444,15.1111111 L10.4444444,7.84826159 C9.40871789,7.48218479 8.66666667,6.49441673 8.66666667,5.33333333 C8.66666667,4.17224993 9.40871789,3.18448188 10.4444444,2.81840507 L10.4444444,0.888888889 L10.4444444,-2.27373675e-12 L12.2222222,-2.27373675e-12 L12.2222222,0.888888889 L12.2222222,2.81840507 Z" id="Combined-Shape"></path>
                    </g>
                </g>
            </g>
        </g>
    </g>
</svg>