<?xml version="1.0" encoding="UTF-8"?>
<svg width="248px" height="35px" viewBox="0 0 248 35" version="1.1" xmlns="http://www.w3.org/2000/svg" xmlns:xlink="http://www.w3.org/1999/xlink">
    <!-- Generator: Sketch 50 (54983) - http://www.bohemiancoding.com/sketch -->
    <title>Group</title>
    <desc>Created with Sketch.</desc>
    <defs>
        <polygon id="path-1" points="0 0.155217391 63.0665939 0.155217391 63.0665939 34.1075712 0 34.1075712"></polygon>
    </defs>
    <g id="Diseño" stroke="none" stroke-width="1" fill="none" fill-rule="evenodd">
        <g id="vertical-1_fase2" transform="translate(-402.000000, -19.000000)">
            <g id="Group" transform="translate(402.000000, 19.000000)">
                <g id="Group-13" transform="translate(0.000000, 0.605576)">
                    <mask id="mask-2" fill="white">
                        <use xlink:href="#path-1"></use>
                    </mask>
                    <g id="Clip-12"></g>
                    <path d="M62.7263913,0.540902174 C62.4897609,0.28601087 62.1268261,0.155141304 61.6657391,0.155141304 L61.5356304,0.155141304 C59.2035652,0.260141304 56.8783478,0.378076087 54.5455217,0.483836957 C54.2335652,0.499815217 53.8044348,0.517315217 53.4688913,0.855141304 C53.3631304,0.960902174 53.2809565,1.08492391 53.2147609,1.23253261 C52.8685652,1.97818478 53.3555217,2.46209783 53.5853043,2.69340217 L54.1666087,3.28307609 C54.5721522,3.69546739 54.9822609,4.10557609 55.3923696,4.50959783 L41.2957391,18.6100326 L34.9660652,12.2780761 C34.5894348,11.899163 34.0796522,11.6853587 33.5363913,11.6853587 C32.9946522,11.6853587 32.4947609,11.899163 32.1173696,12.2780761 L16.1916087,28.1962283 L4.19193478,11.8687283 C3.2613913,10.896337 1.71758696,10.8659022 0.74823913,11.7987283 C-0.221108696,12.72775 -0.253826087,14.2700326 0.67823913,15.2378587 L13.9972609,33.3572065 C14.9285652,34.3295978 16.4685652,34.3600326 17.4386739,33.43025 C17.4987826,33.3724239 17.542913,33.3062283 17.5969348,33.243837 L33.5363913,17.3036196 L39.8691087,23.6355761 C40.2480217,24.0144891 40.7570435,24.2298152 41.2957391,24.2298152 C41.8412826,24.2298152 42.3396522,24.0144891 42.7276957,23.6355761 L58.627587,7.73568478 L60.4247609,9.52753261 C60.6416087,9.74133696 60.9360652,10.0357935 61.3865,10.0357935 C61.5759565,10.0357935 61.765413,9.98557609 61.9609565,9.87981522 C62.0933478,9.80525 62.2074783,9.72383696 62.3056304,9.62492391 C62.6624783,9.27340217 62.7263913,8.81992391 62.7423696,8.46611957 C62.8062826,6.95579348 62.8823696,5.44394565 62.9576957,3.92448913 L63.0626957,1.64948913 C63.0893261,1.17318478 62.9797609,0.804163043 62.7263913,0.540902174" id="Fill-11" fill="#22446D" mask="url(#mask-2)"></path>
                    <path d="M25.8004783,28.3297609 L25.8004783,33.3842174 C25.8004783,33.7791087 26.1208043,34.1085652 26.5240652,34.1085652 L31.5328696,34.1085652 C31.927,34.1085652 32.2549348,33.7867174 32.2549348,33.3842174 L32.2549348,21.9848696 L28.6179783,25.6233478 C27.8456957,26.3865 25.8004783,28.3297609 25.8004783,28.3297609" id="Fill-1" fill="#95C5EB" mask="url(#mask-2)"></path>
                    <path d="M19.1383804,34.108337 L23.9189239,34.108337 C24.3145761,34.108337 24.6432717,33.7864891 24.6432717,33.3839891 L24.6432717,28.8514891 L21.0047935,32.4899674 C20.23175,33.2523587 19.1383804,34.108337 19.1383804,34.108337" id="Fill-3" fill="#95C5EB" mask="url(#mask-2)"></path>
                    <path d="M34.7511196,21.9032283 L34.7511196,33.3839891 C34.7511196,33.7788804 35.0722065,34.108337 35.4739457,34.108337 L40.4857935,34.108337 C40.8799239,34.108337 41.2070978,33.7864891 41.2070978,33.3839891 L41.2070978,26.6259457 C40.0650326,26.6000761 38.9982935,26.1488804 38.1925326,25.3446413 L34.7511196,21.9032283 Z" id="Fill-5" fill="#95C5EB" mask="url(#mask-2)"></path>
                    <path d="M43.705413,25.9111848 L43.705413,33.3836848 C43.705413,33.779337 44.0234565,34.1080326 44.4259565,34.1080326 L49.4362826,34.1080326 C49.8311739,34.1080326 50.1613913,33.7869457 50.1613913,33.3836848 L50.1613913,19.5959674 L44.4191087,25.3359674 C44.1969348,25.5589022 43.9580217,25.746837 43.705413,25.9111848" id="Fill-7" fill="#95C5EB" mask="url(#mask-2)"></path>
                    <path d="M58.6278152,11.1180543 L52.6534674,17.0908804 L52.6534674,33.3841413 C52.6534674,33.7790326 52.9760761,34.1084891 53.3808587,34.1084891 L58.3904239,34.1084891 C58.7822717,34.1084891 59.1109674,33.7866413 59.1109674,33.3841413 L59.1109674,11.5715326 C58.9473804,11.4307717 58.8256413,11.3090326 58.734337,11.225337 L58.6278152,11.1180543 Z" id="Fill-9" fill="#95C5EB" mask="url(#mask-2)"></path>
                </g>
                <polygon id="Fill-14" fill="#22446D" points="68.9835543 9.91953261 76.8235543 9.91953261 79.631163 24.5396413 82.5757283 9.91953261 89.320837 9.91953261 92.6420326 24.7100761 95.620837 9.91953261 102.810293 9.91953261 97.1265978 34.39975 89.2865978 34.39975 85.8634457 19.7804022 82.4052935 34.39975 74.66725 34.39975"></polygon>
                <path d="M104.660652,34.3995978 L111.370761,34.3995978 L111.370761,16.4932935 L104.660652,16.4932935 L104.660652,34.3995978 Z M104.351739,11.7682935 C104.351739,9.78318478 105.926739,8.3451413 108.016087,8.3451413 C110.069674,8.3451413 111.644674,9.78318478 111.644674,11.7682935 C111.644674,13.7199239 110.069674,15.1579674 108.016087,15.1579674 C105.926739,15.1579674 104.351739,13.7199239 104.351739,11.7682935 Z" id="Fill-16" fill="#22446D"></path>
                <polygon id="Fill-18" fill="#22446D" points="114.828913 8.72101087 121.573261 8.72101087 121.573261 23.2726413 125.92163 16.4932935 132.837935 16.4932935 127.326196 24.5044891 133.283804 34.3995978 125.818913 34.3995978 121.573261 26.9354674 121.573261 34.3995978 114.828913 34.3995978"></polygon>
                <path d="M135.200435,34.3995978 L141.911304,34.3995978 L141.911304,16.4932935 L135.200435,16.4932935 L135.200435,34.3995978 Z M134.893043,11.7682935 C134.893043,9.78318478 136.467283,8.3451413 138.55663,8.3451413 C140.610217,8.3451413 142.185217,9.78318478 142.185217,11.7682935 C142.185217,13.7199239 140.610217,15.1579674 138.55663,15.1579674 C136.467283,15.1579674 134.893043,13.7199239 134.893043,11.7682935 Z" id="Fill-19" fill="#22446D"></path>
                <path d="M144.718989,22.313413 L144.718989,22.0402609 C144.718989,14.473413 150.16225,9.54297826 157.386707,9.54297826 C163.994859,9.54297826 168.445946,12.5560217 169.028011,19.1976522 L161.016815,19.1976522 C160.77638,16.9386304 159.578011,15.6717826 157.420946,15.6717826 C154.614098,15.6717826 152.902141,17.8623261 152.902141,22.0060217 L152.902141,22.2791739 C152.902141,26.3543913 154.544859,28.613413 157.558663,28.613413 C159.749207,28.613413 161.324207,27.4835217 161.59812,25.0190652 L169.336163,25.0190652 C168.925293,31.4552609 164.200293,34.8449348 157.729859,34.8449348 C148.896163,34.8449348 144.718989,29.8117826 144.718989,22.313413" id="Fill-20" fill="#4B8FCC"></path>
                <path d="M171.527772,8.72101087 L178.27288,8.72101087 L178.27288,19.3693804 C179.265815,17.4862283 181.182446,16.0139457 184.19625,16.0139457 C187.585924,16.0139457 189.947663,18.1710109 189.947663,22.6220978 L189.947663,34.3995978 L183.204076,34.3995978 L183.204076,24.1286196 C183.204076,22.3131848 182.552772,21.3887283 180.943533,21.3887283 C179.265815,21.3887283 178.27288,22.3824239 178.27288,24.5044891 L178.27288,34.3995978 L171.527772,34.3995978 L171.527772,8.72101087 Z" id="Fill-21" fill="#4B8FCC"></path>
                <path d="M193.063957,16.4932174 L199.809065,16.4932174 L199.809065,20.1225652 C200.938957,17.3491957 202.890587,16.2200652 205.561239,16.2543043 L205.561239,22.5535435 C201.829174,22.3473478 199.809065,23.5799565 199.809065,26.1478913 L199.809065,34.3995217 L193.063957,34.3995217 L193.063957,16.4932174 Z" id="Fill-22" fill="#4B8FCC"></path>
                <path d="M220.112717,25.5321957 L220.112717,25.2925217 C220.112717,22.484913 219.119783,20.9783913 217.031196,20.9783913 C214.977609,20.9783913 213.847717,22.3821957 213.847717,25.1898043 L213.847717,25.4637174 C213.847717,28.3732826 214.87413,29.8805652 217.031196,29.8805652 C219.084783,29.8805652 220.112717,28.3732826 220.112717,25.5321957 M207.03413,25.6691522 L207.03413,25.3944783 C207.03413,19.574587 211.381739,16.0137174 217.031196,16.0137174 C222.612174,16.0137174 226.959783,19.4718696 226.959783,25.2240435 L226.959783,25.4979565 C226.959783,31.3863261 222.577174,34.8444783 216.996957,34.8444783 C211.415978,34.8444783 207.03413,31.5582826 207.03413,25.6691522" id="Fill-23" fill="#4B8FCC"></path>
                <path d="M229.323424,16.4932174 L236.067772,16.4932174 L236.067772,19.3693043 C237.061467,17.4861522 238.978098,16.0138696 241.991141,16.0138696 C245.380815,16.0138696 247.743315,18.1709348 247.743315,22.6220217 L247.743315,34.3995217 L240.998967,34.3995217 L240.998967,24.1285435 C240.998967,22.3131087 240.347663,21.389413 238.738424,21.389413 C237.061467,21.389413 236.067772,22.3823478 236.067772,24.504413 L236.067772,34.3995217 L229.323424,34.3995217 L229.323424,16.4932174 Z" id="Fill-24" fill="#4B8FCC"></path>
            </g>
        </g>
    </g>
</svg>