<?xml version="1.0" encoding="UTF-8"?>
<svg width="135px" height="21px" viewBox="0 0 135 21" version="1.1" xmlns="http://www.w3.org/2000/svg" xmlns:xlink="http://www.w3.org/1999/xlink">
    <!-- Generator: Sketch 51.3 (57544) - http://www.bohemiancoding.com/sketch -->
    <title>logo-simple</title>
    <desc>Created with Sketch.</desc>
    <defs></defs>
    <g id="Diseño" stroke="none" stroke-width="1" fill="none" fill-rule="evenodd">
        <g id="release4_add-your-wiki" transform="translate(-653.000000, -133.000000)" fill="#FFFFFF">
            <g id="logo-simple" transform="translate(653.000000, 133.000000)">
                <g id="Group-33">
                    <polygon id="Fill-15" points="20.715375 1.619025 18.481875 12.712275 15.991125 1.619025 10.931625 1.619025 8.724375 12.584775 6.618375 1.619025 0.738375 1.619025 5.000625 19.979025 10.804125 19.979025 13.397625 9.014025 15.965625 19.979025 21.845625 19.979025 26.107875 1.619025"></polygon>
                    <g id="Group-32" transform="translate(27.000000, 0.063150)">
                        <path d="M0.263925,2.942325 C0.263925,1.453575 1.445175,0.375075 3.012675,0.375075 C4.552425,0.375075 5.733675,1.453575 5.733675,2.942325 C5.733675,4.406325 4.552425,5.484825 3.012675,5.484825 C1.445175,5.484825 0.263925,4.406325 0.263925,2.942325 Z M0.495675,19.915575 L5.528175,19.915575 L5.528175,6.486075 L0.495675,6.486075 L0.495675,19.915575 Z" id="Fill-16"></path>
                        <polygon id="Fill-18" points="8.12205 0.657225 13.18005 0.657225 13.18005 11.570475 16.4418 6.486225 21.6288 6.486225 17.4948 12.495225 21.9633 19.915725 16.36455 19.915725 13.18005 14.317725 13.18005 19.915725 8.12205 19.915725"></polygon>
                        <path d="M23.169675,2.942325 C23.169675,1.453575 24.350175,0.375075 25.917675,0.375075 C27.458175,0.375075 28.639425,1.453575 28.639425,2.942325 C28.639425,4.406325 27.458175,5.484825 25.917675,5.484825 C24.350175,5.484825 23.169675,4.406325 23.169675,2.942325 Z M23.400675,19.915575 L28.433925,19.915575 L28.433925,6.486075 L23.400675,6.486075 L23.400675,19.915575 Z" id="Fill-20"></path>
                        <path d="M30.539325,10.851375 L30.539325,10.646625 C30.539325,4.971375 34.621575,1.273125 40.040325,1.273125 C44.996325,1.273125 48.335325,3.533625 48.771825,8.514375 L42.762825,8.514375 C42.582825,6.820125 41.683575,5.869875 40.065825,5.869875 C37.961325,5.869875 36.677325,7.513125 36.677325,10.620375 L36.677325,10.825875 C36.677325,13.882125 37.908825,15.576375 40.169325,15.576375 C41.811825,15.576375 42.993075,14.728875 43.198575,12.880875 L49.002075,12.880875 C48.694575,17.707875 45.150075,20.249625 40.297575,20.249625 C33.672825,20.249625 30.539325,16.474875 30.539325,10.851375" id="Fill-22"></path>
                        <path d="M50.6457,0.657225 L55.70445,0.657225 L55.70445,8.643225 C56.4492,7.230975 57.88695,6.126975 60.14745,6.126975 C62.68995,6.126975 64.4607,7.744725 64.4607,11.082975 L64.4607,19.915725 L59.40345,19.915725 L59.40345,12.213225 C59.40345,10.851225 58.91445,10.157475 57.7077,10.157475 C56.4492,10.157475 55.70445,10.903725 55.70445,12.495225 L55.70445,19.915725 L50.6457,19.915725 L50.6457,0.657225 Z" id="Fill-24"></path>
                        <path d="M66.79785,6.48615 L71.8566,6.48615 L71.8566,9.20865 C72.7041,7.12815 74.1681,6.2814 76.17135,6.3069 L76.17135,11.0319 C73.37235,10.87665 71.8566,11.8014 71.8566,13.72665 L71.8566,19.91565 L66.79785,19.91565 L66.79785,6.48615 Z" id="Fill-26"></path>
                        <path d="M77.275875,13.368 L77.275875,13.1625 C77.275875,8.79675 80.536875,6.12675 84.773625,6.12675 C88.959375,6.12675 92.220375,8.72025 92.220375,13.03425 L92.220375,13.23975 C92.220375,17.6565 88.933125,20.25 84.748125,20.25 C80.562375,20.25 77.275875,17.7855 77.275875,13.368 M87.084375,13.26525 L87.084375,13.086 C87.084375,10.98 86.340375,9.8505 84.773625,9.8505 C83.233125,9.8505 82.385625,10.90275 82.385625,13.00875 L82.385625,13.21425 C82.385625,15.396 83.155875,16.527 84.773625,16.527 C86.314125,16.527 87.084375,15.396 87.084375,13.26525" id="Fill-28"></path>
                        <path d="M93.992625,6.48615 L99.050625,6.48615 L99.050625,8.64315 C99.796125,7.2309 101.233875,6.1269 103.493625,6.1269 C106.036125,6.1269 107.807625,7.74465 107.807625,11.0829 L107.807625,19.91565 L102.749625,19.91565 L102.749625,12.21315 C102.749625,10.85115 102.260625,10.15815 101.053875,10.15815 C99.796125,10.15815 99.050625,10.90365 99.050625,12.49515 L99.050625,19.91565 L93.992625,19.91565 L93.992625,6.48615 Z" id="Fill-30"></path>
                    </g>
                </g>
            </g>
        </g>
    </g>
</svg>