<?xml version="1.0" encoding="UTF-8"?>
<svg width="277px" height="139px" viewBox="0 0 277 139" version="1.1" xmlns="http://www.w3.org/2000/svg" xmlns:xlink="http://www.w3.org/1999/xlink">
    <!-- Generator: sketchtool 51.3 (57544) - http://www.bohemiancoding.com/sketch -->
    <title>3762CED1-589B-4131-B032-FA615FA194EE</title>
    <desc>Created with sketchtool.</desc>
    <defs>
        <rect id="path-1" x="0" y="0" width="277" height="139"></rect>
    </defs>
    <g id="Diseño" stroke="none" stroke-width="1" fill="none" fill-rule="evenodd">
        <g id="Release_04_wikis" transform="translate(-750.000000, -746.000000)">
            <g id="img_generica" transform="translate(750.000000, 746.000000)">
                <g id="Group-4">
                    <g id="Bitmap">
                        <mask id="mask-2" fill="white">
                            <use xlink:href="#path-1"></use>
                        </mask>
                        <rect stroke="#3D71AE" x="0.5" y="0.5" width="276" height="138"></rect>
                    </g>
                </g>
                <g id="group-1" transform="translate(85.000000, 17.000000)" fill-rule="nonzero">
                    <path d="M25.3680134,36 L4.63156699,36 C3.73050228,36 3,35.2377672 3,34.2975632 L3,29.5212397 C3,22.6059796 8.37261141,17 15,17 C21.6273886,17 27,22.6059796 27,29.5212397 L27,34.2975632 C26.9995804,35.2379861 26.2692879,36 25.3680134,36 Z" id="Shape" fill="#C3DA40"></path>
                    <path d="M36.8787243,77.3295354 C34.5537138,75.7675269 33.0602182,73.9770673 32.4391523,72.0074763 C28.5260176,70.3167238 26,66.3600343 26,61.9135625 C26,55.8959015 30.6603021,51 36.3890055,51 L49.6109945,51 C55.339488,51 60,55.8959015 60,61.9135625 C60,67.9312235 55.3396979,72.8269115 49.6109945,72.8269115 L39.3579522,72.8269115 C39.2698279,73.727479 39.3054973,74.664983 39.463911,75.6150838 L39.9391523,78.4670943 C40.004616,78.8599449 39.5780529,79.1428401 39.2513638,78.9233562 L36.8787243,77.3295354 Z" id="Shape" fill="#FF62A7"></path>
                    <path d="M61,61.8986605 C61,55.8892164 56.3066027,51 50.5372169,51 L37.2213317,51 C35.7195544,51 34.2921582,51.3338935 33,51.9300406 C33.5559555,60.9524156 41.1516901,68 50.2050382,68 L59.2023893,68 C60.3366992,66.2578262 61,64.1572393 61,61.8986605 Z" id="Shape" fill="#FC5479"></path>
                    <path d="M64.8509466,68.6584412 C65.1811572,67.2250184 65.2774773,65.817988 65.1380225,64.4751438 L52.3272359,64.4751438 C45.1231183,64.4751438 39.1112765,58.7066147 39.0015553,51.4430102 C38.8897402,44.0501886 44.8213851,38 52.1278951,38 L68.6882569,38 C75.90766,38 81.9144764,43.7993554 81.9990706,51.0785842 C82.0627257,56.5415952 78.8517057,61.4184843 73.8503876,63.4868021 C72.7736961,66.7742366 69.7109254,69.1178797 67.3251176,70.5071745 L64.8672792,71.9382747 C64.5289024,72.1354786 64.1203794,71.8301715 64.2087426,71.4463208 L64.8509466,68.6584412 Z" id="Shape" fill="#31D2F7"></path>
                    <path d="M49.7899016,54.7331249 C49.6774814,47.4727734 55.641225,41.5313736 62.9872736,41.5313736 L78,41.5313736 C75.5941238,39.3396867 72.3659382,38 68.8489126,38 L52.1989357,38 C44.852887,38 38.8891435,43.9416071 39.0015637,51.2017513 C39.1120892,58.3347901 45.1562531,64 52.3993552,64 L54.0267111,64 C51.4755728,61.6789269 49.8469538,58.4013494 49.7899016,54.7331249 Z" id="Shape" fill="#13ACE8"></path>
                    <path d="M103.368013,36 L82.631567,36 C81.7305023,36 81,35.2377672 81,34.2975632 L81,29.5212397 C81,22.6059796 86.3726114,17 93,17 C99.6273886,17 105,22.6059796 105,29.5212397 L105,34.2975632 C104.99958,35.2379861 104.269078,36 103.368013,36 Z" id="Shape" fill="#FFCF59"></path>
                    <path d="M25.3680134,101 L4.63156699,101 C3.73050228,101 3,100.237776 3,99.2973639 L3,94.5210954 C3,87.605915 8.37261141,82 15,82 C21.6273886,82 27,87.605915 27,94.5210954 L27,99.2973639 C26.9995804,100.237557 26.2692879,101 25.3680134,101 Z" id="Shape" fill="#FF62A7"></path>
                    <path d="M103.368013,101 L82.631567,101 C81.7305023,101 81,100.237776 81,99.2973639 L81,94.5210954 C81,87.605915 86.3726114,82 93,82 C99.6273886,82 105,87.605915 105,94.5210954 L105,99.2973639 C104.99958,100.237557 104.269078,101 103.368013,101 Z" id="Shape" fill="#31D2F7"></path>
                    <path d="M12.4374305,34.2975632 L12.4374305,29.5212397 C12.4374305,24.3110433 15.5595509,19.8453482 20,17.9592488 C18.5470471,17.342151 16.9534581,17 15.2812847,17 C8.49854754,17 3,22.6059796 3,29.5212397 L3,34.2975632 C3,35.2377672 3.74762554,36 4.67002627,36 L14.1072421,36 C13.1850561,36 12.4374305,35.2379861 12.4374305,34.2975632 Z" id="Shape" fill="#ADBC15"></path>
                    <path d="M90.4374305,34.2975632 L90.4374305,29.5212397 C90.4374305,24.3110433 93.5595509,19.8453482 98,17.9592488 C96.5470471,17.342151 94.9534581,17 93.2812847,17 C86.4985475,17 81,22.6059796 81,29.5212397 L81,34.2975632 C81,35.2377672 81.7476255,36 82.6700263,36 L92.1072421,36 C91.1850561,36 90.4374305,35.2379861 90.4374305,34.2975632 Z" id="Shape" fill="#FFB55C"></path>
                    <path d="M12.4374305,99.2973639 L12.4374305,94.5210954 C12.4374305,89.310959 15.5595509,84.8450965 20,82.9592378 C18.5470471,82.342366 16.9534581,82 15.2812847,82 C8.49854754,82 3,87.605915 3,94.5210954 L3,99.2973639 C3,100.237557 3.74762554,101 4.67002627,101 L14.1072421,101 C13.1850561,101 12.4374305,100.237557 12.4374305,99.2973639 Z" id="Shape" fill="#FC5479"></path>
                    <path d="M90.4374305,99.2973639 L90.4374305,94.5210954 C90.4374305,89.310959 93.5595509,84.8450965 98,82.9592378 C96.5470471,82.342366 94.9534581,82 93.2812847,82 C86.4985475,82 81,87.605915 81,94.5210954 L81,99.2973639 C81,100.237557 81.7476255,101 82.6700263,101 L92.1072421,101 C91.1850561,101 90.4374305,100.237557 90.4374305,99.2973639 Z" id="Shape" fill="#13ACE8"></path>
                    <g id="Group" transform="translate(7.000000, 8.000000)" fill="#FAD393">
                        <path d="M8.01529148,15.728084 C3.70773094,15.728084 0.203174888,12.2366404 0.203174888,7.94498688 C0.203174888,3.65333333 3.70773094,0.161889764 8.01529148,0.161889764 C12.3230628,0.161889764 15.8276188,3.65333333 15.8276188,7.94498688 C15.8276188,12.2366404 12.3230628,15.728084 8.01529148,15.728084 Z" id="Shape"></path>
                        <path d="M86.0989417,15.728084 C81.7913812,15.728084 78.2868251,12.2366404 78.2868251,7.94498688 C78.2868251,3.65333333 81.7913812,0.161889764 86.0989417,0.161889764 C90.406713,0.161889764 93.9112691,3.65333333 93.9112691,7.94498688 C93.9112691,12.2366404 90.406713,15.728084 86.0989417,15.728084 Z" id="Shape"></path>
                        <path d="M8.01529148,79.8811549 C3.70773094,79.8811549 0.203174888,76.3895013 0.203174888,72.0980577 C0.203174888,67.8066142 3.70773094,64.3149606 8.01529148,64.3149606 C12.3230628,64.3149606 15.8276188,67.8064042 15.8276188,72.0980577 C15.8276188,76.3897113 12.3230628,79.8811549 8.01529148,79.8811549 Z" id="Shape"></path>
                        <path d="M86.0989417,79.8811549 C81.7913812,79.8811549 78.2868251,76.3895013 78.2868251,72.0980577 C78.2868251,67.8066142 81.7913812,64.3149606 86.0989417,64.3149606 C90.406713,64.3149606 93.9112691,67.8064042 93.9112691,72.0980577 C93.9112691,76.3897113 90.406713,79.8811549 86.0989417,79.8811549 Z" id="Shape"></path>
                    </g>
                    <g id="Group" transform="translate(7.000000, 8.000000)" fill="#EDB769">
                        <path d="M7.58149883,7.94519685 C7.58149883,4.98204724 9.25250585,2.40104987 11.7048478,1.08661417 C10.6054567,0.497427822 9.34903981,0.161889764 8.01548009,0.161889764 C3.70770492,0.161889764 0.202974239,3.65333333 0.202974239,7.94498688 C0.202974239,12.2366404 3.70770492,15.728084 8.01548009,15.728084 C9.34903981,15.728084 10.6052459,15.3927559 11.7048478,14.8033596 C9.25250585,13.4893438 7.58149883,10.9083465 7.58149883,7.94519685 Z" id="Shape"></path>
                        <path d="M85.6692506,7.94519685 C85.6692506,4.98204724 87.3402576,2.40104987 89.7925995,1.08661417 C88.6929977,0.497427822 87.4367916,0.161889764 86.1032319,0.161889764 C81.7954567,0.161889764 78.290726,3.65333333 78.290726,7.94498688 C78.290726,12.2366404 81.7954567,15.728084 86.1032319,15.728084 C87.4367916,15.728084 88.6929977,15.3927559 89.7925995,14.8033596 C87.3404684,13.4893438 85.6692506,10.9083465 85.6692506,7.94519685 Z" id="Shape"></path>
                        <path d="M7.58149883,72.0982677 C7.58149883,69.1351181 9.25250585,66.5541207 11.7048478,65.239685 C10.6054567,64.6504987 9.34903981,64.3149606 8.01548009,64.3149606 C3.70770492,64.3149606 0.202974239,67.8064042 0.202974239,72.0980577 C0.202974239,76.3897113 3.70770492,79.8811549 8.01548009,79.8811549 C9.34903981,79.8811549 10.6052459,79.5458268 11.7048478,78.9564304 C9.25250585,77.6422047 7.58149883,75.0612073 7.58149883,72.0982677 Z" id="Shape"></path>
                        <path d="M85.6692506,72.0982677 C85.6692506,69.1351181 87.3402576,66.5541207 89.7925995,65.239685 C88.6929977,64.6504987 87.4367916,64.3149606 86.1032319,64.3149606 C81.7954567,64.3149606 78.290726,67.8064042 78.290726,72.0980577 C78.290726,76.3897113 81.7954567,79.8811549 86.1032319,79.8811549 C87.4367916,79.8811549 88.6929977,79.5458268 89.7925995,78.9564304 C87.3404684,77.6422047 85.6692506,75.0612073 85.6692506,72.0982677 Z" id="Shape"></path>
                    </g>
                    <path d="M27.7719864,10 C28.073728,10 28.3792946,9.92629976 28.6589368,9.77181271 C30.3586772,8.83172968 32.1334281,7.97810271 33.9336782,7.2342162 C34.8306159,6.86348779 35.2424295,5.87055926 34.8533528,5.01591992 C34.4644885,4.16148305 33.4222049,3.76909 32.5254797,4.13961594 C30.5992206,4.93553806 28.7003732,5.84889463 26.8818485,6.85457897 C26.036122,7.32229204 25.7488299,8.35409543 26.2394788,9.15973626 C26.5679947,9.69892236 27.1617033,10 27.7719864,10 Z" id="Shape" fill="#21446D"></path>
                    <path d="M62.3907274,4.55950515 C64.2258735,4.89955922 66.0606169,5.35906265 67.8444176,5.92531724 C68.0038905,5.9758949 68.1645715,6 68.3228362,6 C69.046102,6 69.7133913,5.49594518 69.9300489,4.71704919 C70.1940248,3.76791094 69.6878193,2.76991682 68.7998453,2.48818849 C66.8908021,1.88233267 64.9275944,1.39033039 62.963984,1.02660167 C62.0520489,0.857650761 61.1830023,1.51107111 61.0249389,2.48668192 C60.8666742,3.46250795 61.4781882,4.39033901 62.3907274,4.55950515 Z" id="Shape" fill="#21446D"></path>
                    <path d="M50.6475667,3 C50.680238,3 50.7131073,2.999298 50.7461746,2.9973675 C51.6823553,2.94840295 52.6333866,2.92365742 53.5729334,2.92365742 C53.5747155,2.92365742 53.5762995,2.92365742 53.5778836,2.92365742 C54.4707006,2.92365742 55.372626,2.94594595 56.2587107,2.98982099 C57.1729126,3.03597754 57.9467269,2.41786592 57.9974169,1.61179361 C58.0479089,0.805721306 57.3521096,0.115654616 56.4426599,0.0707265707 C55.4955888,0.0238680239 54.531687,0 53.5782796,0 C53.5762995,0 53.5747155,0 53.5727354,0 C52.569034,0 51.5526602,0.0263250263 50.552325,0.0787995788 C49.6430733,0.126360126 48.9492541,0.818181818 49.0029142,1.62407862 C49.0541982,2.4008424 49.7810847,3 50.6475667,3 Z" id="Shape" fill="#21446D"></path>
                    <path d="M104.180518,41.0459037 C103.355161,41.2590298 102.845562,42.1573185 103.042172,43.0520083 C103.437051,44.8483857 103.738237,46.6911469 103.937983,48.5291098 C104.030017,49.3764161 104.693622,50 105.461618,50 C105.521745,50 105.58224,49.9962013 105.643289,49.988404 C106.485798,49.8808413 107.088538,49.0533281 106.989311,48.1398448 C106.775917,46.1737263 106.453521,44.2022097 106.03116,42.2802759 C105.834181,41.3851861 105.006058,40.8321778 104.180518,41.0459037 Z" id="Shape" fill="#21446D"></path>
                    <path d="M101.101219,70.7270359 C100.785543,71.6059289 101.232869,72.5777329 102.100629,72.8975336 C102.289272,72.9672677 102.48213,73 102.672179,73 C103.355108,73 103.996095,72.5728535 104.243138,71.8850684 C104.922857,69.9935069 105.49842,68.0413601 105.954978,66.0827075 C106.1669,65.1725053 105.610402,64.2602701 104.711937,64.0455787 C103.814676,63.8310906 102.913,64.3940456 102.700877,65.3048577 C102.274221,67.1352241 101.736186,68.9594912 101.101219,70.7270359 Z" id="Shape" fill="#21446D"></path>
                    <path d="M74.0699495,7.24406992 C75.8715644,7.98474769 77.6477178,8.83601981 79.3498206,9.77394109 C79.6281999,9.92714978 79.9311921,10 80.2307893,10 C80.842078,10 81.4366046,9.69622065 81.763573,9.15339516 C82.250949,8.34453445 81.9606876,7.31103531 81.1147285,6.84491562 C79.2938053,5.84124651 77.3933148,4.93072017 75.4656653,4.13829642 C74.5683588,3.76856631 73.5293165,4.16589428 73.1439988,5.02366001 C72.758681,5.88122282 73.1732795,6.87515151 74.0699495,7.24406992 Z" id="Shape" fill="#21446D"></path>
                    <path d="M3.28513756,64.0460713 C2.38767551,64.2620982 1.83267664,65.1752289 2.04541284,66.0857151 C2.50336711,68.0446032 3.08022107,69.9961683 3.76053579,71.886302 C4.00775892,72.5736418 4.64797257,73 5.32949033,73 C5.51956942,73 5.71325761,72.9668433 5.90213367,72.8966651 C6.76851739,72.5758794 7.21464184,71.6031481 6.89824436,70.7239877 C6.26284284,68.9579373 5.72348339,67.1345237 5.29560492,65.3039907 C5.08266822,64.393301 4.18440415,63.8302478 3.28513756,64.0460713 Z" id="Shape" fill="#21446D"></path>
                    <path d="M38.6777769,6 C38.8377237,6 39.0004908,5.97556069 39.1616464,5.92389514 C40.9438253,5.35385904 42.7781783,4.8897266 44.6135385,4.54457499 C45.5262832,4.3728567 46.1354512,3.44652123 45.9740942,2.47538037 C45.8127372,1.50402513 44.9431016,0.85616913 44.0297525,1.02745866 C42.0658708,1.39662081 40.1029962,1.893339 38.1953174,2.50346414 C37.3077533,2.78751748 36.8047465,3.78331203 37.071459,4.72765541 C37.2898247,5.50113802 37.9564044,6 38.6777769,6 Z" id="Shape" fill="#21446D"></path>
                    <path d="M106.180094,52 C105.175006,52 104.360625,52.730683 104.360625,53.632035 L104.360625,53.7352986 C104.360625,55.5532865 104.243317,57.3851865 104.012197,59.1802486 C103.896856,60.0757223 104.612497,60.8855675 105.610595,60.989027 C105.68181,60.996473 105.751932,61 105.822055,61 C106.733427,61 107.520066,60.3868847 107.627324,59.5552895 C107.87461,57.6363894 108,55.6781041 108,53.7354945 L108,53.632231 C107.999563,52.730683 107.184963,52 106.180094,52 Z" id="Shape" fill="#21446D"></path>
                    <path d="M62.0570335,104.025479 C60.250132,104.344761 58.4008765,104.561153 56.560569,104.668248 C55.6474743,104.721495 54.9499272,105.509794 55.0028199,106.429008 C55.0535253,107.315594 55.7838817,108 56.6548214,108 C56.6868354,108 56.7196448,107.999199 56.7520565,107.997198 C58.7194257,107.882696 60.6973337,107.651491 62.6299051,107.309588 C63.5308703,107.150247 64.1331708,106.286081 63.9746916,105.378878 C63.8168089,104.472274 62.9576011,103.865937 62.0570335,104.025479 Z" id="Shape" fill="#21446D"></path>
                    <path d="M50.4374898,104.663113 C48.5971263,104.557671 46.7480143,104.342976 44.9414518,104.025244 C44.038767,103.866278 43.1824095,104.474679 43.0249367,105.382972 C42.8676628,106.291464 43.4707119,107.156457 44.3716072,107.315022 C46.3042274,107.655005 48.2817831,107.884734 50.249795,107.997394 C50.2816076,107.999198 50.3134203,108 50.345233,108 C51.2169004,108 51.947399,107.313218 51.9973052,106.424972 C52.0490008,105.504051 51.3507125,104.715434 50.4374898,104.663113 Z" id="Shape" fill="#21446D"></path>
                    <path d="M38.7751803,102.30662 C36.9521939,101.708416 35.141347,100.984322 33.3928439,100.154489 C32.5239419,99.7424025 31.5151268,100.183018 31.1406533,101.139647 C30.7655625,102.096049 31.1665784,103.205738 32.0356861,103.618051 C33.9070248,104.505848 35.8448223,105.280434 37.795788,105.920753 C37.9591572,105.974414 38.1239667,106 38.2863072,106 C39.0245549,106 39.7062201,105.470628 39.9282294,104.652569 C40.1983853,103.654731 39.6823526,102.604364 38.7751803,102.30662 Z" id="Shape" fill="#21446D"></path>
                    <path d="M1.36751243,49.9890072 C1.42733219,49.9964024 1.48641114,50 1.54511969,50 C2.31851685,50 2.98579415,49.3736117 3.07561638,48.5245696 C3.27063247,46.6863777 3.56769403,44.843189 3.95883742,43.0461699 C4.15348312,42.1509582 3.63918141,41.2549471 2.8096685,41.0446853 C1.98034079,40.8338238 1.14971668,41.3894587 0.954885785,42.2848702 C0.536703122,44.2074068 0.218713913,46.1793109 0.0101781832,48.1456187 C-0.0868668636,49.0592183 0.520961082,49.8844759 1.36751243,49.9890072 Z" id="Shape" fill="#21446D"></path>
                    <path d="M74.6040286,100.15525 C72.8558571,100.985625 71.0455156,101.710593 69.2232341,102.310246 C68.3160047,102.608828 67.8009406,103.658843 68.0724712,104.655701 C68.2948011,105.472504 68.9766126,106 69.7146243,106 C69.8774603,106 70.0429726,105.974213 70.2072496,105.920378 C72.1575766,105.278652 74.0947285,104.50279 75.9653873,103.614055 C76.8345324,103.201016 77.2347261,102.091964 76.8586181,101.136952 C76.4827159,100.181715 75.4737912,99.7422108 74.6040286,100.15525 Z" id="Shape" fill="#21446D"></path>
                    <path d="M2.39360027,60.9888994 C3.39038813,60.8832456 4.10384395,60.0633879 3.98758839,59.1575006 C3.75464103,57.3419598 3.63554996,55.4887562 3.63358692,53.6494285 C3.63271446,52.7379909 2.81936174,52 1.81690287,52 C1.81646664,52 1.81581229,52 1.81493983,52 C0.811608501,52.0009911 -0.000871760029,52.740766 7.01996331e-07,53.6527983 C0.00218185706,55.618197 0.129561313,57.5990573 0.378649221,59.5400744 C0.486616397,60.380944 1.2716141,61 2.18071953,61 C2.25095273,61 2.3222765,60.996432 2.39360027,60.9888994 Z" id="Shape" fill="#21446D"></path>
                    <path d="M4.76530822,37 L25.2344791,37 C27.3107904,37 29,35.3223726 29,33.2602977 L29,29.0206024 C29,27.612722 28.7698659,26.228711 28.3155532,24.9070144 C28.0303316,24.0772838 27.1206426,23.6343243 26.2866725,23.917379 C25.4510008,24.200645 25.0049831,25.1026179 25.2902047,25.9325597 C25.6307266,26.9232513 25.8032208,27.9625269 25.8032208,29.0208137 L25.8032208,33.2605089 C25.8032208,33.5720804 25.5482016,33.825351 25.2344791,33.825351 L4.76509552,33.825351 C4.45137301,33.825351 4.19635383,33.5720804 4.19635383,33.2605089 L4.19635383,29.0208137 C4.19635383,26.2903916 5.37701394,23.7036093 7.4010027,21.9009308 C9.11339588,24.1594542 11.8348057,25.6228894 14.8943978,25.6228894 C20.0641194,25.6228894 24.270128,21.4457197 24.270128,16.3114447 C24.270128,11.1771697 20.0643321,7 14.8948232,7 C9.72531429,7 5.51909302,11.1771697 5.51909302,16.3114447 C5.51909302,17.2453141 5.65968324,18.1466533 5.9185309,18.9977187 C2.82767291,21.4041064 1,25.1005056 1,29.0210249 L1,33.2607202 C0.999787307,35.3223726 2.68899692,37 4.76530822,37 Z M14.8948232,10.174649 C18.301956,10.174649 21.0739869,12.9274619 21.0739869,16.3114447 C21.0739869,19.6954275 18.3021687,22.4482404 14.8948232,22.4482404 C11.4879031,22.4482404 8.71587223,19.6954275 8.71587223,16.3114447 C8.71587223,12.9274619 11.4874777,10.174649 14.8948232,10.174649 Z" id="Shape" fill="#21446D"></path>
                    <path d="M79,29.0206024 L79,33.2602977 C79,35.3223726 80.6889841,37 82.7654923,37 L103.234508,37 C105.310803,37 107,35.3223726 107,33.2602977 L107,29.0206024 C107,27.612722 106.769868,26.228711 106.315558,24.9070144 C106.030339,24.0772838 105.121082,23.6343243 104.286693,23.917379 C103.451028,24.200645 103.005013,25.1026179 103.290233,25.9325597 C103.630539,26.9232513 103.803245,27.9625269 103.803245,29.0208137 L103.803245,33.2605089 C103.803245,33.5720804 103.548228,33.825351 103.234508,33.825351 L82.7654923,33.825351 C82.4517722,33.825351 82.1967549,33.5720804 82.1967549,33.2605089 L82.1967549,29.0208137 C82.1967549,26.2903916 83.3774061,23.7036093 85.4013795,21.9009308 C87.1137596,24.1594542 89.8351488,25.6228894 92.8947177,25.6228894 C98.0644,25.6228894 102.270377,21.4457197 102.270377,16.3114447 C102.270377,11.1771697 98.0644,7 92.8947177,7 C87.7250353,7 83.5192714,11.1771697 83.5192714,16.3114447 C83.5192714,17.2453141 83.6598605,18.1466533 83.9187062,18.9977187 C80.8274463,21.4038952 79,25.1000831 79,29.0206024 Z M92.894505,10.1744378 C96.3016119,10.1744378 99.0736217,12.9272507 99.0736217,16.3112335 C99.0736217,19.6952162 96.3018246,22.4480292 92.894505,22.4480292 C89.4876107,22.4480292 86.7156009,19.6952162 86.7156009,16.3112335 C86.7156009,12.9272507 89.4876107,10.1744378 92.894505,10.1744378 Z" id="Shape" fill="#21446D"></path>
                    <path d="M104.28648,87.9171408 C103.450815,88.2004027 103.004801,89.102363 103.29002,89.9322931 C103.630327,90.9229708 103.803032,91.9620205 103.803032,93.0205036 L103.803032,97.2601391 C103.803032,97.5717062 103.548015,97.8249732 103.234295,97.8249732 L82.7652796,97.8249732 C82.4515595,97.8249732 82.1965422,97.5717062 82.1965422,97.2601391 L82.1965422,93.0205036 C82.1965422,90.29012 83.3771934,87.7033741 85.4011668,85.900721 C87.1135469,88.1592125 89.8349361,89.6226272 92.894505,89.6226272 C98.0641873,89.6226272 102.270164,85.4455163 102.270164,80.3113136 C102.270164,75.1771109 98.0641873,71 92.894505,71 C87.7248226,71 83.5190587,75.1771109 83.5190587,80.3113136 C83.5190587,81.2451698 83.6596478,82.1464964 83.9184935,82.9975497 C80.827659,85.4039036 79,89.1002507 79,93.0207148 L79,97.2603504 C79,99.3223962 80.6889841,101 82.7654923,101 L103.234508,101 C105.310803,101 107,99.3226074 107,97.2603504 L107,93.0207148 C107,91.6128542 106.769868,90.2288627 106.315558,88.9071847 C106.030126,88.0768321 105.120657,87.6336675 104.28648,87.9171408 Z M92.894505,74.1743931 C96.3016119,74.1743931 99.0736217,76.9271672 99.0736217,80.3111023 C99.0736217,83.6950375 96.3018246,86.4478116 92.894505,86.4478116 C89.4876107,86.4478116 86.7156009,83.6950375 86.7156009,80.3111023 C86.7156009,76.9271672 89.4876107,74.1743931 92.894505,74.1743931 Z" id="Shape" fill="#21446D"></path>
                    <path d="M26.2864804,87.9171408 C25.4508151,88.2004027 25.0048008,89.102363 25.2900202,89.9322931 C25.6305395,90.9229708 25.8030324,91.9620205 25.8030324,93.0205036 L25.8030324,97.2601391 C25.8030324,97.5717062 25.5480151,97.8249732 25.234295,97.8249732 L4.76527961,97.8249732 C4.45155949,97.8249732 4.19654224,97.5717062 4.19654224,97.2601391 L4.19654224,93.0205036 C4.19654224,90.29012 5.37719338,87.7033741 7.40116677,85.900721 C9.11354694,88.1592125 11.8349361,89.6226272 14.894505,89.6226272 C20.0641873,89.6226272 24.2701639,85.4455163 24.2701639,80.3113136 C24.2701639,75.1771109 20.0641873,71 14.894505,71 C9.72482263,71 5.51905869,75.1771109 5.51905869,80.3113136 C5.51905869,81.2451698 5.65964784,82.1464964 5.91849354,82.9975497 C2.82765902,85.4039036 1,89.1002507 1,93.0207148 L1,97.2603504 C1,99.3223962 2.68919679,101 4.76549231,101 L25.2345077,101 C27.3108032,101 29,99.3226074 29,97.2603504 L29,93.0207148 C29,91.6128542 28.7698677,90.2288627 28.3155584,88.9071847 C28.0299136,88.0768321 27.1202315,87.6336675 26.2864804,87.9171408 Z M14.8947177,74.1743931 C18.3018246,74.1743931 21.0738344,76.9271672 21.0738344,80.3111023 C21.0738344,83.6950375 18.3020373,86.4478116 14.8947177,86.4478116 C11.4878234,86.4478116 8.71581362,83.6950375 8.71581362,80.3111023 C8.71581362,76.9271672 11.487398,74.1743931 14.8947177,74.1743931 Z" id="Shape" fill="#21446D"></path>
                    <path d="M68.4398995,36 L51.7379012,36 C44.5208234,36 38.5164084,41.3175662 37.3762212,48.2668402 L36.8064409,48.2668402 C30.2963669,48.2668402 25,53.7529209 25,60.4962327 C25,65.2468247 27.6114234,69.5013406 31.7107921,71.528142 C33.7257007,76.4443031 40.0122906,78.8022427 40.2907059,78.9042771 C40.4661515,78.9688638 40.6478629,79 40.8279035,79 C41.2571185,79 41.6771435,78.8222289 41.979787,78.4931944 C42.4092109,78.0261507 42.5186555,77.3451505 42.2573669,76.7655534 C41.6255541,75.3640015 41.2702769,74.0104163 41.1950859,72.7254149 L49.9681987,72.7254149 C54.8207301,72.7254149 58.9971695,69.6763768 60.8101068,65.3313975 L63.3091616,65.3313975 C63.2650913,67.062615 62.7986986,68.8925007 61.9156226,70.7901288 C61.6472327,71.3669909 61.7487405,72.0500949 62.1731516,72.5221878 C62.4762129,72.8592166 62.9014595,73.0420369 63.3369404,73.0420369 C63.5119683,73.0420369 63.6882493,73.0125837 63.8590998,72.9517838 C64.2076934,72.82787 72.1309396,69.9498708 74.5625313,63.972132 C79.7114403,61.5731682 83,56.4255891 83,50.6658039 C83,42.579005 76.468413,36 68.4398995,36 Z M72.7314228,61.3266028 C72.3063851,61.5005871 71.973874,61.8468727 71.8339353,62.2869877 C70.9531569,65.0568515 68.271973,67.1187864 66.0598971,68.4054709 C66.4400291,66.7573535 66.544461,65.1452112 66.3700597,63.5839808 C66.2802483,62.7805394 65.6118843,62.1693853 64.809221,62.1693853 L51.7381101,62.1693853 C50.2351266,62.1693853 48.8002326,61.8735909 47.4850176,61.3390152 C46.9027055,61.1023377 46.2374745,61.2313006 45.7934302,61.6785686 L45.7710817,61.7010793 C44.9817856,62.4961055 45.2576946,63.8419067 46.2924056,64.2645603 C47.9752208,64.9516615 49.8132218,65.3311871 51.7379012,65.3311871 L57.2945123,65.3311871 C55.757484,67.871947 53.0485212,69.5631923 49.967781,69.5631923 L39.6672476,69.5631923 C38.8714768,69.5631923 38.1960114,70.1634066 38.1082886,70.9601159 C37.9894452,72.0402071 38.0257875,73.1484892 38.2160623,74.2788612 C36.6924013,73.2656709 35.0659793,71.8016361 34.4682113,69.9269394 C34.3232599,69.4720977 34.0032806,69.0904683 33.5659199,68.905965 C30.2687968,67.5138802 28.1385955,64.2125964 28.1385955,60.4962327 C28.1385955,55.4965507 32.0265941,51.4288524 36.8060232,51.4288524 L37.1978516,51.4288524 C37.2824414,53.0813877 37.6406427,54.6619731 38.2269233,56.1264286 C38.6454862,57.1722279 39.9826319,57.455189 40.7742255,56.6578486 C40.7819535,56.6500646 40.7896814,56.6422805 40.7972005,56.6347068 C41.2393651,56.1893323 41.3699049,55.5220067 41.1366041,54.9375709 C40.5793556,53.5416993 40.2848577,52.0120259 40.319738,50.409561 C40.4569615,44.1303476 45.6639346,39.1622226 51.8993529,39.1622226 L68.2477448,39.1622226 C74.5502083,39.1622226 79.8804111,44.3552438 79.860569,50.7032516 C79.8459486,55.3932541 77.0507251,59.5604622 72.7314228,61.3266028 Z" id="Shape" fill="#21446D"></path>
                </g>
            </g>
        </g>
    </g>
</svg>