<?xml version="1.0" encoding="UTF-8"?>
<svg width="200px" height="200px" viewBox="0 0 200 200" version="1.1" xmlns="http://www.w3.org/2000/svg" xmlns:xlink="http://www.w3.org/1999/xlink">
    <!-- Generator: Sketch 50 (54983) - http://www.bohemiancoding.com/sketch -->
    <title>line-graph</title>
    <desc>Created with Sketch.</desc>
    <defs></defs>
    <g id="Diseño" stroke="none" stroke-width="1" fill="none" fill-rule="evenodd">
        <g id="vertical-1_fase2" transform="translate(-791.000000, -362.000000)" fill-rule="nonzero">
            <g id="line-graph" transform="translate(791.000000, 362.000000)">
                <g id="Group" transform="translate(27.343750, 13.671875)" fill="#EFF2FA">
                    <rect id="Rectangle-path" x="20.9320313" y="96.6730469" width="6.89648437" height="79.3101562"></rect>
                    <rect id="Rectangle-path" x="0.242578125" y="134.603906" width="6.89648437" height="41.3792969"></rect>
                    <rect id="Rectangle-path" x="41.621875" y="69.0867187" width="6.89648438" height="106.896484"></rect>
                    <rect id="Rectangle-path" x="62.3113281" y="144.948828" width="6.89648437" height="31.034375"></rect>
                    <rect id="Rectangle-path" x="83.0011719" y="131.155859" width="6.89648438" height="44.8277344"></rect>
                    <rect id="Rectangle-path" x="103.690625" y="110.466016" width="6.89648437" height="65.5171875"></rect>
                    <rect id="Rectangle-path" x="124.380469" y="0.12109375" width="6.89648437" height="175.862109"></rect>
                    <rect id="Rectangle-path" x="145.069922" y="151.845312" width="6.89648438" height="24.1378906"></rect>
                </g>
                <path d="M175.862109,168.967188 C175.501953,168.967188 175.133203,168.909766 174.771094,168.788672 L112.701953,148.098828 C111.974219,147.85625 111.349609,147.378125 110.923828,146.740234 L72.2484375,88.7273438 L54.4816406,112.414063 C53.4308594,113.813281 51.4945312,114.205469 49.9859375,113.323047 L8.60703125,89.1851563 C6.96210938,88.2253906 6.40664063,86.1140625 7.36601563,84.4691406 C8.32734375,82.8257813 10.4355469,82.26875 12.0820313,83.228125 L50.8078125,105.81875 L69.6554688,80.6890625 C70.3257813,79.7933594 71.3726563,79.2324219 72.509375,79.3117188 C73.6273438,79.3417969 74.6609375,79.9144531 75.2828125,80.8457031 L116.005469,141.929688 L176.953125,162.246094 C178.759766,162.848828 179.736328,164.801953 179.133594,166.608594 C178.652344,168.053125 177.306641,168.967188 175.862109,168.967188 Z" id="Shape" fill="#AFB9D2"></path>
                <path d="M10.3414062,193.103516 C9.82460937,193.103516 9.29726562,192.987109 8.80273437,192.739844 C7.09882812,191.887891 6.40820312,189.817187 7.26054687,188.113281 L27.9503906,146.733984 C28.6269531,145.378516 30.115625,144.629297 31.6027344,144.875 L92.2152344,154.977734 L131.333203,125.639062 L151.780469,13.1777344 C152.120703,11.3054688 153.915234,10.0695313 155.789453,10.4015625 C157.663672,10.7417969 158.905859,12.5382813 158.565625,14.4105469 L137.875781,128.203125 C137.721094,129.058203 137.247656,129.824609 136.552344,130.344922 L95.1730469,161.379297 C94.41875,161.946484 93.4675781,162.182422 92.5363281,162.022266 L32.9792969,152.096094 L13.4296875,191.197266 C12.825,192.406641 11.6078125,193.103516 10.3414062,193.103516 Z" id="Shape" fill="#8F96AC"></path>
                <g id="Group" transform="translate(0.000000, 20.312500)" fill="#D7DEED">
                    <path d="M10.3449219,152.101172 L3.4484375,152.101172 C1.54414062,152.101172 0,150.557031 0,148.652734 C0,146.748437 1.54414062,145.204297 3.4484375,145.204297 L10.3449219,145.204297 L10.3449219,152.101172 Z" id="Shape"></path>
                    <path d="M10.3449219,131.411719 L3.4484375,131.411719 C1.54414062,131.411719 0,129.867578 0,127.963281 C0,126.058984 1.54414062,124.514844 3.4484375,124.514844 L10.3449219,124.514844 L10.3449219,131.411719 Z" id="Shape"></path>
                    <path d="M10.3449219,110.721875 L3.4484375,110.721875 C1.54414062,110.721875 0,109.177734 0,107.273437 C0,105.369141 1.54414062,103.825 3.4484375,103.825 L10.3449219,103.825 L10.3449219,110.721875 Z" id="Shape"></path>
                    <path d="M10.3449219,90.0324219 L3.4484375,90.0324219 C1.54414062,90.0324219 0,88.4882812 0,86.5839844 C0,84.6796875 1.54414062,83.1355469 3.4484375,83.1355469 L10.3449219,83.1355469 L10.3449219,90.0324219 Z" id="Shape"></path>
                    <path d="M10.3449219,69.3425781 L3.4484375,69.3425781 C1.54414062,69.3425781 0,67.7984375 0,65.8941406 C0,63.9898437 1.54414062,62.4457031 3.4484375,62.4457031 L10.3449219,62.4457031 L10.3449219,69.3425781 Z" id="Shape"></path>
                    <path d="M10.3449219,48.653125 L3.4484375,48.653125 C1.54414062,48.653125 0,47.1089844 0,45.2046875 C0,43.3003906 1.54414062,41.75625 3.4484375,41.75625 L10.3449219,41.75625 L10.3449219,48.653125 Z" id="Shape"></path>
                    <path d="M10.3449219,27.9632812 L3.4484375,27.9632812 C1.54414062,27.9632812 0,26.4191406 0,24.5148437 C0,22.6105469 1.54414062,21.0664063 3.4484375,21.0664063 L10.3449219,21.0664063 L10.3449219,27.9632812 Z" id="Shape"></path>
                    <path d="M10.3449219,7.27382812 L3.4484375,7.27382812 C1.54414062,7.27382812 0,5.7296875 0,3.82539062 C0,1.92109375 1.54414062,0.376953125 3.4484375,0.376953125 L10.3449219,0.376953125 L10.3449219,7.27382812 Z" id="Shape"></path>
                    <path d="M179.310156,169.342578 L179.310156,176.239063 C179.310156,178.143359 177.766016,179.6875 175.861719,179.6875 C173.957422,179.6875 172.413281,178.143359 172.413281,176.239063 L172.413281,169.342578 L179.310156,169.342578 Z" id="Shape"></path>
                    <path d="M158.620703,169.342578 L158.620703,176.239063 C158.620703,178.143359 157.076562,179.6875 155.172266,179.6875 C153.267969,179.6875 151.723828,178.143359 151.723828,176.239063 L151.723828,169.342578 L158.620703,169.342578 Z" id="Shape"></path>
                    <path d="M137.930859,169.342578 L137.930859,176.239063 C137.930859,178.143359 136.386719,179.6875 134.482422,179.6875 C132.578125,179.6875 131.033984,178.143359 131.033984,176.239063 L131.033984,169.342578 L137.930859,169.342578 Z" id="Shape"></path>
                    <path d="M117.241406,169.342578 L117.241406,176.239063 C117.241406,178.143359 115.697266,179.6875 113.792969,179.6875 C111.888672,179.6875 110.344531,178.143359 110.344531,176.239063 L110.344531,169.342578 L117.241406,169.342578 Z" id="Shape"></path>
                    <path d="M96.5515625,169.342578 L96.5515625,176.239063 C96.5515625,178.143359 95.0074219,179.6875 93.103125,179.6875 C91.1988281,179.6875 89.6546875,178.143359 89.6546875,176.239063 L89.6546875,169.342578 L96.5515625,169.342578 Z" id="Shape"></path>
                    <path d="M75.8621094,169.342578 L75.8621094,176.239063 C75.8621094,178.143359 74.3179687,179.6875 72.4136719,179.6875 C70.509375,179.6875 68.9652344,178.143359 68.9652344,176.239063 L68.9652344,169.342578 L75.8621094,169.342578 Z" id="Shape"></path>
                    <path d="M55.1722656,169.342578 L55.1722656,176.239063 C55.1722656,178.143359 53.628125,179.6875 51.7238281,179.6875 C49.8195313,179.6875 48.2753906,178.143359 48.2753906,176.239063 L48.2753906,169.342578 L55.1722656,169.342578 Z" id="Shape"></path>
                    <path d="M34.4828125,169.342578 L34.4828125,176.239063 C34.4828125,178.143359 32.9386719,179.6875 31.034375,179.6875 C29.1300781,179.6875 27.5859375,178.143359 27.5859375,176.239063 L27.5859375,169.342578 L34.4828125,169.342578 Z" id="Shape"></path>
                </g>
                <g id="Group" fill="#C7CFE2">
                    <path d="M10.3449219,200 C8.440625,200 6.89648437,198.455859 6.89648437,196.551563 L6.89648437,3.4484375 C6.89648437,1.54414063 8.440625,0 10.3449219,0 C12.2492187,0 13.7933594,1.54414063 13.7933594,3.4484375 L13.7933594,196.551953 C13.7929688,198.455859 12.2492187,200 10.3449219,200 Z" id="Shape"></path>
                    <path d="M0,189.655078 C0,187.750781 1.54414062,186.206641 3.4484375,186.206641 L196.551953,186.206641 C198.45625,186.206641 200.000391,187.750781 200.000391,189.655078 C200.000391,191.559375 198.45625,193.103516 196.551953,193.103516 L3.4484375,193.103516 C1.54414062,193.103516 0,191.559375 0,189.655078 Z" id="Shape"></path>
                </g>
                <circle id="Oval" fill="#004481" cx="31.034375" cy="148.275781" r="6.89648438"></circle>
                <g id="Group" transform="translate(44.531250, 75.781250)" fill="#49A5E6">
                    <circle id="Oval" cx="7.19296875" cy="34.5636719" r="6.89648437"></circle>
                    <circle id="Oval" cx="27.8824219" cy="6.97734375" r="6.89648437"></circle>
                    <circle id="Oval" cx="69.2617187" cy="69.0464844" r="6.89648437"></circle>
                    <circle id="Oval" cx="131.330859" cy="89.7359375" r="6.89648437"></circle>
                </g>
                <g id="Group" transform="translate(85.937500, 6.640625)" fill="#004481">
                    <circle id="Oval" cx="7.16601563" cy="151.980078" r="6.89648438"></circle>
                    <circle id="Oval" cx="48.5453125" cy="120.945703" r="6.89648437"></circle>
                    <circle id="Oval" cx="69.2347656" cy="7.15234375" r="6.89648438"></circle>
                </g>
            </g>
        </g>
    </g>
</svg>