<?xml version="1.0" encoding="UTF-8" standalone="no"?>
<svg
   xmlns:dc="http://purl.org/dc/elements/1.1/"
   xmlns:cc="http://creativecommons.org/ns#"
   xmlns:rdf="http://www.w3.org/1999/02/22-rdf-syntax-ns#"
   xmlns:svg="http://www.w3.org/2000/svg"
   xmlns="http://www.w3.org/2000/svg"
   xmlns:sodipodi="http://sodipodi.sourceforge.net/DTD/sodipodi-0.dtd"
   xmlns:inkscape="http://www.inkscape.org/namespaces/inkscape"
   width="237px"
   height="63px"
   viewBox="0 0 237 57"
   version="1.1"
   id="svg2"
   inkscape:version="0.91 r13725"
   sodipodi:docname="logo_classic_text_edited_2.svg">
  <metadata
     id="metadata29">
    <rdf:RDF>
      <cc:Work
         rdf:about="">
        <dc:format>image/svg+xml</dc:format>
        <dc:type
           rdf:resource="http://purl.org/dc/dcmitype/StillImage" />
        <dc:title>F1F4480E-7762-4AF9-AB9D-13F862529FE2</dc:title>
      </cc:Work>
    </rdf:RDF>
  </metadata>
  <sodipodi:namedview
     pagecolor="#ffffff"
     bordercolor="#666666"
     borderopacity="1"
     objecttolerance="4"
     gridtolerance="7"
     guidetolerance="4"
     inkscape:pageopacity="0"
     inkscape:pageshadow="2"
     inkscape:window-width="1543"
     inkscape:window-height="876"
     id="namedview27"
     showgrid="false"
     showguides="false"
     inkscape:zoom="3.7354333"
     inkscape:cx="102.52153"
     inkscape:cy="11.72933"
     inkscape:window-x="57"
     inkscape:window-y="24"
     inkscape:window-maximized="1"
     inkscape:current-layer="tipo-logo"
     inkscape:snap-path-clip="true"
     inkscape:snap-path-mask="true"
     inkscape:snap-perpendicular="true"
     inkscape:snap-tangential="true" />
  <!-- Generator: sketchtool 51.3 (57544) - http://www.bohemiancoding.com/sketch -->
  <title
     id="title4">F1F4480E-7762-4AF9-AB9D-13F862529FE2</title>
  <desc
     id="desc6">Created with sketchtool.</desc>
  <defs
     id="defs8" />
  <g
     id="Diseño"
     stroke-width="1"
     stroke="none"
     fill-rule="evenodd"
     fill="none">
    <g
       id="home_previa"
       transform="translate(-200.000000, -439.000000)">
      <g
         id="classic"
         transform="translate(160.000000, 292.000000)">
        <g
           id="tipo-logo"
           transform="translate(40.000000, 147.000000)">
          <g
             id="g3357"
             transform="translate(0.49829182,-2.1416525)">
            <polygon
               points="18.3041,35.2111 8.1341,35.2111 0.6641,3.0371 10.9681,3.0371 14.6581,22.2521 18.5281,3.0371 27.3931,3.0371 31.7581,22.4761 35.6731,3.0371 45.1221,3.0371 37.6521,35.2111 27.3481,35.2111 22.8491,15.9971 "
               id="Fill-14"
               style="fill:#22446d" />
            <path
               id="Fill-16"
               d="m 47.554,35.2109 8.819,0 0,-23.534 -8.819,0 0,23.534 z M 47.148,5.4669 c 0,-2.609 2.07,-4.499 4.816,-4.499 2.699,0 4.769,1.89 4.769,4.499 0,2.565 -2.07,4.455 -4.769,4.455 -2.746,0 -4.816,-1.89 -4.816,-4.455 z"
               inkscape:connector-curvature="0"
               style="fill:#22446d" />
            <polygon
               points="60.918,1.4619 69.782,1.4619 69.782,20.5869 75.497,11.6769 84.587,11.6769 77.343,22.2059 85.173,35.2109 75.362,35.2109 69.782,25.4009 69.782,35.2109 60.918,35.2109 "
               id="Fill-18"
               style="fill:#22446d" />
            <path
               id="Fill-19"
               d="m 87.692,35.2109 8.82,0 0,-23.534 -8.82,0 0,23.534 z M 87.288,5.4669 c 0,-2.609 2.069,-4.499 4.815,-4.499 2.699,0 4.769,1.89 4.769,4.499 0,2.565 -2.07,4.455 -4.769,4.455 -2.746,0 -4.815,-1.89 -4.815,-4.455 z"
               inkscape:connector-curvature="0"
               style="fill:#22446d" />
            <path
               id="Fill-20"
               d="m 100.2021,19.3262 0,-0.359 c 0,-9.945 7.154,-16.425 16.649,-16.425 8.685,0 14.535,3.96 15.3,12.689 l -10.529,0 c -0.316,-2.969 -1.891,-4.634 -4.726,-4.634 -3.689,0 -5.939,2.879 -5.939,8.325 l 0,0.359 c 0,5.356 2.159,8.325 6.12,8.325 2.879,0 4.949,-1.485 5.309,-4.724 l 10.17,0 c -0.54,8.459 -6.75,12.914 -15.254,12.914 -11.61,0 -17.1,-6.615 -17.1,-16.47"
               inkscape:connector-curvature="0"
               style="fill:#4b8fcc" />
            <path
               id="Fill-21"
               d="m 135.4365,1.4619 8.865,0 0,13.995 c 1.305,-2.475 3.824,-4.41 7.785,-4.41 4.455,0 7.559,2.835 7.559,8.685 l 0,15.479 -8.863,0 0,-13.499 c 0,-2.386 -0.856,-3.601 -2.971,-3.601 -2.205,0 -3.51,1.306 -3.51,4.095 l 0,13.005 -8.865,0 0,-33.749 z"
               inkscape:connector-curvature="0"
               style="fill:#4b8fcc" />
            <path
               id="Fill-22"
               d="m 163.7412,11.6768 8.865,0 0,4.77 c 1.485,-3.645 4.05,-5.129 7.56,-5.084 l 0,8.279 c -4.905,-0.271 -7.56,1.349 -7.56,4.724 l 0,10.845 -8.865,0 0,-23.534 z"
               inkscape:connector-curvature="0"
               style="fill:#4b8fcc" />
            <path
               id="Fill-23"
               d="m 199.291,23.5566 0,-0.315 c 0,-3.69 -1.305,-5.67 -4.05,-5.67 -2.699,0 -4.184,1.845 -4.184,5.535 l 0,0.36 c 0,3.824 1.349,5.805 4.184,5.805 2.699,0 4.05,-1.981 4.05,-5.715 m -17.189,0.18 0,-0.361 c 0,-7.649 5.714,-12.329 13.139,-12.329 7.335,0 13.049,4.545 13.049,12.105 l 0,0.36 c 0,7.739 -5.76,12.284 -13.094,12.284 -7.335,0 -13.094,-4.319 -13.094,-12.059"
               inkscape:connector-curvature="0"
               style="fill:#4b8fcc" />
            <path
               id="Fill-24"
               d="m 211.3965,11.6768 8.864,0 0,3.78 c 1.306,-2.475 3.825,-4.41 7.785,-4.41 4.455,0 7.56,2.835 7.56,8.685 l 0,15.479 -8.864,0 0,-13.499 c 0,-2.386 -0.856,-3.6 -2.971,-3.6 -2.204,0 -3.51,1.305 -3.51,4.094 l 0,13.005 -8.864,0 0,-23.534 z"
               inkscape:connector-curvature="0"
               style="fill:#4b8fcc" />
          </g>
          <text
             id="text23"
             font-size="23"
             font-weight="bold"
             line-spacing="33"
             x="-0.4010033"
             style="font-style:normal;font-variant:normal;font-weight:bold;font-stretch:normal;font-size:26.25px;line-height:125%;font-family:Roboto-Bold, Roboto;-inkscape-font-specification:'Roboto-Bold, Roboto, Bold';text-align:start;writing-mode:lr-tb;text-anchor:start;fill:#4b8fcc"
             y="3.701961"
             sodipodi:linespacing="125%">
            <tspan
               x="153.60265"
               y="56.701962"
               id="tspan25"
               style="font-style:normal;font-variant:normal;font-weight:bold;font-stretch:normal;font-size:26.25px;line-height:125%;font-family:Roboto-Bold, Roboto;-inkscape-font-specification:'Roboto-Bold, Roboto, Bold';text-align:start;writing-mode:lr-tb;text-anchor:start">classic</tspan>
          </text>
        </g>
      </g>
    </g>
  </g>
</svg>
