<?xml version="1.0" encoding="UTF-8"?>
<svg width="188px" height="44px" viewBox="0 0 188 44" version="1.1" xmlns="http://www.w3.org/2000/svg" xmlns:xlink="http://www.w3.org/1999/xlink">
    <!-- Generator: Sketch 51.3 (57544) - http://www.bohemiancoding.com/sketch -->
    <title>logo-classic</title>
    <desc>Created with Sketch.</desc>
    <defs>
        <polygon id="path-1" points="1.64919095e-05 0.687 47.3001639 0.687 47.3001639 26.1512123 1.64919095e-05 26.1512123"></polygon>
    </defs>
    <g id="Diseño" stroke="none" stroke-width="1" fill="none" fill-rule="evenodd">
        <g id="Release_04_wikis" transform="translate(-58.000000, -15.000000)">
            <g id="header" transform="translate(58.000000, 15.000000)">
                <g id="logo-classic">
                    <g id="Group-33">
                        <g id="Group-14" transform="translate(0.000000, 0.063150)">
                            <g id="Group-3">
                                <mask id="mask-2" fill="white">
                                    <use xlink:href="#path-1"></use>
                                </mask>
                                <g id="Clip-2"></g>
                                <path d="M47.045175,0.976125 C46.867425,0.784875 46.595175,0.686625 46.249425,0.686625 L46.151925,0.686625 C44.402925,0.765375 42.659175,0.853875 40.909425,0.933375 C40.675425,0.945375 40.353675,0.958875 40.101675,1.211625 C40.022925,1.291125 39.960675,1.384125 39.911175,1.494375 C39.651675,2.053875 40.016925,2.416875 40.189425,2.590125 L40.625175,3.032625 C40.929675,3.342375 41.237175,3.649125 41.544675,3.952875 L30.971925,14.527875 L26.224425,9.778875 C25.942425,9.494625 25.559925,9.334875 25.152675,9.334875 C24.746175,9.334875 24.371175,9.494625 24.088425,9.778875 L12.143925,21.717375 L3.143925,9.472125 C2.446425,8.742375 1.288425,8.719875 0.560925,9.419625 C-0.165825,10.116375 -0.189825,11.272875 0.509175,11.998875 L10.497675,25.588125 C11.196675,26.317875 12.351675,26.340375 13.079175,25.643625 C13.124175,25.599375 13.157175,25.550625 13.198425,25.503375 L25.152675,13.548375 L29.902425,18.297375 C30.185925,18.581625 30.567675,18.742125 30.971925,18.742125 C31.381425,18.742125 31.754925,18.581625 32.045925,18.297375 L43.970925,6.372375 L45.318675,7.716375 C45.481425,7.876125 45.701925,8.097375 46.040175,8.097375 C46.182675,8.097375 46.324425,8.059875 46.470675,7.980375 C46.570425,7.924125 46.655925,7.863375 46.729425,7.789125 C46.997175,7.525125 47.045175,7.185375 47.057175,6.919875 C47.105175,5.787375 47.162175,4.653375 47.218425,3.514125 L47.297175,1.807125 C47.317425,1.450125 47.234925,1.173375 47.045175,0.976125" id="Fill-1" fill="#FFFFFF" mask="url(#mask-2)"></path>
                            </g>
                            <path d="M19.35045,21.81795 L19.35045,25.6092 C19.35045,25.9047 19.59045,26.15145 19.89345,26.15145 L23.64945,26.15145 C23.94495,26.15145 24.1917,25.9107 24.1917,25.6092 L24.1917,17.0592 L21.46395,19.7877 C20.8842,20.3607 19.35045,21.81795 19.35045,21.81795" id="Fill-4" fill="#4FB6FF"></path>
                            <path d="M14.353875,26.151675 L17.939625,26.151675 C18.235875,26.151675 18.482625,25.910175 18.482625,25.607925 L18.482625,22.208925 L15.754125,24.938175 C15.174375,25.510425 14.353875,26.151675 14.353875,26.151675" id="Fill-6" fill="#4FB6FF"></path>
                            <path d="M26.063475,16.99785 L26.063475,25.60785 C26.063475,25.90485 26.304225,26.1516 26.605725,26.1516 L30.364725,26.1516 C30.660225,26.1516 30.905475,25.9101 30.905475,25.60785 L30.905475,20.5401 C30.048975,20.5206 29.249475,20.18235 28.644225,19.5786 L26.063475,16.99785 Z" id="Fill-8" fill="#4FB6FF"></path>
                            <path d="M32.779425,20.003775 L32.779425,25.608525 C32.779425,25.904775 33.017925,26.151525 33.319425,26.151525 L37.077675,26.151525 C37.373175,26.151525 37.621425,25.910775 37.621425,25.608525 L37.621425,15.267525 L33.314175,19.572525 C33.147675,19.739025 32.968425,19.880775 32.779425,20.003775" id="Fill-10" fill="#4FB6FF"></path>
                            <path d="M43.971225,8.909025 L39.489975,13.388775 L39.489975,25.608525 C39.489975,25.904775 39.732225,26.151525 40.035975,26.151525 L43.793475,26.151525 C44.086725,26.151525 44.333475,25.910775 44.333475,25.608525 L44.333475,9.249525 C44.210475,9.143025 44.119725,9.052275 44.050725,8.989275 L43.971225,8.909025 Z" id="Fill-12" fill="#4FB6FF"></path>
                        </g>
                        <polygon id="Fill-15" fill="#FFFFFF" points="71.715375 7.619025 69.481875 18.712275 66.991125 7.619025 61.931625 7.619025 59.724375 18.584775 57.618375 7.619025 51.738375 7.619025 56.000625 25.979025 61.804125 25.979025 64.397625 15.014025 66.965625 25.979025 72.845625 25.979025 77.107875 7.619025"></polygon>
                        <g id="Group-32" transform="translate(78.000000, 6.063150)" fill="#FFFFFF">
                            <path d="M0.263925,2.942325 C0.263925,1.453575 1.445175,0.375075 3.012675,0.375075 C4.552425,0.375075 5.733675,1.453575 5.733675,2.942325 C5.733675,4.406325 4.552425,5.484825 3.012675,5.484825 C1.445175,5.484825 0.263925,4.406325 0.263925,2.942325 Z M0.495675,19.915575 L5.528175,19.915575 L5.528175,6.486075 L0.495675,6.486075 L0.495675,19.915575 Z" id="Fill-16"></path>
                            <polygon id="Fill-18" points="8.12205 0.657225 13.18005 0.657225 13.18005 11.570475 16.4418 6.486225 21.6288 6.486225 17.4948 12.495225 21.9633 19.915725 16.36455 19.915725 13.18005 14.317725 13.18005 19.915725 8.12205 19.915725"></polygon>
                            <path d="M23.169675,2.942325 C23.169675,1.453575 24.350175,0.375075 25.917675,0.375075 C27.458175,0.375075 28.639425,1.453575 28.639425,2.942325 C28.639425,4.406325 27.458175,5.484825 25.917675,5.484825 C24.350175,5.484825 23.169675,4.406325 23.169675,2.942325 Z M23.400675,19.915575 L28.433925,19.915575 L28.433925,6.486075 L23.400675,6.486075 L23.400675,19.915575 Z" id="Fill-20"></path>
                            <path d="M30.539325,10.851375 L30.539325,10.646625 C30.539325,4.971375 34.621575,1.273125 40.040325,1.273125 C44.996325,1.273125 48.335325,3.533625 48.771825,8.514375 L42.762825,8.514375 C42.582825,6.820125 41.683575,5.869875 40.065825,5.869875 C37.961325,5.869875 36.677325,7.513125 36.677325,10.620375 L36.677325,10.825875 C36.677325,13.882125 37.908825,15.576375 40.169325,15.576375 C41.811825,15.576375 42.993075,14.728875 43.198575,12.880875 L49.002075,12.880875 C48.694575,17.707875 45.150075,20.249625 40.297575,20.249625 C33.672825,20.249625 30.539325,16.474875 30.539325,10.851375" id="Fill-22"></path>
                            <path d="M50.6457,0.657225 L55.70445,0.657225 L55.70445,8.643225 C56.4492,7.230975 57.88695,6.126975 60.14745,6.126975 C62.68995,6.126975 64.4607,7.744725 64.4607,11.082975 L64.4607,19.915725 L59.40345,19.915725 L59.40345,12.213225 C59.40345,10.851225 58.91445,10.157475 57.7077,10.157475 C56.4492,10.157475 55.70445,10.903725 55.70445,12.495225 L55.70445,19.915725 L50.6457,19.915725 L50.6457,0.657225 Z" id="Fill-24"></path>
                            <path d="M66.79785,6.48615 L71.8566,6.48615 L71.8566,9.20865 C72.7041,7.12815 74.1681,6.2814 76.17135,6.3069 L76.17135,11.0319 C73.37235,10.87665 71.8566,11.8014 71.8566,13.72665 L71.8566,19.91565 L66.79785,19.91565 L66.79785,6.48615 Z" id="Fill-26"></path>
                            <path d="M77.275875,13.368 L77.275875,13.1625 C77.275875,8.79675 80.536875,6.12675 84.773625,6.12675 C88.959375,6.12675 92.220375,8.72025 92.220375,13.03425 L92.220375,13.23975 C92.220375,17.6565 88.933125,20.25 84.748125,20.25 C80.562375,20.25 77.275875,17.7855 77.275875,13.368 M87.084375,13.26525 L87.084375,13.086 C87.084375,10.98 86.340375,9.8505 84.773625,9.8505 C83.233125,9.8505 82.385625,10.90275 82.385625,13.00875 L82.385625,13.21425 C82.385625,15.396 83.155875,16.527 84.773625,16.527 C86.314125,16.527 87.084375,15.396 87.084375,13.26525" id="Fill-28"></path>
                            <path d="M93.992625,6.48615 L99.050625,6.48615 L99.050625,8.64315 C99.796125,7.2309 101.233875,6.1269 103.493625,6.1269 C106.036125,6.1269 107.807625,7.74465 107.807625,11.0829 L107.807625,19.91565 L102.749625,19.91565 L102.749625,12.21315 C102.749625,10.85115 102.260625,10.15815 101.053875,10.15815 C99.796125,10.15815 99.050625,10.90365 99.050625,12.49515 L99.050625,19.91565 L93.992625,19.91565 L93.992625,6.48615 Z" id="Fill-30"></path>
                        </g>
                    </g>
                    <path d="M128.867188,38.9453125 C129.283856,38.9453125 129.622395,38.8307303 129.882812,38.6015625 C130.14323,38.3723947 130.278646,38.0677102 130.289062,37.6875 L132.40625,37.6875 C132.401042,38.2604195 132.244793,38.7851539 131.9375,39.2617188 C131.630207,39.7382836 131.209638,40.1080716 130.675781,40.3710938 C130.141924,40.6341159 129.552087,40.765625 128.90625,40.765625 C127.697911,40.765625 126.744795,40.3815143 126.046875,39.6132812 C125.348955,38.8450482 125,37.7838609 125,36.4296875 L125,36.28125 C125,34.9791602 125.346351,33.940108 126.039062,33.1640625 C126.731774,32.388017 127.682286,32 128.890625,32 C129.947922,32 130.79557,32.3007782 131.433594,32.9023438 C132.071618,33.5039093 132.395833,34.3046825 132.40625,35.3046875 L130.289062,35.3046875 C130.278646,34.8671853 130.14323,34.5117201 129.882812,34.2382812 C129.622395,33.9648424 129.278648,33.828125 128.851562,33.828125 C128.325518,33.828125 127.928387,34.0195293 127.660156,34.4023438 C127.391926,34.7851582 127.257812,35.4062457 127.257812,36.265625 L127.257812,36.5 C127.257812,37.369796 127.390624,37.9947898 127.65625,38.375 C127.921876,38.7552102 128.325518,38.9453125 128.867188,38.9453125 Z M133.34375,36.3046875 C133.34375,35.4661416 133.505207,34.7187533 133.828125,34.0625 C134.151043,33.4062467 134.615882,32.8984393 135.222656,32.5390625 C135.82943,32.1796857 136.53385,32 137.335938,32 C138.476568,32 139.407548,32.3489548 140.128906,33.046875 C140.850264,33.7447952 141.252604,34.6927023 141.335938,35.890625 L141.351562,36.46875 C141.351562,37.7656315 140.989587,38.8059857 140.265625,39.5898438 C139.541663,40.3737018 138.570319,40.765625 137.351562,40.765625 C136.132806,40.765625 135.16016,40.3750039 134.433594,39.59375 C133.707028,38.8124961 133.34375,37.7500067 133.34375,36.40625 L133.34375,36.3046875 Z M135.601562,36.46875 C135.601562,37.2708373 135.752603,37.8841125 136.054688,38.3085938 C136.356772,38.733075 136.78906,38.9453125 137.351562,38.9453125 C137.89844,38.9453125 138.325519,38.7356792 138.632812,38.3164062 C138.940106,37.8971333 139.09375,37.2265671 139.09375,36.3046875 C139.09375,35.5182252 138.940106,34.9088563 138.632812,34.4765625 C138.325519,34.0442687 137.893232,33.828125 137.335938,33.828125 C136.783851,33.828125 136.356772,34.0429666 136.054688,34.4726562 C135.752603,34.9023459 135.601562,35.5677038 135.601562,36.46875 Z M144.859375,32.15625 L144.929688,33.1015625 C145.528649,32.3671838 146.338537,32 147.359375,32 C148.447922,32 149.19531,32.4296832 149.601562,33.2890625 C150.195315,32.4296832 151.041661,32 152.140625,32 C153.057296,32 153.739581,32.2669244 154.1875,32.8007812 C154.635419,33.3346381 154.859375,34.1380155 154.859375,35.2109375 L154.859375,40.609375 L152.59375,40.609375 L152.59375,35.21875 C152.59375,34.7395809 152.500001,34.389324 152.3125,34.1679688 C152.124999,33.9466135 151.794273,33.8359375 151.320312,33.8359375 C150.643226,33.8359375 150.17448,34.1588509 149.914062,34.8046875 L149.921875,40.609375 L147.664062,40.609375 L147.664062,35.2265625 C147.664062,34.7369767 147.567709,34.3828136 147.375,34.1640625 C147.182291,33.9453114 146.854169,33.8359375 146.390625,33.8359375 C145.749997,33.8359375 145.28646,34.1015598 145,34.6328125 L145,40.609375 L142.742188,40.609375 L142.742188,32.15625 L144.859375,32.15625 Z M164.203125,36.4609375 C164.203125,37.7630273 163.907555,38.8059857 163.316406,39.5898438 C162.725257,40.3737018 161.927088,40.765625 160.921875,40.765625 C160.067704,40.765625 159.377607,40.468753 158.851562,39.875 L158.851562,43.859375 L156.59375,43.859375 L156.59375,32.15625 L158.6875,32.15625 L158.765625,32.984375 C159.312503,32.3281217 160.026037,32 160.90625,32 C161.947922,32 162.75781,32.3854128 163.335938,33.15625 C163.914065,33.9270872 164.203125,34.9895766 164.203125,36.34375 L164.203125,36.4609375 Z M161.945312,36.296875 C161.945312,35.5104127 161.805991,34.903648 161.527344,34.4765625 C161.248697,34.049477 160.843753,33.8359375 160.3125,33.8359375 C159.604163,33.8359375 159.117189,34.1067681 158.851562,34.6484375 L158.851562,38.109375 C159.127606,38.6666695 159.619788,38.9453125 160.328125,38.9453125 C161.406255,38.9453125 161.945312,38.0625088 161.945312,36.296875 Z M170.5,40.609375 C170.395833,40.406249 170.320313,40.1536473 170.273438,39.8515625 C169.72656,40.4609405 169.015629,40.765625 168.140625,40.765625 C167.312496,40.765625 166.626305,40.5260441 166.082031,40.046875 C165.537758,39.5677059 165.265625,38.9635453 165.265625,38.234375 C165.265625,37.3385372 165.597653,36.6510441 166.261719,36.171875 C166.925785,35.6927059 167.88541,35.4505209 169.140625,35.4453125 L170.179688,35.4453125 L170.179688,34.9609375 C170.179688,34.5703105 170.079428,34.2578137 169.878906,34.0234375 C169.678384,33.7890613 169.361981,33.671875 168.929688,33.671875 C168.549477,33.671875 168.251303,33.7630199 168.035156,33.9453125 C167.819009,34.1276051 167.710938,34.3776026 167.710938,34.6953125 L165.453125,34.6953125 C165.453125,34.2057267 165.604165,33.7526062 165.90625,33.3359375 C166.208335,32.9192688 166.635414,32.5924491 167.1875,32.3554688 C167.739586,32.1184884 168.359372,32 169.046875,32 C170.088547,32 170.915362,32.2617161 171.527344,32.7851562 C172.139326,33.3085964 172.445312,34.0442661 172.445312,34.9921875 L172.445312,38.65625 C172.450521,39.4583373 172.562499,40.0651021 172.78125,40.4765625 L172.78125,40.609375 L170.5,40.609375 Z M168.632812,39.0390625 C168.966148,39.0390625 169.273436,38.9648445 169.554688,38.8164062 C169.835939,38.667968 170.04427,38.4687512 170.179688,38.21875 L170.179688,36.765625 L169.335938,36.765625 C168.205724,36.765625 167.604167,37.1562461 167.53125,37.9375 L167.523438,38.0703125 C167.523438,38.3515639 167.622395,38.5833324 167.820312,38.765625 C168.01823,38.9479176 168.289061,39.0390625 168.632812,39.0390625 Z M178.929688,34.2734375 C178.622394,34.2317706 178.351564,34.2109375 178.117188,34.2109375 C177.263017,34.2109375 176.703126,34.4999971 176.4375,35.078125 L176.4375,40.609375 L174.179688,40.609375 L174.179688,32.15625 L176.3125,32.15625 L176.375,33.1640625 C176.828127,32.388017 177.455725,32 178.257812,32 C178.507814,32 178.742186,32.0338538 178.960938,32.1015625 L178.929688,34.2734375 Z M183.757812,40.765625 C182.518223,40.765625 181.509118,40.3854205 180.730469,39.625 C179.951819,38.8645795 179.5625,37.8515688 179.5625,36.5859375 L179.5625,36.3671875 C179.5625,35.5182249 179.726561,34.7591179 180.054688,34.0898438 C180.382814,33.4205696 180.847653,32.9049497 181.449219,32.5429688 C182.050784,32.1809878 182.736975,32 183.507812,32 C184.664068,32 185.574215,32.3645797 186.238281,33.09375 C186.902347,33.8229203 187.234375,34.8567641 187.234375,36.1953125 L187.234375,37.1171875 L181.851562,37.1171875 C181.92448,37.6692736 182.144529,38.1119775 182.511719,38.4453125 C182.878908,38.7786475 183.343747,38.9453125 183.90625,38.9453125 C184.776046,38.9453125 185.455727,38.6302115 185.945312,38 L187.054688,39.2421875 C186.716144,39.7213566 186.257815,40.0950507 185.679688,40.3632812 C185.10156,40.6315118 184.460941,40.765625 183.757812,40.765625 Z M183.5,33.828125 C183.052081,33.828125 182.688803,33.9791652 182.410156,34.28125 C182.131509,34.5833348 181.953125,35.0156222 181.875,35.578125 L185.015625,35.578125 L185.015625,35.3984375 C185.005208,34.898435 184.869793,34.5117201 184.609375,34.2382812 C184.348957,33.9648424 183.979169,33.828125 183.5,33.828125 Z" id="compare" fill="#4FB6FF"></path>
                </g>
            </g>
        </g>
    </g>
</svg>