<?xml version="1.0" encoding="UTF-8"?>
<svg width="187px" height="42px" viewBox="0 0 187 42" version="1.1" xmlns="http://www.w3.org/2000/svg" xmlns:xlink="http://www.w3.org/1999/xlink">
    <!-- Generator: Sketch 51.3 (57544) - http://www.bohemiancoding.com/sketch -->
    <title>logo-classic</title>
    <desc>Created with Sketch.</desc>
    <defs>
        <polygon id="path-1" points="1.64919095e-05 0.687 47.3001639 0.687 47.3001639 26.1512123 1.64919095e-05 26.1512123"></polygon>
    </defs>
    <g id="Diseño" stroke="none" stroke-width="1" fill="none" fill-rule="evenodd">
        <g id="screen-01_Wikis_b" transform="translate(-58.000000, -25.000000)">
            <g id="logo-classic" transform="translate(58.000000, 25.000000)">
                <g id="Group-33">
                    <g id="Group-14" transform="translate(0.000000, 0.063150)">
                        <g id="Group-3">
                            <mask id="mask-2" fill="white">
                                <use xlink:href="#path-1"></use>
                            </mask>
                            <g id="Clip-2"></g>
                            <path d="M47.045175,0.976125 C46.867425,0.784875 46.595175,0.686625 46.249425,0.686625 L46.151925,0.686625 C44.402925,0.765375 42.659175,0.853875 40.909425,0.933375 C40.675425,0.945375 40.353675,0.958875 40.101675,1.211625 C40.022925,1.291125 39.960675,1.384125 39.911175,1.494375 C39.651675,2.053875 40.016925,2.416875 40.189425,2.590125 L40.625175,3.032625 C40.929675,3.342375 41.237175,3.649125 41.544675,3.952875 L30.971925,14.527875 L26.224425,9.778875 C25.942425,9.494625 25.559925,9.334875 25.152675,9.334875 C24.746175,9.334875 24.371175,9.494625 24.088425,9.778875 L12.143925,21.717375 L3.143925,9.472125 C2.446425,8.742375 1.288425,8.719875 0.560925,9.419625 C-0.165825,10.116375 -0.189825,11.272875 0.509175,11.998875 L10.497675,25.588125 C11.196675,26.317875 12.351675,26.340375 13.079175,25.643625 C13.124175,25.599375 13.157175,25.550625 13.198425,25.503375 L25.152675,13.548375 L29.902425,18.297375 C30.185925,18.581625 30.567675,18.742125 30.971925,18.742125 C31.381425,18.742125 31.754925,18.581625 32.045925,18.297375 L43.970925,6.372375 L45.318675,7.716375 C45.481425,7.876125 45.701925,8.097375 46.040175,8.097375 C46.182675,8.097375 46.324425,8.059875 46.470675,7.980375 C46.570425,7.924125 46.655925,7.863375 46.729425,7.789125 C46.997175,7.525125 47.045175,7.185375 47.057175,6.919875 C47.105175,5.787375 47.162175,4.653375 47.218425,3.514125 L47.297175,1.807125 C47.317425,1.450125 47.234925,1.173375 47.045175,0.976125" id="Fill-1" fill="#FFFFFF" mask="url(#mask-2)"></path>
                        </g>
                        <path d="M19.35045,21.81795 L19.35045,25.6092 C19.35045,25.9047 19.59045,26.15145 19.89345,26.15145 L23.64945,26.15145 C23.94495,26.15145 24.1917,25.9107 24.1917,25.6092 L24.1917,17.0592 L21.46395,19.7877 C20.8842,20.3607 19.35045,21.81795 19.35045,21.81795" id="Fill-4" fill="#4FB6FF"></path>
                        <path d="M14.353875,26.151675 L17.939625,26.151675 C18.235875,26.151675 18.482625,25.910175 18.482625,25.607925 L18.482625,22.208925 L15.754125,24.938175 C15.174375,25.510425 14.353875,26.151675 14.353875,26.151675" id="Fill-6" fill="#4FB6FF"></path>
                        <path d="M26.063475,16.99785 L26.063475,25.60785 C26.063475,25.90485 26.304225,26.1516 26.605725,26.1516 L30.364725,26.1516 C30.660225,26.1516 30.905475,25.9101 30.905475,25.60785 L30.905475,20.5401 C30.048975,20.5206 29.249475,20.18235 28.644225,19.5786 L26.063475,16.99785 Z" id="Fill-8" fill="#4FB6FF"></path>
                        <path d="M32.779425,20.003775 L32.779425,25.608525 C32.779425,25.904775 33.017925,26.151525 33.319425,26.151525 L37.077675,26.151525 C37.373175,26.151525 37.621425,25.910775 37.621425,25.608525 L37.621425,15.267525 L33.314175,19.572525 C33.147675,19.739025 32.968425,19.880775 32.779425,20.003775" id="Fill-10" fill="#4FB6FF"></path>
                        <path d="M43.971225,8.909025 L39.489975,13.388775 L39.489975,25.608525 C39.489975,25.904775 39.732225,26.151525 40.035975,26.151525 L43.793475,26.151525 C44.086725,26.151525 44.333475,25.910775 44.333475,25.608525 L44.333475,9.249525 C44.210475,9.143025 44.119725,9.052275 44.050725,8.989275 L43.971225,8.909025 Z" id="Fill-12" fill="#4FB6FF"></path>
                    </g>
                    <polygon id="Fill-15" fill="#FFFFFF" points="71.715375 7.619025 69.481875 18.712275 66.991125 7.619025 61.931625 7.619025 59.724375 18.584775 57.618375 7.619025 51.738375 7.619025 56.000625 25.979025 61.804125 25.979025 64.397625 15.014025 66.965625 25.979025 72.845625 25.979025 77.107875 7.619025"></polygon>
                    <g id="Group-32" transform="translate(78.000000, 6.063150)" fill="#FFFFFF">
                        <path d="M0.263925,2.942325 C0.263925,1.453575 1.445175,0.375075 3.012675,0.375075 C4.552425,0.375075 5.733675,1.453575 5.733675,2.942325 C5.733675,4.406325 4.552425,5.484825 3.012675,5.484825 C1.445175,5.484825 0.263925,4.406325 0.263925,2.942325 Z M0.495675,19.915575 L5.528175,19.915575 L5.528175,6.486075 L0.495675,6.486075 L0.495675,19.915575 Z" id="Fill-16"></path>
                        <polygon id="Fill-18" points="8.12205 0.657225 13.18005 0.657225 13.18005 11.570475 16.4418 6.486225 21.6288 6.486225 17.4948 12.495225 21.9633 19.915725 16.36455 19.915725 13.18005 14.317725 13.18005 19.915725 8.12205 19.915725"></polygon>
                        <path d="M23.169675,2.942325 C23.169675,1.453575 24.350175,0.375075 25.917675,0.375075 C27.458175,0.375075 28.639425,1.453575 28.639425,2.942325 C28.639425,4.406325 27.458175,5.484825 25.917675,5.484825 C24.350175,5.484825 23.169675,4.406325 23.169675,2.942325 Z M23.400675,19.915575 L28.433925,19.915575 L28.433925,6.486075 L23.400675,6.486075 L23.400675,19.915575 Z" id="Fill-20"></path>
                        <path d="M30.539325,10.851375 L30.539325,10.646625 C30.539325,4.971375 34.621575,1.273125 40.040325,1.273125 C44.996325,1.273125 48.335325,3.533625 48.771825,8.514375 L42.762825,8.514375 C42.582825,6.820125 41.683575,5.869875 40.065825,5.869875 C37.961325,5.869875 36.677325,7.513125 36.677325,10.620375 L36.677325,10.825875 C36.677325,13.882125 37.908825,15.576375 40.169325,15.576375 C41.811825,15.576375 42.993075,14.728875 43.198575,12.880875 L49.002075,12.880875 C48.694575,17.707875 45.150075,20.249625 40.297575,20.249625 C33.672825,20.249625 30.539325,16.474875 30.539325,10.851375" id="Fill-22"></path>
                        <path d="M50.6457,0.657225 L55.70445,0.657225 L55.70445,8.643225 C56.4492,7.230975 57.88695,6.126975 60.14745,6.126975 C62.68995,6.126975 64.4607,7.744725 64.4607,11.082975 L64.4607,19.915725 L59.40345,19.915725 L59.40345,12.213225 C59.40345,10.851225 58.91445,10.157475 57.7077,10.157475 C56.4492,10.157475 55.70445,10.903725 55.70445,12.495225 L55.70445,19.915725 L50.6457,19.915725 L50.6457,0.657225 Z" id="Fill-24"></path>
                        <path d="M66.79785,6.48615 L71.8566,6.48615 L71.8566,9.20865 C72.7041,7.12815 74.1681,6.2814 76.17135,6.3069 L76.17135,11.0319 C73.37235,10.87665 71.8566,11.8014 71.8566,13.72665 L71.8566,19.91565 L66.79785,19.91565 L66.79785,6.48615 Z" id="Fill-26"></path>
                        <path d="M77.275875,13.368 L77.275875,13.1625 C77.275875,8.79675 80.536875,6.12675 84.773625,6.12675 C88.959375,6.12675 92.220375,8.72025 92.220375,13.03425 L92.220375,13.23975 C92.220375,17.6565 88.933125,20.25 84.748125,20.25 C80.562375,20.25 77.275875,17.7855 77.275875,13.368 M87.084375,13.26525 L87.084375,13.086 C87.084375,10.98 86.340375,9.8505 84.773625,9.8505 C83.233125,9.8505 82.385625,10.90275 82.385625,13.00875 L82.385625,13.21425 C82.385625,15.396 83.155875,16.527 84.773625,16.527 C86.314125,16.527 87.084375,15.396 87.084375,13.26525" id="Fill-28"></path>
                        <path d="M93.992625,6.48615 L99.050625,6.48615 L99.050625,8.64315 C99.796125,7.2309 101.233875,6.1269 103.493625,6.1269 C106.036125,6.1269 107.807625,7.74465 107.807625,11.0829 L107.807625,19.91565 L102.749625,19.91565 L102.749625,12.21315 C102.749625,10.85115 102.260625,10.15815 101.053875,10.15815 C99.796125,10.15815 99.050625,10.90365 99.050625,12.49515 L99.050625,19.91565 L93.992625,19.91565 L93.992625,6.48615 Z" id="Fill-30"></path>
                    </g>
                </g>
                <path d="M141.28125,39.3359375 C141.697919,39.3359375 142.036457,39.2213553 142.296875,38.9921875 C142.557293,38.7630197 142.692708,38.4583352 142.703125,38.078125 L144.820312,38.078125 C144.815104,38.6510445 144.658856,39.1757789 144.351562,39.6523438 C144.044269,40.1289086 143.623701,40.4986966 143.089844,40.7617188 C142.555987,41.0247409 141.966149,41.15625 141.320312,41.15625 C140.111973,41.15625 139.158858,40.7721393 138.460938,40.0039062 C137.763017,39.2356732 137.414062,38.1744859 137.414062,36.8203125 L137.414062,36.671875 C137.414062,35.3697852 137.760413,34.330733 138.453125,33.5546875 C139.145837,32.778642 140.096348,32.390625 141.304688,32.390625 C142.361984,32.390625 143.209632,32.6914032 143.847656,33.2929688 C144.48568,33.8945343 144.809896,34.6953075 144.820312,35.6953125 L142.703125,35.6953125 C142.692708,35.2578103 142.557293,34.9023451 142.296875,34.6289062 C142.036457,34.3554674 141.69271,34.21875 141.265625,34.21875 C140.739581,34.21875 140.342449,34.4101543 140.074219,34.7929688 C139.805988,35.1757832 139.671875,35.7968707 139.671875,36.65625 L139.671875,36.890625 C139.671875,37.760421 139.804686,38.3854148 140.070312,38.765625 C140.335939,39.1458352 140.739581,39.3359375 141.28125,39.3359375 Z M148.492188,41 L146.226562,41 L146.226562,29 L148.492188,29 L148.492188,41 Z M155.25,41 C155.145833,40.796874 155.070313,40.5442723 155.023438,40.2421875 C154.47656,40.8515655 153.765629,41.15625 152.890625,41.15625 C152.062496,41.15625 151.376305,40.9166691 150.832031,40.4375 C150.287758,39.9583309 150.015625,39.3541703 150.015625,38.625 C150.015625,37.7291622 150.347653,37.0416691 151.011719,36.5625 C151.675785,36.0833309 152.63541,35.8411459 153.890625,35.8359375 L154.929688,35.8359375 L154.929688,35.3515625 C154.929688,34.9609355 154.829428,34.6484387 154.628906,34.4140625 C154.428384,34.1796863 154.111981,34.0625 153.679688,34.0625 C153.299477,34.0625 153.001303,34.1536449 152.785156,34.3359375 C152.569009,34.5182301 152.460938,34.7682276 152.460938,35.0859375 L150.203125,35.0859375 C150.203125,34.5963517 150.354165,34.1432312 150.65625,33.7265625 C150.958335,33.3098938 151.385414,32.9830741 151.9375,32.7460938 C152.489586,32.5091134 153.109372,32.390625 153.796875,32.390625 C154.838547,32.390625 155.665362,32.6523411 156.277344,33.1757812 C156.889326,33.6992214 157.195312,34.4348911 157.195312,35.3828125 L157.195312,39.046875 C157.200521,39.8489623 157.312499,40.4557271 157.53125,40.8671875 L157.53125,41 L155.25,41 Z M153.382812,39.4296875 C153.716148,39.4296875 154.023436,39.3554695 154.304688,39.2070312 C154.585939,39.058593 154.79427,38.8593762 154.929688,38.609375 L154.929688,37.15625 L154.085938,37.15625 C152.955724,37.15625 152.354167,37.5468711 152.28125,38.328125 L152.273438,38.4609375 C152.273438,38.7421889 152.372395,38.9739574 152.570312,39.15625 C152.76823,39.3385426 153.039061,39.4296875 153.382812,39.4296875 Z M163.507812,38.6640625 C163.507812,38.3880195 163.371095,38.1705737 163.097656,38.0117188 C162.824217,37.8528638 162.38542,37.7109381 161.78125,37.5859375 C159.770823,37.1640604 158.765625,36.3099023 158.765625,35.0234375 C158.765625,34.2734338 159.07682,33.6471379 159.699219,33.1445312 C160.321618,32.6419246 161.135412,32.390625 162.140625,32.390625 C163.213547,32.390625 164.071611,32.6432266 164.714844,33.1484375 C165.358076,33.6536484 165.679688,34.3098918 165.679688,35.1171875 L163.421875,35.1171875 C163.421875,34.7942692 163.317709,34.5273448 163.109375,34.3164062 C162.901041,34.1054677 162.575523,34 162.132812,34 C161.752602,34 161.458334,34.0859366 161.25,34.2578125 C161.041666,34.4296884 160.9375,34.6484362 160.9375,34.9140625 C160.9375,35.1640637 161.055988,35.3658846 161.292969,35.5195312 C161.529949,35.6731779 161.929685,35.805989 162.492188,35.9179688 C163.05469,36.0299485 163.528644,36.1562493 163.914062,36.296875 C165.106777,36.7343772 165.703125,37.4921821 165.703125,38.5703125 C165.703125,39.3411497 165.372399,39.9648414 164.710938,40.4414062 C164.049476,40.9179711 163.195318,41.15625 162.148438,41.15625 C161.440101,41.15625 160.811201,41.0299492 160.261719,40.7773438 C159.712237,40.5247383 159.281252,40.1783876 158.96875,39.7382812 C158.656248,39.2981749 158.5,38.8229192 158.5,38.3125 L160.640625,38.3125 C160.661458,38.7135437 160.809894,39.0208323 161.085938,39.234375 C161.361981,39.4479177 161.731769,39.5546875 162.195312,39.5546875 C162.627606,39.5546875 162.954426,39.4726571 163.175781,39.3085938 C163.397137,39.1445304 163.507812,38.9296888 163.507812,38.6640625 Z M171.734375,38.6640625 C171.734375,38.3880195 171.597658,38.1705737 171.324219,38.0117188 C171.05078,37.8528638 170.611982,37.7109381 170.007812,37.5859375 C167.997386,37.1640604 166.992188,36.3099023 166.992188,35.0234375 C166.992188,34.2734338 167.303382,33.6471379 167.925781,33.1445312 C168.54818,32.6419246 169.361974,32.390625 170.367188,32.390625 C171.44011,32.390625 172.298174,32.6432266 172.941406,33.1484375 C173.584639,33.6536484 173.90625,34.3098918 173.90625,35.1171875 L171.648438,35.1171875 C171.648438,34.7942692 171.544272,34.5273448 171.335938,34.3164062 C171.127603,34.1054677 170.802086,34 170.359375,34 C169.979165,34 169.684897,34.0859366 169.476562,34.2578125 C169.268228,34.4296884 169.164062,34.6484362 169.164062,34.9140625 C169.164062,35.1640637 169.282551,35.3658846 169.519531,35.5195312 C169.756512,35.6731779 170.156247,35.805989 170.71875,35.9179688 C171.281253,36.0299485 171.755206,36.1562493 172.140625,36.296875 C173.333339,36.7343772 173.929688,37.4921821 173.929688,38.5703125 C173.929688,39.3411497 173.598962,39.9648414 172.9375,40.4414062 C172.276038,40.9179711 171.42188,41.15625 170.375,41.15625 C169.666663,41.15625 169.037763,41.0299492 168.488281,40.7773438 C167.938799,40.5247383 167.507814,40.1783876 167.195312,39.7382812 C166.882811,39.2981749 166.726562,38.8229192 166.726562,38.3125 L168.867188,38.3125 C168.888021,38.7135437 169.036457,39.0208323 169.3125,39.234375 C169.588543,39.4479177 169.958331,39.5546875 170.421875,39.5546875 C170.854169,39.5546875 171.180988,39.4726571 171.402344,39.3085938 C171.623699,39.1445304 171.734375,38.9296888 171.734375,38.6640625 Z M177.765625,41 L175.5,41 L175.5,32.546875 L177.765625,32.546875 L177.765625,41 Z M175.367188,30.359375 C175.367188,30.0208316 175.480468,29.7421886 175.707031,29.5234375 C175.933595,29.3046864 176.242186,29.1953125 176.632812,29.1953125 C177.018231,29.1953125 177.32552,29.3046864 177.554688,29.5234375 C177.783855,29.7421886 177.898438,30.0208316 177.898438,30.359375 C177.898438,30.7031267 177.782553,30.9843739 177.550781,31.203125 C177.319009,31.4218761 177.013023,31.53125 176.632812,31.53125 C176.252602,31.53125 175.946616,31.4218761 175.714844,31.203125 C175.483072,30.9843739 175.367188,30.7031267 175.367188,30.359375 Z M183.140625,39.3359375 C183.557294,39.3359375 183.895832,39.2213553 184.15625,38.9921875 C184.416668,38.7630197 184.552083,38.4583352 184.5625,38.078125 L186.679688,38.078125 C186.674479,38.6510445 186.518231,39.1757789 186.210938,39.6523438 C185.903644,40.1289086 185.483076,40.4986966 184.949219,40.7617188 C184.415362,41.0247409 183.825524,41.15625 183.179688,41.15625 C181.971348,41.15625 181.018233,40.7721393 180.320312,40.0039062 C179.622392,39.2356732 179.273438,38.1744859 179.273438,36.8203125 L179.273438,36.671875 C179.273438,35.3697852 179.619788,34.330733 180.3125,33.5546875 C181.005212,32.778642 181.955723,32.390625 183.164062,32.390625 C184.221359,32.390625 185.069007,32.6914032 185.707031,33.2929688 C186.345055,33.8945343 186.669271,34.6953075 186.679688,35.6953125 L184.5625,35.6953125 C184.552083,35.2578103 184.416668,34.9023451 184.15625,34.6289062 C183.895832,34.3554674 183.552085,34.21875 183.125,34.21875 C182.598956,34.21875 182.201824,34.4101543 181.933594,34.7929688 C181.665363,35.1757832 181.53125,35.7968707 181.53125,36.65625 L181.53125,36.890625 C181.53125,37.760421 181.664061,38.3854148 181.929688,38.765625 C182.195314,39.1458352 182.598956,39.3359375 183.140625,39.3359375 Z" id="classic" fill="#4FB6FF"></path>
            </g>
        </g>
    </g>
</svg>