<?xml version="1.0" encoding="UTF-8"?>
<svg width="88px" height="61px" viewBox="0 0 88 61" version="1.1" xmlns="http://www.w3.org/2000/svg" xmlns:xlink="http://www.w3.org/1999/xlink">
    <!-- Generator: sketchtool 51.3 (57544) - http://www.bohemiancoding.com/sketch -->
    <title>0E39E31E-D59F-4D35-960B-B440BFA2834F</title>
    <desc>Created with sketchtool.</desc>
    <defs></defs>
    <g id="Diseño" stroke="none" stroke-width="1" fill="none" fill-rule="evenodd">
        <g id="screen-01_Wikis_b" transform="translate(-55.000000, -144.000000)">
            <g id="laptop" transform="translate(55.000000, 144.000000)">
                <g id="Group" transform="translate(15.000000, 15.000000)" fill="#D7DEED" fill-rule="nonzero">
                    <rect id="Rectangle-path" x="0.0476428571" y="27.3859559" width="3.04758929" height="7.57269608"></rect>
                    <rect id="Rectangle-path" x="13.761881" y="21.3276961" width="3.04758929" height="13.6307843"></rect>
                    <rect id="Rectangle-path" x="41.1905298" y="15.2696078" width="3.04758929" height="19.6890441"></rect>
                    <rect id="Rectangle-path" x="54.9047679" y="0.124215686" width="3.04758929" height="34.8342647"></rect>
                    <rect id="Rectangle-path" x="27.476119" y="7.69691176" width="3.04758929" height="27.2617402"></rect>
                </g>
                <rect id="Rectangle-2" fill="#FFFFFF" x="5" y="2" width="75" height="55"></rect>
                <path d="M16.5275976,44 C15.9428439,44 15.3847171,43.662711 15.1319347,43.0946362 C14.7895892,42.3256379 15.1364302,41.4251073 15.9068804,41.0833303 L29.3465335,35.1200121 L42.8657214,20.1235967 C43.3726693,19.5608729 44.216084,19.4550601 44.8468296,19.8750316 L57.4320023,28.2511574 L70.2922616,12.559105 C70.8260093,11.9074847 71.7875159,11.8115109 72.44022,12.3447176 C73.0925783,12.877579 73.1887117,13.8376617 72.654964,14.4889367 L58.9182657,31.2503369 C58.4210003,31.85725 57.5438697,31.9886097 56.8903011,31.5534482 L44.2517018,23.1419364 L31.3978398,37.4000789 C31.2545043,37.559057 31.0791819,37.686274 30.8832842,37.7732718 L17.1465859,43.868295 C16.9451554,43.9577094 16.7347339,44 16.5275976,44 Z" id="Shape" fill="#8F96AC" fill-rule="nonzero"></path>
                <path d="M84.9653809,61 L3.0344472,61 C1.35849735,61 0,59.6569624 0,58.000085 L0,56.5000425 C0,55.6716887 0.679420548,55 1.51730954,55 L86.4826905,55 C87.3205795,55 88,55.6716887 88,56.5000425 L88,58.000085 C87.9998281,59.6569624 86.6413308,61 84.9653809,61 Z" id="Shape" fill="#959CB3" fill-rule="nonzero"></path>
                <path d="M48.5730097,58 L38.4271603,58 C37.8591123,58 37.339662,57.6790144 37.0856292,57.1709431 L36,55 L51,55 L49.9145408,57.1709431 C49.660508,57.6788445 49.1410576,58 48.5730097,58 Z" id="Shape" fill="#707487" fill-rule="nonzero"></path>
                <path d="M80.4444062,0 L7.55559378,0 C5.03963582,0 3,2.05207478 3,4.5833766 L3,55 L85,55 L85,4.5833766 C85,2.05207478 82.9603642,0 80.4444062,0 Z M80.4444062,48.8889466 C80.4444062,49.7326562 79.7644129,50.4167965 78.9258176,50.4167965 L9.07418238,50.4167965 C8.23558707,50.4167965 7.55559378,49.7326562 7.55559378,48.8889466 L7.55559378,6.11122649 C7.55559378,5.26751691 8.23558707,4.5833766 9.07418238,4.5833766 L78.9259896,4.5833766 C79.764585,4.5833766 80.4445782,5.26751691 80.4445782,6.11122649 L80.4445782,48.8889466 L80.4444062,48.8889466 Z" id="Shape" fill="#AFB9D2" fill-rule="nonzero"></path>
                <circle id="Oval" fill="#FFD782" fill-rule="nonzero" cx="44" cy="21" r="3"></circle>
                <circle id="Oval" fill="#FF6464" fill-rule="nonzero" cx="30" cy="37" r="3"></circle>
                <circle id="Oval" fill="#9BE6D2" fill-rule="nonzero" cx="71" cy="14" r="3"></circle>
                <circle id="Oval" fill="#C3E678" fill-rule="nonzero" cx="58" cy="30" r="3"></circle>
                <circle id="Oval" fill="#00D2FF" fill-rule="nonzero" cx="17" cy="43" r="3"></circle>
            </g>
        </g>
    </g>
</svg>