<?xml version="1.0" encoding="UTF-8"?>
<svg width="195px" height="196px" viewBox="0 0 195 196" version="1.1" xmlns="http://www.w3.org/2000/svg" xmlns:xlink="http://www.w3.org/1999/xlink">
    <!-- Generator: Sketch 51.3 (57544) - http://www.bohemiancoding.com/sketch -->
    <title>img_home_azul</title>
    <desc>Created with Sketch.</desc>
    <defs>
        <polygon id="path-1" points="0.878742857 0.907120376 43.9673143 0.907120376 43.9673143 43.9131579 0.878742857 43.9131579"></polygon>
    </defs>
    <g id="Diseño" stroke="none" stroke-width="1" fill="none" fill-rule="evenodd">
        <g id="Artboard-2" transform="translate(-4.000000, -4.000000)">
            <g id="img_home_azul" transform="translate(4.000000, 4.000000)">
                <path d="M102.5,64 C116.030445,64 127,74.9695549 127,88.5 C127,102.030445 116.030445,113 102.5,113 C88.9664916,113 78,102.030445 78,88.5 C78,74.9695549 88.9664916,64 102.5,64" id="Fill-1" fill="#95C5EB"></path>
                <path d="M97.5,64 C108.270926,64 117,74.9695549 117,88.5 C117,102.030445 108.270926,113 97.5,113 C86.7290738,113 78,102.030445 78,88.5 C78,74.9695549 86.7290738,64 97.5,64" id="Fill-3" fill="#C6DEEE"></path>
                <path d="M103.002075,112.999999 C104.002426,112.99387 105.005902,112.929523 106,112.806957 C96.2653413,111.351481 88.7158228,101.031393 88.7158228,88.4928535 C88.7158228,75.9573782 96.2653413,65.634226 106,64.1787503 C96.7780208,63.0817814 87.6967159,67.0927657 82.4198682,74.5876991 C77.1461465,82.0826324 76.5459363,91.8297228 80.8661991,99.8915256 C85.1864619,107.956393 93.7081959,113.003063 103.002075,112.999999" id="Fill-5" fill="#FEFEFE"></path>
                <g id="Group-11" transform="translate(85.000000, 2.000000)" fill="#95C5EB">
                    <path d="M88.4098301,0.944980328 C98.1611079,0.944980328 106.067215,8.95445574 106.067215,18.8332262 C106.067215,28.7119967 98.1611079,36.7214721 88.4098301,36.7214721 C78.6585522,36.7214721 70.7524448,28.7119967 70.7524448,18.8332262 C70.7524448,8.95445574 78.6585522,0.944980328 88.4098301,0.944980328" id="Fill-7"></path>
                    <path d="M17.7846161,154.777633 C27.5328033,154.777633 35.4389106,162.787108 35.4389106,172.665879 C35.4389106,182.544649 27.5328033,190.554125 17.7846161,190.554125 C8.03333827,190.554125 0.127230895,182.544649 0.127230895,172.665879 C0.127230895,162.787108 8.03333827,154.777633 17.7846161,154.777633" id="Fill-9"></path>
                </g>
                <g id="Group-16" transform="translate(85.000000, 2.000000)" fill="#C6DEEE">
                    <path d="M82.6386293,0.944980328 C89.4272634,0.944980328 94.928239,8.95445574 94.928239,18.8332262 C94.928239,28.7119967 89.4272634,36.7214721 82.6386293,36.7214721 C75.8530683,36.7214721 70.3490195,28.7119967 70.3490195,18.8332262 C70.3490195,8.95445574 75.8530683,0.944980328 82.6386293,0.944980328" id="Fill-12"></path>
                    <path d="M12.4151415,154.777633 C19.2007024,154.777633 24.7047512,162.787108 24.7047512,172.665879 C24.7047512,182.544649 19.2007024,190.554125 12.4151415,190.554125 C5.62650732,190.554125 0.125531707,182.544649 0.125531707,172.665879 C0.125531707,162.787108 5.62650732,154.777633 12.4151415,154.777633" id="Fill-14"></path>
                </g>
                <path d="M20.5,149 C30.164362,149 38,156.835638 38,166.5 C38,176.164362 30.164362,184 20.5,184 C10.835638,184 3,176.164362 3,166.5 C3,156.835638 10.835638,149 20.5,149" id="Fill-17" fill="#95C5EB"></path>
                <g id="Group-23" transform="translate(3.000000, 21.000000)" fill="#C6DEEE">
                    <path d="M43.2500471,0.0455023755 C49.1599565,0.0455023755 53.9521969,4.829485 53.9521969,10.7292108 C53.9521969,16.6289366 49.1599565,21.4098026 43.2500471,21.4098026 C37.3370157,21.4098026 32.5478973,16.6289366 32.5478973,10.7292108 C32.5478973,4.829485 37.3370157,0.0455023755 43.2500471,0.0455023755" id="Fill-19"></path>
                    <path d="M12.929683,128.237225 C19.8261383,128.237225 25.4144837,136.209491 25.4144837,146.042367 C25.4144837,155.875244 19.8261383,163.847509 12.929683,163.847509 C6.03634964,163.847509 0.444882246,155.875244 0.444882246,146.042367 C0.444882246,136.209491 6.03634964,128.237225 12.929683,128.237225" id="Fill-21"></path>
                </g>
                <path d="M20.8502376,183.999992 C21.9095327,183.987728 22.9625782,183.883478 24,183.687244 C18.1566907,182.224686 13.7101511,175.098932 13.7101511,166.483023 C13.7101511,157.870181 18.1566907,150.744427 24,149.278803 C17.3536263,148.101397 10.6010106,150.710699 6.55444079,156.018221 C2.50787099,161.322677 1.86416954,168.41777 4.89206617,174.344656 C7.91683804,180.268476 14.0976219,184.006125 20.8502376,183.999992" id="Fill-24" fill="#FEFEFE"></path>
                <path d="M104.847582,189.999992 C105.906719,189.987728 106.959608,189.883478 108,189.687244 C102.154436,188.224686 97.7085577,181.098932 97.7085577,172.483023 C97.7085577,163.870181 102.154436,156.744427 108,155.278803 C101.351491,154.101397 94.5998797,156.710699 90.553912,162.018221 C86.5079442,167.322677 85.8643385,174.41777 88.8917847,180.344656 C91.9161065,186.268476 98.0959708,190.006125 104.847582,189.999992" id="Fill-26" fill="#FEFEFE"></path>
                <path d="M174.850238,37.9999925 C175.906408,37.9877278 176.962578,37.8834784 178,37.6872442 C172.156691,36.22162 167.710151,29.0989315 167.710151,20.4830234 C167.710151,11.8671153 172.156691,4.7444268 178,3.27880257 C171.353626,2.10139733 164.601011,4.71069904 160.554441,10.0182211 C156.507871,15.322677 155.86417,22.41777 158.892066,28.3446563 C161.916838,34.2684764 168.097622,38.0061248 174.850238,37.9999925" id="Fill-28" fill="#FEFEFE"></path>
                <path d="M159.5,135 C165.301342,135 170,139.702407 170,145.501532 C170,151.297593 165.301342,156 159.5,156 C153.701721,156 149,151.297593 149,145.501532 C149,139.702407 153.701721,135 159.5,135" id="Fill-30" fill="#C6DEEE"></path>
                <path d="M102.5,67.1246103 C90.6959304,67.1246103 81.1273384,76.6937257 81.1273384,88.498441 C81.1273384,100.306274 90.6959304,109.87539 102.5,109.87539 C114.30407,109.87539 123.872662,100.306274 123.872662,88.498441 C123.86019,76.6999617 114.297834,67.1370822 102.5,67.1246103 M102.5,117 C86.7581227,117 74,104.241179 74,88.498441 C74,72.7588206 86.7581227,60 102.5,60 C118.238759,60 131,72.7588206 131,88.498441 C130.978175,104.231825 118.229406,116.981292 102.5,117" id="Fill-32" fill="#22446D"></path>
                <path d="M173.5,7.16614397 C165.586871,7.16614397 159.166667,13.5827438 159.166667,21.4984319 C159.166667,29.41412 165.586871,35.8307199 173.5,35.8307199 C181.416265,35.8307199 187.833333,29.41412 187.833333,21.4984319 C187.823924,13.58588 181.413129,7.17241631 173.5,7.16614397 M173.5,43 C161.625602,43 152,33.3719641 152,21.4984319 C152,9.62489972 161.625602,0 173.5,0 C185.374398,0 195,9.62489972 195,21.4984319 C194.990591,33.3656918 185.368125,42.9843192 173.5,43" id="Fill-34" fill="#22446D"></path>
                <g id="Group-38" transform="translate(81.000000, 152.000000)">
                    <mask id="mask-2" fill="white">
                        <use xlink:href="#path-1"></use>
                    </mask>
                    <g id="Clip-37"></g>
                    <path d="M22.4230286,8.07437508 C14.4904571,8.07437508 8.06017143,14.4919694 8.06017143,22.4088845 C8.06017143,30.3257995 14.4904571,36.7465305 22.4230286,36.7465305 C30.3524571,36.7465305 36.7858857,30.3257995 36.7858857,22.4088845 C36.7764571,14.4951061 30.3493143,8.08378504 22.4230286,8.07437508 M22.4230286,43.9137852 C10.5241714,43.9137852 0.878742857,34.284257 0.878742857,22.4088845 C0.878742857,10.5335119 10.5241714,0.907120376 22.4230286,0.907120376 C34.3218857,0.907120376 43.9673143,10.5335119 43.9673143,22.4088845 C43.9547429,34.2811204 34.3156,43.898102 22.4230286,43.9137852" id="Fill-36" fill="#22446D" mask="url(#mask-2)"></path>
                </g>
                <path d="M21.5,153.166144 C13.5837345,153.166144 7.16666667,159.582744 7.16666667,167.498432 C7.16666667,175.41412 13.5837345,181.833856 21.5,181.833856 C29.4162655,181.833856 35.8333333,175.41412 35.8333333,167.498432 C35.8239241,159.58588 29.4131291,153.175552 21.5,153.166144 M21.5,189 C9.62560175,189 0,179.371964 0,167.498432 C0,155.6249 9.62560175,146 21.5,146 C33.3743982,146 43,155.6249 43,167.498432 C42.9905908,179.368828 33.3681255,188.987455 21.5,189" id="Fill-39" fill="#22446D"></path>
                <path d="M46,25 C42.1339168,25 39,28.1339168 39,32 C39,35.8660832 42.1339168,39 46,39 C49.8660832,39 53,35.8660832 53,32 C52.9938731,28.1339168 49.8660832,25.0030635 46,25 M46,46 C38.2678337,46 32,39.7321663 32,32 C32,24.2678337 38.2678337,18 46,18 C53.7291028,18 60,24.2678337 60,32 C59.9908096,39.7291028 53.7260394,45.9938731 46,46" id="Fill-41" fill="#22446D"></path>
                <path d="M160,138 C156.133917,138 153,141.133917 153,145 C153,148.866083 156.133917,152 160,152 C163.869147,152 167,148.866083 167,145 C166.996937,141.133917 163.866083,138.003063 160,138 M160,159 C152.270897,159 146,152.732166 146,145 C146,137.267834 152.270897,131 160,131 C167.732166,131 174,137.267834 174,145 C173.993873,152.729103 167.729103,158.993873 160,159" id="Fill-43" fill="#22446D"></path>
                <path d="M103.5,158 C102.569116,158 101.681102,157.632408 101.022747,156.976869 C100.370516,156.318267 100,155.42992 100,154.498687 L100,112.501313 C100,110.568392 101.567804,109 103.5,109 C105.432196,109 107,110.568392 107,112.501313 L107,154.498687 C107,155.42992 106.626422,156.318267 105.974191,156.976869 C105.318898,157.632408 104.427822,158 103.5,158" id="Fill-45" fill="#22446D"></path>
                <path d="M120.53397,74 C119.103831,74 117.816087,73.1394449 117.268176,71.8176571 C116.723362,70.4958693 117.023629,68.9728726 118.032775,67.9637325 L156.940603,29.0561191 C157.832118,28.1491312 159.141531,27.7931462 160.367364,28.118176 C161.599389,28.4432058 162.55591,29.4028175 162.884037,30.6317397 C163.205973,31.8606618 162.846891,33.1700676 161.939898,34.0584823 L123.038261,72.9660957 C122.375816,73.6285374 121.475014,74 120.53397,74" id="Fill-47" fill="#22446D"></path>
                <path d="M35.5640964,160 C34.1229823,160 32.8222365,159.132831 32.2701213,157.800885 C31.7211255,156.468939 32.023697,154.934237 33.0437064,153.917342 L82.9399427,104.020828 C84.3342674,102.65145 86.5739209,102.660808 87.9557684,104.042663 C89.3376159,105.424518 89.3500931,107.664184 87.9807227,109.058517 L38.0844864,158.95815 C37.4169574,159.625683 36.5092427,160 35.5640964,160" id="Fill-49" fill="#22446D"></path>
                <path d="M84.4538353,74 C83.5099117,74 82.6094582,73.6273963 81.9418807,72.9629196 L50.0161482,41.0307797 C48.6530479,39.6428308 48.662363,37.4134184 50.0378832,36.0378897 C51.4134035,34.6623609 53.6428021,34.6530458 55.0307424,36.0161544 L86.9626849,67.9451893 C87.9749188,68.9574295 88.27921,70.4851048 87.7296229,71.8109531 C87.1800358,73.1368014 85.8883508,74 84.4538353,74" id="Fill-51" fill="#22446D"></path>
                <path d="M152.45223,142 C151.511413,142 150.607856,141.627422 149.943385,140.959887 L118.014608,109.033071 C116.651511,107.645219 116.663931,105.415961 118.039448,104.037423 C119.414966,102.66199 121.64436,102.652675 123.032298,104.018794 L154.961075,135.942505 C155.976412,136.95778 156.277597,138.485349 155.731116,139.808 C155.18153,141.133757 153.886742,142 152.45223,142" id="Fill-53" fill="#22446D"></path>
            </g>
        </g>
    </g>
</svg>