<?xml version="1.0" encoding="UTF-8"?>
<svg width="180px" height="45px" viewBox="0 0 180 45" version="1.1" xmlns="http://www.w3.org/2000/svg" xmlns:xlink="http://www.w3.org/1999/xlink">
    <!-- Generator: Sketch 51.3 (57544) - http://www.bohemiancoding.com/sketch -->
    <title>logo-networks</title>
    <desc>Created with Sketch.</desc>
    <defs>
        <polygon id="path-1" points="0.159989596 0.167948994 8.00497302 0.167948994 8.00497302 8.13031093 0.159989596 8.13031093"></polygon>
    </defs>
    <g id="Diseño" stroke="none" stroke-width="1" fill="none" fill-rule="evenodd">
        <g id="Artboard-2" transform="translate(-65.000000, -139.000000)">
            <g id="logo-networks" transform="translate(65.000000, 139.000000)">
                <g id="Group-33">
                    <g id="img_home_azul">
                        <path d="M18.6618116,11.8492936 C21.1252517,11.8492936 23.1224397,13.8802541 23.1224397,16.3853513 C23.1224397,18.8904484 21.1252517,20.9214089 18.6618116,20.9214089 C16.1978137,20.9214089 14.2011834,18.8904484 14.2011834,16.3853513 C14.2011834,13.8802541 16.1978137,11.8492936 18.6618116,11.8492936" id="Fill-1" fill="#C6DEEE" fill-rule="nonzero"></path>
                        <path d="M18.7532226,20.9214088 C18.9353529,20.920274 19.1180523,20.9083605 19.2990442,20.885668 C17.5266894,20.6161935 16.1521753,18.7054787 16.1521753,16.3840281 C16.1521753,14.0631449 17.5266894,12.1518627 19.2990442,11.8823883 C17.6200311,11.6792898 15.9666301,12.4219043 15.0058932,13.8095554 C14.0457254,15.1972064 13.9364472,17.0018335 14.7230221,18.4944377 C15.5095971,19.9876093 17.061119,20.921976 18.7532226,20.9214088" id="Fill-5" fill="#FEFEFE" fill-rule="nonzero"></path>
                        <g id="Group-11" transform="translate(15.475649, 0.370290)" fill="#95C5EB" fill-rule="nonzero">
                            <path d="M16.0964643,0.174958583 C17.8718449,0.174958583 19.3112817,1.65787461 19.3112817,3.48688166 C19.3112817,5.31588871 17.8718449,6.79880473 16.0964643,6.79880473 C14.3210837,6.79880473 12.8816468,5.31588871 12.8816468,3.48688166 C12.8816468,1.65787461 14.3210837,0.174958583 16.0964643,0.174958583" id="Fill-7"></path>
                            <path d="M3.23798199,28.6563377 C5.01279987,28.6563377 6.4522368,30.1392536 6.4522368,31.9682608 C6.4522368,33.7972677 5.01279987,35.2801839 3.23798199,35.2801839 C1.46260141,35.2801839 0.0231644779,33.7972677 0.0231644779,31.9682608 C0.0231644779,30.1392536 1.46260141,28.6563377 3.23798199,28.6563377" id="Fill-9"></path>
                        </g>
                        <g id="Group-16" transform="translate(15.475649, 0.370290)" fill="#C6DEEE" fill-rule="nonzero">
                            <path d="M15.0457222,0.174958583 C16.2817048,0.174958583 17.2832479,1.65787461 17.2832479,3.48688166 C17.2832479,5.31588871 16.2817048,6.79880473 15.0457222,6.79880473 C13.8102992,6.79880473 12.8081965,5.31588871 12.8081965,3.48688166 C12.8081965,1.65787461 13.8102992,0.174958583 15.0457222,0.174958583" id="Fill-12"></path>
                            <path d="M2.26038079,28.6563377 C3.49580381,28.6563377 4.49790645,30.1392536 4.49790645,31.9682608 C4.49790645,33.7972677 3.49580381,35.2801839 2.26038079,35.2801839 C1.02439824,35.2801839 0.0228551128,33.7972677 0.0228551128,31.9682608 C0.0228551128,30.1392536 1.02439824,28.6563377 2.26038079,28.6563377" id="Fill-14"></path>
                        </g>
                        <path d="M3.73236231,27.5866366 C5.49191843,27.5866366 6.91852526,29.0373674 6.91852526,30.8266778 C6.91852526,32.6159881 5.49191843,34.066719 3.73236231,34.066719 C1.97280619,34.066719 0.546199363,32.6159881 0.546199363,30.8266778 C0.546199363,29.0373674 1.97280619,27.5866366 3.73236231,27.5866366" id="Fill-17" fill="#95C5EB" fill-rule="nonzero"></path>
                        <g id="Group-23" transform="translate(0.546199, 3.888049)" fill="#C6DEEE" fill-rule="nonzero">
                            <path d="M7.87438272,0.00842454696 C8.95037897,0.00842454696 9.82288519,0.894156024 9.82288519,1.98646201 C9.82288519,3.07876799 8.95037897,3.96392244 7.87438272,3.96392244 C6.79781806,3.96392244 5.92588025,3.07876799 5.92588025,1.98646201 C5.92588025,0.894156024 6.79781806,0.00842454696 7.87438272,0.00842454696" id="Fill-19"></path>
                            <path d="M2.35406154,23.7425082 C3.6096747,23.7425082 4.62712493,25.2185351 4.62712493,27.039045 C4.62712493,28.8595551 3.6096747,30.3355818 2.35406154,30.3355818 C1.09901678,30.3355818 0.0809981331,28.8595551 0.0809981331,27.039045 C0.0809981331,25.2185351 1.09901678,23.7425082 2.35406154,23.7425082" id="Fill-21"></path>
                        </g>
                        <path d="M3.79612883,34.0667175 C3.98899093,34.0644469 4.18071519,34.0451455 4.3695949,34.0088137 C3.3057243,33.7380281 2.4961586,32.4187289 2.4961586,30.8235346 C2.4961586,29.2289081 3.3057243,27.9096089 4.3695949,27.6382556 C3.15951321,27.4202645 1.93008841,27.9033643 1.19334379,28.8860266 C0.456599179,29.8681212 0.339402738,31.1817437 0.890681142,32.2790783 C1.44139063,33.3758452 2.56670403,34.067853 3.79612883,34.0667175" id="Fill-24" fill="#FEFEFE" fill-rule="nonzero"></path>
                        <path d="M19.0892275,35.1775888 C19.2820608,35.1753182 19.4737566,35.1560168 19.6631771,35.119685 C18.5988959,34.8488994 17.7894507,33.5296001 17.7894507,31.9344058 C17.7894507,30.3397794 18.5988959,29.0204802 19.6631771,28.7491269 C18.4527066,28.5311358 17.2234647,29.0142356 16.4868297,29.9968979 C15.7501947,30.9789925 15.6330157,32.292615 16.1842121,33.3899496 C16.7348396,34.4867165 17.8599856,35.1787243 19.0892275,35.1775888" id="Fill-26" fill="#FEFEFE" fill-rule="nonzero"></path>
                        <path d="M31.8343629,7.03551666 C32.026656,7.03324591 32.2189491,7.01394464 32.4078289,6.97761281 C31.3439583,6.70625951 30.5343925,5.38752784 30.5343925,3.79233371 C30.5343925,2.19713958 31.3439583,0.878407905 32.4078289,0.607054597 C31.1977471,0.389063654 29.9683224,0.872163372 29.2315778,1.85482567 C28.4948331,2.83692028 28.3776368,4.15054278 28.9289151,5.2478774 C29.4796246,6.34464433 30.604938,7.03665203 31.8343629,7.03551666" id="Fill-28" fill="#FEFEFE" fill-rule="nonzero"></path>
                        <path d="M29.0395995,24.9946036 C30.0958292,24.9946036 30.9512972,25.8652318 30.9512972,26.938912 C30.9512972,28.0120249 30.0958292,28.8826531 29.0395995,28.8826531 C27.9839274,28.8826531 27.1279017,28.0120249 27.1279017,26.938912 C27.1279017,25.8652318 27.9839274,24.9946036 29.0395995,24.9946036" id="Fill-30" fill="#C6DEEE" fill-rule="nonzero"></path>
                        <path d="M18.6618116,12.4278002 C16.5126865,12.4278002 14.7705668,14.1994761 14.7705668,16.3850626 C14.7705668,18.5712264 16.5126865,20.3429024 18.6618116,20.3429024 C20.8109367,20.3429024 22.5530563,18.5712264 22.5530563,16.3850626 C22.5507856,14.2006307 20.8098014,12.4301093 18.6618116,12.4278002 M18.6618116,21.6619898 C15.7957438,21.6619898 13.4729176,19.2997552 13.4729176,16.3850626 C13.4729176,13.4709473 15.7957438,11.1087127 18.6618116,11.1087127 C21.5273116,11.1087127 23.8507055,13.4709473 23.8507055,16.3850626 C23.8467319,19.2980233 21.5256087,21.6585261 18.6618116,21.6619898" id="Fill-32" fill="#FFFFFF" fill-rule="nonzero"></path>
                        <path d="M31.5885298,1.32677724 C30.1478145,1.32677724 28.9789107,2.51477998 28.9789107,3.98033173 C28.9789107,5.44588348 30.1478145,6.63388623 31.5885298,6.63388623 C33.0298161,6.63388623 34.1981489,5.44588348 34.1981489,3.98033173 C34.1964359,2.51536063 33.0292452,1.32793854 31.5885298,1.32677724 M31.5885298,7.96124411 C29.4266003,7.96124411 27.674101,6.17865937 27.674101,3.98033173 C27.674101,1.7820041 29.4266003,0 31.5885298,0 C33.7504594,0 35.5029586,1.7820041 35.5029586,3.98033173 C35.5012455,6.17749808 33.7493173,7.95834089 31.5885298,7.96124411" id="Fill-34" fill="#FFFFFF" fill-rule="nonzero"></path>
                        <g id="Group-38" transform="translate(14.747383, 28.142072)">
                            <g id="Fill-36-Clipped">
                                <mask id="mask-2" fill="white">
                                    <use xlink:href="#path-1"></use>
                                </mask>
                                <g id="path-1"></g>
                                <path d="M4.08248131,1.49493189 C2.63822614,1.49493189 1.46748683,2.68311875 1.46748683,4.14889767 C1.46748683,5.61467658 2.63822614,6.80344418 4.08248131,6.80344418 C5.52616424,6.80344418 6.69747578,5.61467658 6.69747578,4.14889767 C6.69575914,2.68369949 5.52559204,1.49667409 4.08248131,1.49493189 M4.08248131,8.13042707 C1.91609857,8.13042707 0.159989596,6.34756603 0.159989596,4.14889767 C0.159989596,1.95022929 1.91609857,0.167948994 4.08248131,0.167948994 C6.24886403,0.167948994 8.00497302,1.95022929 8.00497302,4.14889767 C8.00268419,6.3469853 6.24771962,8.1275234 4.08248131,8.13042707" id="Fill-36" fill="#FFFFFF" fill-rule="nonzero" mask="url(#mask-2)"></path>
                            </g>
                        </g>
                        <path d="M3.91442877,28.3579782 C2.47314238,28.3579782 1.30480959,29.545981 1.30480959,31.0115327 C1.30480959,32.4770844 2.47314238,33.6656678 3.91442877,33.6656678 C5.35571516,33.6656678 6.52404794,32.4770844 6.52404794,31.0115327 C6.52233484,29.5465616 5.35514412,28.35972 3.91442877,28.3579782 M3.91442877,34.9924451 C1.75249918,34.9924451 0,33.2098603 0,31.0115327 C0,28.8132051 1.75249918,27.0312009 3.91442877,27.0312009 C6.07635834,27.0312009 7.82885753,28.8132051 7.82885753,31.0115327 C7.82714443,33.2092797 6.07521629,34.9901224 3.91442877,34.9924451" id="Fill-39" fill="#FFFFFF" fill-rule="nonzero"></path>
                        <path d="M8.3750569,4.6286303 C7.67117284,4.6286303 7.10059172,5.20885999 7.10059172,5.92464678 C7.10059172,6.64043358 7.67117284,7.22066327 8.3750569,7.22066327 C9.07894096,7.22066327 9.64952208,6.64043358 9.64952208,5.92464678 C9.64840657,5.20885999 9.07894096,4.62919749 8.3750569,4.6286303 M8.3750569,8.51667975 C6.96728879,8.51667975 5.82612654,7.35622035 5.82612654,5.92464678 C5.82612654,4.49307321 6.96728879,3.33261381 8.3750569,3.33261381 C9.78226724,3.33261381 10.9239873,4.49307321 10.9239873,5.92464678 C10.922314,7.35565316 9.78170949,8.51554538 8.3750569,8.51667975" id="Fill-41" fill="#FFFFFF" fill-rule="nonzero"></path>
                        <path d="M29.1306327,25.5500392 C28.4267487,25.5500392 27.8561675,26.130269 27.8561675,26.8460557 C27.8561675,27.5618425 28.4267487,28.1420722 29.1306327,28.1420722 C29.8350746,28.1420722 30.4050979,27.5618425 30.4050979,26.8460557 C30.4045402,26.130269 29.8345167,25.5506063 29.1306327,25.5500392 M29.1306327,29.4380887 C27.7234223,29.4380887 26.5817023,28.2776292 26.5817023,26.8460557 C26.5817023,25.4144822 27.7234223,24.2540228 29.1306327,24.2540228 C30.5384007,24.2540228 31.679563,25.4144822 31.679563,26.8460557 C31.6784475,28.2770621 30.5378431,29.4369543 29.1306327,29.4380887" id="Fill-43" fill="#FFFFFF" fill-rule="nonzero"></path>
                        <path d="M18.843878,29.2529435 C18.6743953,29.2529435 18.5127177,29.1848856 18.3928533,29.0635157 C18.274104,28.9415787 18.2066454,28.7771055 18.2066454,28.6046921 L18.2066454,20.8290794 C18.2066454,20.4712084 18.4920899,20.1808281 18.843878,20.1808281 C19.1956661,20.1808281 19.4811106,20.4712084 19.4811106,20.8290794 L19.4811106,28.6046921 C19.4811106,28.7771055 19.4130946,28.9415787 19.2943452,29.0635157 C19.1750383,29.1848856 19.0128033,29.2529435 18.843878,29.2529435" id="Fill-45" fill="#FFFFFF" fill-rule="nonzero"></path>
                        <path d="M21.9451925,13.7007457 C21.6848122,13.7007457 21.4503572,13.541418 21.350601,13.2966953 C21.2514086,13.0519727 21.3060772,12.7699971 21.4898088,12.5831597 L28.5736191,5.37960133 C28.7359341,5.21167686 28.9743343,5.14576794 29.1975173,5.20594565 C29.4218278,5.26612337 29.5959782,5.44379088 29.6557191,5.67131994 C29.7143328,5.89884898 29.648956,6.1412792 29.483823,6.30576492 L22.4011399,13.5093233 C22.2805309,13.6319712 22.1165251,13.7007457 21.9451925,13.7007457" id="Fill-47" fill="#FFFFFF" fill-rule="nonzero"></path>
                        <path d="M6.47502893,29.6232339 C6.2126504,29.6232339 5.97582822,29.4626817 5.87530656,29.2160783 C5.77535284,28.9694749 5.83044096,28.6853321 6.01615046,28.4970589 L15.1005813,19.2589582 C15.354441,19.0054245 15.7622068,19.0071571 16.0137949,19.2630009 C16.265383,19.5188447 16.2676546,19.9335082 16.0183382,20.1916622 L6.9339074,29.4303404 C6.81237276,29.5539309 6.64710837,29.6232339 6.47502893,29.6232339" id="Fill-49" fill="#FFFFFF" fill-rule="nonzero"></path>
                        <path d="M15.3762103,13.7007457 C15.2043535,13.7007457 15.0404111,13.6317599 14.9188677,13.5087352 L9.10626276,7.5966524 C8.85808792,7.33968031 8.85978389,6.92691528 9.11021997,6.67224273 C9.36065608,6.41757015 9.76655477,6.41584551 10.0192521,6.66821854 L15.8329877,12.5797265 C16.0172815,12.7671379 16.0726827,13.0499797 15.9726214,13.2954541 C15.87256,13.5409286 15.6373875,13.7007457 15.3762103,13.7007457" id="Fill-51" fill="#FFFFFF" fill-rule="nonzero"></path>
                        <path d="M27.756437,26.2906201 C27.5851457,26.2906201 27.4206383,26.2216391 27.2996604,26.0980482 L21.4865012,20.186951 C21.238327,19.9299969 21.2405883,19.5172604 21.4910238,19.2620307 C21.7414594,19.0073759 22.1473573,19.0056513 22.4000543,19.2585817 L28.2132135,25.1691039 C28.3980723,25.3570772 28.452908,25.6398993 28.3534121,25.8847818 C28.2533509,26.1302394 28.0176135,26.2906201 27.756437,26.2906201" id="Fill-53" fill="#FFFFFF" fill-rule="nonzero"></path>
                    </g>
                    <polygon id="Fill-15" fill="#FFFFFF" points="64.715375 11.619025 62.481875 22.712275 59.991125 11.619025 54.931625 11.619025 52.724375 22.584775 50.618375 11.619025 44.738375 11.619025 49.000625 29.979025 54.804125 29.979025 57.397625 19.014025 59.965625 29.979025 65.845625 29.979025 70.107875 11.619025"></polygon>
                    <g id="Group-32" transform="translate(71.000000, 10.063150)" fill="#FFFFFF">
                        <path d="M0.263925,2.942325 C0.263925,1.453575 1.445175,0.375075 3.012675,0.375075 C4.552425,0.375075 5.733675,1.453575 5.733675,2.942325 C5.733675,4.406325 4.552425,5.484825 3.012675,5.484825 C1.445175,5.484825 0.263925,4.406325 0.263925,2.942325 Z M0.495675,19.915575 L5.528175,19.915575 L5.528175,6.486075 L0.495675,6.486075 L0.495675,19.915575 Z" id="Fill-16"></path>
                        <polygon id="Fill-18" points="8.12205 0.657225 13.18005 0.657225 13.18005 11.570475 16.4418 6.486225 21.6288 6.486225 17.4948 12.495225 21.9633 19.915725 16.36455 19.915725 13.18005 14.317725 13.18005 19.915725 8.12205 19.915725"></polygon>
                        <path d="M23.169675,2.942325 C23.169675,1.453575 24.350175,0.375075 25.917675,0.375075 C27.458175,0.375075 28.639425,1.453575 28.639425,2.942325 C28.639425,4.406325 27.458175,5.484825 25.917675,5.484825 C24.350175,5.484825 23.169675,4.406325 23.169675,2.942325 Z M23.400675,19.915575 L28.433925,19.915575 L28.433925,6.486075 L23.400675,6.486075 L23.400675,19.915575 Z" id="Fill-20"></path>
                        <path d="M30.539325,10.851375 L30.539325,10.646625 C30.539325,4.971375 34.621575,1.273125 40.040325,1.273125 C44.996325,1.273125 48.335325,3.533625 48.771825,8.514375 L42.762825,8.514375 C42.582825,6.820125 41.683575,5.869875 40.065825,5.869875 C37.961325,5.869875 36.677325,7.513125 36.677325,10.620375 L36.677325,10.825875 C36.677325,13.882125 37.908825,15.576375 40.169325,15.576375 C41.811825,15.576375 42.993075,14.728875 43.198575,12.880875 L49.002075,12.880875 C48.694575,17.707875 45.150075,20.249625 40.297575,20.249625 C33.672825,20.249625 30.539325,16.474875 30.539325,10.851375" id="Fill-22"></path>
                        <path d="M50.6457,0.657225 L55.70445,0.657225 L55.70445,8.643225 C56.4492,7.230975 57.88695,6.126975 60.14745,6.126975 C62.68995,6.126975 64.4607,7.744725 64.4607,11.082975 L64.4607,19.915725 L59.40345,19.915725 L59.40345,12.213225 C59.40345,10.851225 58.91445,10.157475 57.7077,10.157475 C56.4492,10.157475 55.70445,10.903725 55.70445,12.495225 L55.70445,19.915725 L50.6457,19.915725 L50.6457,0.657225 Z" id="Fill-24"></path>
                        <path d="M66.79785,6.48615 L71.8566,6.48615 L71.8566,9.20865 C72.7041,7.12815 74.1681,6.2814 76.17135,6.3069 L76.17135,11.0319 C73.37235,10.87665 71.8566,11.8014 71.8566,13.72665 L71.8566,19.91565 L66.79785,19.91565 L66.79785,6.48615 Z" id="Fill-26"></path>
                        <path d="M77.275875,13.368 L77.275875,13.1625 C77.275875,8.79675 80.536875,6.12675 84.773625,6.12675 C88.959375,6.12675 92.220375,8.72025 92.220375,13.03425 L92.220375,13.23975 C92.220375,17.6565 88.933125,20.25 84.748125,20.25 C80.562375,20.25 77.275875,17.7855 77.275875,13.368 M87.084375,13.26525 L87.084375,13.086 C87.084375,10.98 86.340375,9.8505 84.773625,9.8505 C83.233125,9.8505 82.385625,10.90275 82.385625,13.00875 L82.385625,13.21425 C82.385625,15.396 83.155875,16.527 84.773625,16.527 C86.314125,16.527 87.084375,15.396 87.084375,13.26525" id="Fill-28"></path>
                        <path d="M93.992625,6.48615 L99.050625,6.48615 L99.050625,8.64315 C99.796125,7.2309 101.233875,6.1269 103.493625,6.1269 C106.036125,6.1269 107.807625,7.74465 107.807625,11.0829 L107.807625,19.91565 L102.749625,19.91565 L102.749625,12.21315 C102.749625,10.85115 102.260625,10.15815 101.053875,10.15815 C99.796125,10.15815 99.050625,10.90365 99.050625,12.49515 L99.050625,19.91565 L93.992625,19.91565 L93.992625,6.48615 Z" id="Fill-30"></path>
                    </g>
                </g>
                <g id="Group" transform="translate(116.134895, 32.350534)" fill="#EF802E">
                    <path d="M2.29822781,4.21023441 L2.36663148,5.16710385 C2.95566305,4.42732854 3.74547204,4.05680425 4.7373252,4.05680425 C5.61010531,4.05680425 6.26120688,4.31464332 6.68809642,4.83032146 C7.1143526,5.34663623 7.33286431,6.11760688 7.34299819,7.14450668 L7.34299819,12.4986464 L5.14078016,12.4986464 L5.14078016,7.19734777 C5.14078016,6.72814433 5.03944139,6.38690547 4.8361305,6.17490445 C4.6328196,5.96354008 4.29460148,5.85722126 3.82274285,5.85722126 C3.20267629,5.85722126 2.7377847,6.1227 2.42743474,6.65429413 L2.42743474,12.4986464 L0.225850078,12.4986464 L0.225850078,4.21023441 L2.29822781,4.21023441 Z" id="Fill-11"></path>
                    <path d="M12.5564343,5.84130526 C12.1200442,5.84130526 11.7647252,5.99091559 11.4930106,6.28822632 C11.2219294,6.58553704 11.04712,7.01081235 10.971116,7.56532551 L14.0347135,7.56532551 L14.0347135,7.38833968 C14.0245796,6.89621721 13.8922059,6.51487004 13.6382256,6.24557146 C13.3848787,5.97627287 13.023226,5.84130526 12.5564343,5.84130526 M12.8078811,12.6520765 C11.5987829,12.6520765 10.6138968,12.2790057 9.85448946,11.5335006 C9.09508209,10.7879955 8.71569509,9.79420101 8.71569509,8.55402692 L8.71569509,8.33947935 C8.71569509,7.50675466 8.87530364,6.76188623 9.19515412,6.10614737 C9.51563796,5.44977186 9.96912893,4.94427996 10.555627,4.58903502 C11.1427585,4.23442672 11.8122277,4.05680425 12.564668,4.05680425 C13.6920618,4.05680425 14.5794094,4.41459575 15.2279774,5.12954211 C15.8746454,5.84385182 16.1989295,6.85801883 16.1989295,8.1701332 L16.1989295,9.07479818 L10.9483147,9.07479818 C11.0192519,9.6159419 11.2339634,10.0501302 11.5924493,10.3767263 C11.9509351,10.7033225 12.4037928,10.8669389 12.9522888,10.8669389 C13.801001,10.8669389 14.4641365,10.5581686 14.9423288,9.9399915 L16.0234867,11.1585198 C15.6935024,11.6277233 15.2469785,11.9944277 14.6820149,12.2573599 C14.1189513,12.5209287 13.4931845,12.6520765 12.8078811,12.6520765" id="Fill-12"></path>
                    <path d="M20.0857145,2.1725418 L20.0857145,4.2104254 L21.49559,4.2104254 L21.49559,5.83385658 L20.0857145,5.83385658 L20.0857145,9.97074119 C20.0857145,10.2769649 20.1439843,10.4972422 20.2605238,10.6296633 C20.3776968,10.7620843 20.6012754,10.8289315 20.9312598,10.8289315 C21.1751062,10.8289315 21.3917178,10.8104689 21.5791945,10.7748171 L21.5791945,12.4523627 C21.1478714,12.5854203 20.7032476,12.6516309 20.245323,12.6516309 C18.7005402,12.6516309 17.9132647,11.8679274 17.8828631,10.3005205 L17.8828631,5.83385658 L16.6788319,5.83385658 L16.6788319,4.2104254 L17.8828631,4.2104254 L17.8828631,2.1725418 L20.0857145,2.1725418 Z" id="Fill-13"></path>
                    <polygon id="Fill-14" points="29.8936601 9.48765901 30.9760848 4.20991609 33.1022988 4.20991609 30.998886 12.498328 29.1538871 12.498328 27.5920034 7.28170253 26.0301197 12.498328 24.1933546 12.498328 22.0899419 4.20991609 24.2155225 4.20991609 25.2903467 9.48065597 26.799661 4.20991609 28.3919463 4.20991609"></polygon>
                    <path d="M36.0516368,8.43478431 C36.0516368,9.22230759 36.198578,9.82520536 36.4937272,10.2415677 C36.788243,10.6585667 37.2094322,10.8667479 37.7579283,10.8667479 C38.2924903,10.8667479 38.7086126,10.6611133 39.0081953,10.2492074 C39.3084114,9.83730152 39.4585194,9.17901609 39.4585194,8.27435111 C39.4585194,7.50147055 39.3084114,6.90302925 39.0081953,6.47839059 C38.7086126,6.05375192 38.2867899,5.84111427 37.7439942,5.84111427 C37.2049986,5.84111427 36.788243,6.05247864 36.4937272,6.47457075 C36.198578,6.89666285 36.0516368,7.54985516 36.0516368,8.43478431 Z M33.8487854,8.27817095 C33.8487854,7.45563249 34.0064939,6.72286022 34.3219108,6.07921751 C34.6366943,5.4355748 35.0901853,4.93835921 35.6823837,4.58502419 C36.2745821,4.23359909 36.9617856,4.0572499 37.7439942,4.0572499 C38.8561871,4.0572499 39.7644358,4.3991254 40.4687402,5.08351306 C41.1717779,5.76790071 41.5644656,6.69739464 41.6455366,7.87199484 L41.6601041,8.43860415 C41.6601041,9.70997358 41.3079519,10.7298703 40.6017473,11.4982944 C39.8949095,12.2673552 38.947392,12.6518855 37.7579283,12.6518855 C36.5690979,12.6518855 35.6209471,12.2686284 34.9122091,11.5027509 C34.2034711,10.7368734 33.8487854,9.69469423 33.8487854,8.37748674 L33.8487854,8.27817095 Z" id="Fill-15"></path>
                    <path d="M47.6496051,6.28644372 C47.3500224,6.24506215 47.0865416,6.22532632 46.8572626,6.22532632 C46.0243846,6.22532632 45.4777887,6.50863097 45.2187415,7.07524028 L45.2187415,12.4987737 L43.0165234,12.4987737 L43.0165234,4.21036174 L45.0971349,4.21036174 L45.1579382,5.19842652 C45.6000286,4.43700547 46.2118614,4.05693158 46.9953367,4.05693158 C47.2391831,4.05693158 47.4671953,4.09003684 47.6806401,4.15624737 L47.6496051,6.28644372 Z" id="Fill-16"></path>
                    <polygon id="Fill-17" points="51.7046124 9.17398664 50.9122699 9.97042287 50.9122699 12.498519 48.7094185 12.498519 48.7094185 0.732144534 50.9122699 0.732144534 50.9122699 7.25069818 51.3391595 6.69936822 53.4501726 4.21010709 56.094481 4.21010709 53.1151213 7.66515061 56.3535282 12.498519 53.8238593 12.498519"></polygon>
                    <path d="M61.5131281,10.2085261 C61.5131281,9.93731761 61.3794876,9.72404332 61.11284,9.56870324 C60.845559,9.41272652 60.4180361,9.27330243 59.8290045,9.15043097 C57.867466,8.73725182 56.8870135,7.90007065 56.8870135,6.63825081 C56.8870135,5.90293198 57.1903964,5.28921134 57.7977956,4.79645223 C58.4045615,4.30369312 59.1988041,4.05667692 60.17989,4.05667692 C61.2255793,4.05667692 62.0628909,4.3049664 62.6899245,4.79963543 C63.3182248,5.29494109 63.6317416,5.93858381 63.6317416,6.72992692 L61.4288902,6.72992692 C61.4288902,6.413517 61.3275515,6.1518581 61.1242406,5.94558684 C60.9202963,5.73804231 60.6029793,5.63490668 60.1722896,5.63490668 C59.8011363,5.63490668 59.514221,5.71894312 59.3102767,5.88828927 C59.1069658,6.05572551 59.005627,6.27027308 59.005627,6.53129534 C59.005627,6.77640162 59.1208999,6.97439656 59.3520789,7.12528016 C59.583258,7.27552713 59.9727789,7.40540162 60.5219083,7.51554028 C61.0710377,7.62504231 61.5327625,7.74918704 61.909616,7.88733785 C63.0724783,8.31579636 63.6545429,9.05875486 63.6545429,10.1162134 C63.6545429,10.8719047 63.3315255,11.4830787 62.6867577,11.9510089 C62.0413564,12.4176658 61.2084784,12.6519492 60.1862236,12.6519492 C59.4958533,12.6519492 58.8827538,12.5278045 58.3462917,12.2801516 C57.8098296,12.0324988 57.3899071,11.6931698 57.0852574,11.2615281 C56.7799744,10.8298864 56.6279663,10.3638662 56.6279663,9.86346741 L58.7161782,9.86346741 C58.7364459,10.2562741 58.881487,10.5580413 59.1506681,10.7674957 C59.4198492,10.9763136 59.7808686,11.0813591 60.2330928,11.0813591 C60.6549154,11.0813591 60.9728658,11.0011425 61.188844,10.8400727 C61.4054557,10.6796395 61.5131281,10.4682751 61.5131281,10.2085261" id="Fill-18"></path>
                </g>
            </g>
        </g>
    </g>
</svg>