<?xml version="1.0" encoding="UTF-8"?>
<svg width="205px" height="40px" viewBox="0 0 205 40" version="1.1" xmlns="http://www.w3.org/2000/svg" xmlns:xlink="http://www.w3.org/1999/xlink">
    <!-- Generator: sketchtool 51.3 (57544) - http://www.bohemiancoding.com/sketch -->
    <title>F2094603-487D-46E5-B026-055F9E027809</title>
    <desc>Created with sketchtool.</desc>
    <defs>
        <polygon id="path-1" points="0.333117409 0.30902834 130.040364 0.30902834 130.040364 38.5425101 0.333117409 38.5425101"></polygon>
        <polygon id="path-3" points="0.173322063 0.18156648 8.6720541 0.18156648 8.6720541 8.78952533 0.173322063 8.78952533"></polygon>
    </defs>
    <g id="Diseño" stroke="none" stroke-width="1" fill="none" fill-rule="evenodd">
        <g id="home_networks_step3_time_range" transform="translate(-58.000000, -17.000000)">
            <g id="ico-logo" transform="translate(58.000000, 17.000000)">
                <g id="logo" transform="translate(43.076923, 0.000000)">
                    <polygon id="Fill-1" fill="#FFFFFF" points="24.095332 2.11226721 21.4007976 15.4920243 18.3958583 2.11226721 12.2951296 2.11226721 9.6315668 15.337166 7.09189069 2.11226721 6.88259109e-05 2.11226721 5.14136437 24.2563158 12.1409595 24.2563158 15.2690972 11.0321053 18.3648866 24.2563158 25.4573968 24.2563158 30.5986923 2.11226721"></polygon>
                    <g id="Group-19" transform="translate(31.659919, 0.378955)">
                        <mask id="mask-2" fill="white">
                            <use xlink:href="#path-1"></use>
                        </mask>
                        <g id="Clip-3"></g>
                        <path d="M0.612550607,23.877085 L6.68230769,23.877085 L6.68230769,7.67959514 L0.612550607,7.67959514 L0.612550607,23.877085 Z M0.333117409,3.40550607 C0.333117409,1.60983806 1.75781377,0.30902834 3.64777328,0.30902834 C5.50538462,0.30902834 6.93008097,1.60983806 6.93008097,3.40550607 C6.93008097,5.17157895 5.50538462,6.4717004 3.64777328,6.4717004 C1.75781377,6.4717004 0.333117409,5.17157895 0.333117409,3.40550607 Z" id="Fill-2" fill="#FFFFFF" mask="url(#mask-2)"></path>
                        <polygon id="Fill-4" fill="#FFFFFF" mask="url(#mask-2)" points="9.81037652 0.64937247 15.9111053 0.64937247 15.9111053 13.8123279 19.8445061 7.67993927 26.1007814 7.67993927 21.1150324 14.9266194 26.5041012 23.8774291 19.7515911 23.8774291 15.9111053 17.1256073 15.9111053 23.8774291 9.81037652 23.8774291"></polygon>
                        <path d="M28.2378947,23.877085 L34.3083401,23.877085 L34.3083401,7.67959514 L28.2378947,7.67959514 L28.2378947,23.877085 Z M27.9598381,3.40550607 C27.9598381,1.60983806 29.3838462,0.30902834 31.2731174,0.30902834 C33.131417,0.30902834 34.5561134,1.60983806 34.5561134,3.40550607 C34.5561134,5.17157895 33.131417,6.4717004 31.2731174,6.4717004 C29.3838462,6.4717004 27.9598381,5.17157895 27.9598381,3.40550607 Z" id="Fill-5" fill="#FFFFFF" mask="url(#mask-2)"></path>
                        <path d="M36.848085,12.9446397 L36.848085,12.6975547 C36.848085,5.85281781 41.7718907,1.39289879 48.3069109,1.39289879 C54.2844413,1.39289879 58.3107571,4.11840486 58.8372753,10.1262186 L51.5905951,10.1262186 C51.3731053,8.08277733 50.2890972,6.93682591 48.3378826,6.93682591 C45.7988947,6.93682591 44.2503117,8.91832389 44.2503117,12.666583 L44.2503117,12.913668 C44.2503117,16.5999838 45.7362632,18.6434251 48.4624575,18.6434251 C50.4439555,18.6434251 51.8686518,17.6213603 52.1164251,15.3920891 L59.1160202,15.3920891 C58.7443603,21.2140729 54.4702713,24.2802672 48.6173158,24.2802672 C40.6266275,24.2802672 36.848085,19.7274332 36.848085,12.9446397" id="Fill-6" fill="#FFFFFF" mask="url(#mask-2)"></path>
                        <path d="M61.0984818,0.64937247 L67.1998988,0.64937247 L67.1998988,10.2815587 C68.0980769,8.57811741 69.8318016,7.24633603 72.557996,7.24633603 C75.6241903,7.24633603 77.7605466,9.19755061 77.7605466,13.2238664 L77.7605466,23.8774291 L71.6605061,23.8774291 L71.6605061,14.5866194 C71.6605061,12.9444332 71.0713563,12.1081984 69.6156883,12.1081984 C68.0980769,12.1081984 67.1998988,13.0070648 67.1998988,14.9266194 L67.1998988,23.8774291 L61.0984818,23.8774291 L61.0984818,0.64937247 Z" id="Fill-7" fill="#FFFFFF" mask="url(#mask-2)"></path>
                        <path d="M80.5794494,7.67980162 L86.6808664,7.67980162 L86.6808664,10.9627976 C87.7029312,8.45409312 89.4683158,7.4327166 91.8841053,7.46368826 L91.8841053,13.1617854 C88.5081943,12.9752672 86.6808664,14.090247 86.6808664,16.4131215 L86.6808664,23.8772915 L80.5794494,23.8772915 L80.5794494,7.67980162 Z" id="Fill-8" fill="#FFFFFF" mask="url(#mask-2)"></path>
                        <path d="M105.046923,15.856251 L105.046923,15.6394494 C105.046923,13.0997733 104.148745,11.7370202 102.259474,11.7370202 C100.401862,11.7370202 99.3797976,13.0068583 99.3797976,15.5465344 L99.3797976,15.7943077 C99.3797976,18.4262105 100.308259,19.7896518 102.259474,19.7896518 C104.117085,19.7896518 105.046923,18.4262105 105.046923,15.856251 M93.2164372,15.9801377 L93.2164372,15.7316761 C93.2164372,10.4671822 97.1491498,7.24612955 102.259474,7.24612955 C107.307854,7.24612955 111.240567,10.3742672 111.240567,15.5775061 L111.240567,15.8252794 C111.240567,21.1517166 107.276194,24.2798543 102.228502,24.2798543 C97.1801215,24.2798543 93.2164372,21.3072632 93.2164372,15.9801377" id="Fill-9" fill="#FFFFFF" mask="url(#mask-2)"></path>
                        <path d="M113.378575,7.67980162 L119.479304,7.67980162 L119.479304,10.2814211 C120.37817,8.57797976 122.111895,7.24619838 124.837401,7.24619838 C127.903595,7.24619838 130.04064,9.19741296 130.04064,13.2237287 L130.04064,23.8772915 L123.939911,23.8772915 L123.939911,14.5864818 C123.939911,12.9442955 123.350761,12.108749 121.895093,12.108749 C120.37817,12.108749 119.479304,13.0069271 119.479304,14.9264818 L119.479304,23.8772915 L113.378575,23.8772915 L113.378575,7.67980162 Z" id="Fill-10" fill="#FFFFFF" mask="url(#mask-2)"></path>
                        <path d="M63.3507409,29.4164696 L63.4250729,30.4509231 C64.0651538,29.651166 64.923413,29.2505992 66.0012267,29.2505992 C66.9496478,29.2505992 67.6571781,29.5293441 68.1210648,30.086834 C68.5842632,30.6450121 68.8217126,31.4784939 68.8327247,32.5886559 L68.8327247,38.376915 L66.4396478,38.376915 L66.4396478,32.6457814 C66.4396478,32.1385344 66.3295263,31.7696275 66.1085951,31.5404372 C65.887664,31.3119352 65.5201336,31.196996 65.0073806,31.196996 C64.3335749,31.196996 63.8283927,31.484 63.4911457,32.0586964 L63.4911457,38.376915 L61.0987571,38.376915 L61.0987571,29.4164696 L63.3507409,29.4164696 Z" id="Fill-11" fill="#EF802E" mask="url(#mask-2)"></path>
                        <path d="M74.4979919,31.1797895 C74.0237814,31.1797895 73.637668,31.3415304 73.3424049,31.6629474 C73.04783,31.9843644 72.8578704,32.4441215 72.7752794,33.0435951 L76.1043887,33.0435951 L76.1043887,32.8522591 C76.0933765,32.3202348 75.9495304,31.9079676 75.6735385,31.616834 C75.3982348,31.3257004 75.0052389,31.1797895 74.4979919,31.1797895 M74.7712308,38.5427854 C73.4573441,38.5427854 72.3871012,38.1394656 71.5618785,37.3335142 C70.7366559,36.5275628 70.3243887,35.4531903 70.3243887,34.1124615 L70.3243887,33.8805182 C70.3243887,32.9802753 70.49783,32.1750121 70.8454008,31.4661053 C71.1936599,30.7565101 71.6864534,30.2100324 72.3237814,29.8259838 C72.9617976,29.4426235 73.6892874,29.2505992 74.5069393,29.2505992 C75.7320405,29.2505992 76.6962915,29.6374008 77.4010688,30.4103158 C78.1037814,31.1825425 78.45617,32.2789393 78.45617,33.6974413 L78.45617,34.6754575 L72.750502,34.6754575 C72.827587,35.2604777 73.0609069,35.7298704 73.4504615,36.0829474 C73.8400162,36.4360243 74.3321215,36.6129069 74.9281538,36.6129069 C75.8504211,36.6129069 76.5710283,36.2791012 77.090664,35.6108016 L78.2655223,36.9281296 C77.9069393,37.4353765 77.4217166,37.8318138 76.8077895,38.1160648 C76.1959271,38.401004 75.5159271,38.5427854 74.7712308,38.5427854" id="Fill-12" fill="#EF802E" mask="url(#mask-2)"></path>
                        <path d="M82.6798097,27.2135587 L82.6798097,29.4166761 L84.2118745,29.4166761 L84.2118745,31.1717368 L82.6798097,31.1717368 L82.6798097,35.6440445 C82.6798097,35.9750972 82.7431296,36.2132348 82.8697692,36.3563927 C82.9970972,36.4995506 83.2400526,36.5718178 83.5986356,36.5718178 C83.8636154,36.5718178 84.099,36.5518583 84.3027247,36.5133158 L84.3027247,38.3268785 C83.8340202,38.4707247 83.3508623,38.5423036 82.853251,38.5423036 C81.174587,38.5423036 80.319081,37.6950567 80.2860445,36.0005628 L80.2860445,31.1717368 L78.977664,31.1717368 L78.977664,29.4166761 L80.2860445,29.4166761 L80.2860445,27.2135587 L82.6798097,27.2135587 Z" id="Fill-13" fill="#EF802E" mask="url(#mask-2)"></path>
                        <polygon id="Fill-14" fill="#EF802E" mask="url(#mask-2)" points="93.3377773 35.1217935 94.5140121 29.4161255 96.824498 29.4161255 94.5387895 38.3765709 92.5338907 38.3765709 90.8366437 32.7369757 89.1393968 38.3765709 87.1434453 38.3765709 84.8577368 29.4161255 87.1675344 29.4161255 88.3355101 35.1142227 89.9756316 29.4161255 91.705915 29.4161255"></polygon>
                        <path d="M100.029445,33.9835506 C100.029445,34.8349271 100.189121,35.4867085 100.50985,35.93683 C100.829891,36.3876397 101.287583,36.6127004 101.883615,36.6127004 C102.464506,36.6127004 102.916692,36.3903927 103.242239,35.9450891 C103.568474,35.4997854 103.731591,34.7881255 103.731591,33.8101093 C103.731591,32.9745628 103.568474,32.3275992 103.242239,31.8685304 C102.916692,31.4094615 102.458312,31.179583 101.868474,31.179583 C101.282765,31.179583 100.829891,31.408085 100.50985,31.8644008 C100.189121,32.3207166 100.029445,33.0268704 100.029445,33.9835506 Z M97.6356802,33.8142389 C97.6356802,32.9250081 97.8070567,32.1328219 98.1498097,31.4369919 C98.4918745,30.7411619 98.984668,30.2036316 99.6281903,29.8216478 C100.271713,29.4417287 101.018474,29.251081 101.868474,29.251081 C103.077057,29.251081 104.06402,29.6206761 104.829364,30.3605547 C105.593332,31.1004332 106.020053,32.1052915 106.10815,33.3751296 L106.12398,33.9876802 C106.12398,35.3621336 105.741308,36.4647247 104.973899,37.2954534 C104.205802,38.1268704 103.176166,38.5425789 101.883615,38.5425789 C100.591753,38.5425789 99.5614291,38.128247 98.7912672,37.3002713 C98.0211053,36.4722955 97.6356802,35.3456154 97.6356802,33.9216073 L97.6356802,33.8142389 Z" id="Fill-15" fill="#EF802E" mask="url(#mask-2)"></path>
                        <path d="M112.632571,31.6610202 C112.307024,31.6162834 112.020709,31.5949474 111.771559,31.5949474 C110.866498,31.5949474 110.27253,31.9012227 109.991032,32.5137733 L109.991032,38.3770526 L107.597955,38.3770526 L107.597955,29.4166073 L109.858887,29.4166073 L109.92496,30.4847854 C110.405364,29.6616275 111.070223,29.2507368 111.921599,29.2507368 C112.186579,29.2507368 112.434352,29.2865263 112.666296,29.3581053 L112.632571,31.6610202 Z" id="Fill-16" fill="#EF802E" mask="url(#mask-2)"></path>
                        <polygon id="Fill-17" fill="#EF802E" mask="url(#mask-2)" points="117.039012 34.7826883 116.178 35.6437004 116.178 38.3767773 113.784235 38.3767773 113.784235 25.6563725 116.178 25.6563725 116.178 32.7034575 116.641887 32.1074251 118.935854 29.416332 121.809336 29.416332 118.571765 33.1515142 122.090834 38.3767773 119.341927 38.3767773"></polygon>
                        <path d="M127.697599,35.9011093 C127.697599,35.6079109 127.552377,35.3773441 127.262619,35.2094089 C126.972174,35.0407854 126.507599,34.8900567 125.867518,34.7572227 C123.73598,34.3105425 122.670555,33.4054818 122.670555,32.0413522 C122.670555,31.246413 123.000231,30.5829312 123.660271,30.0502186 C124.319623,29.5175061 125.1827,29.2504615 126.248814,29.2504615 C127.38513,29.2504615 128.295008,29.5188826 128.976385,30.0536599 C129.659138,30.5891255 129.999826,31.2849555 129.999826,32.1404615 L127.606061,32.1404615 C127.606061,31.7983968 127.495939,31.5155223 127.275008,31.2925263 C127.053389,31.0681538 126.708571,30.9566559 126.240555,30.9566559 C125.837235,30.9566559 125.525453,31.0475061 125.303834,31.230583 C125.082903,31.4115951 124.972781,31.6435385 124.972781,31.9257247 C124.972781,32.1907045 125.098045,32.404753 125.349259,32.5678704 C125.600474,32.7302996 126.023753,32.8707045 126.620474,32.9897733 C127.217194,33.1081538 127.718935,33.2423644 128.128449,33.3917166 C129.392093,33.854915 130.024603,34.6581134 130.024603,35.8013117 C130.024603,36.6182753 129.673591,37.279004 128.972943,37.7848745 C128.271607,38.2893684 127.366547,38.5426478 126.255696,38.5426478 C125.505494,38.5426478 124.839259,38.4084372 124.256304,38.1407045 C123.673348,37.8729717 123.217032,37.5061296 122.88598,37.0394899 C122.554239,36.5728502 122.389057,36.0690445 122.389057,35.5280729 L124.658247,35.5280729 C124.680271,35.9527287 124.837883,36.2789636 125.130393,36.5054008 C125.422903,36.7311498 125.815211,36.8447126 126.306628,36.8447126 C126.765008,36.8447126 127.110514,36.7579919 127.345211,36.5838623 C127.580595,36.4104211 127.697599,36.181919 127.697599,35.9011093" id="Fill-18" fill="#EF802E" mask="url(#mask-2)"></path>
                    </g>
                </g>
                <g id="img_home_azul">
                    <path d="M20.2169625,12.8100471 C22.8856893,12.8100471 25.0493097,15.0056801 25.0493097,17.7138932 C25.0493097,20.4221063 22.8856893,22.6177394 20.2169625,22.6177394 C17.5476315,22.6177394 15.3846154,20.4221063 15.3846154,17.7138932 C15.3846154,15.0056801 17.5476315,12.8100471 20.2169625,12.8100471" id="Fill-1" fill="#C6DEEE" fill-rule="nonzero"></path>
                    <path d="M20.3159911,22.6177392 C20.513299,22.6165124 20.7112233,22.6036329 20.9072978,22.5791005 C18.9872468,22.2877768 17.4981899,20.2221391 17.4981899,17.7124628 C17.4981899,15.2033999 18.9872468,13.1371488 20.9072978,12.8458252 C19.088367,12.6262592 17.2971826,13.4290858 16.2563843,14.929249 C15.2162025,16.4294123 15.0978178,18.3803605 15.9499407,19.9939867 C16.8020635,21.6082262 18.4828789,22.6183525 20.3159911,22.6177392" id="Fill-5" fill="#FEFEFE" fill-rule="nonzero"></path>
                    <g id="Group-11" transform="translate(16.765286, 0.400314)" fill="#95C5EB" fill-rule="nonzero">
                        <path d="M17.4378363,0.189144414 C19.3611653,0.189144414 20.9205552,1.79229687 20.9205552,3.76960179 C20.9205552,5.74690672 19.3611653,7.35005917 17.4378363,7.35005917 C15.5145073,7.35005917 13.9551173,5.74690672 13.9551173,3.76960179 C13.9551173,1.79229687 15.5145073,0.189144414 17.4378363,0.189144414" id="Fill-7"></path>
                        <path d="M3.50781383,30.9798245 C5.4305332,30.9798245 6.9899232,32.5829769 6.9899232,34.5602819 C6.9899232,36.5375867 5.4305332,38.1407393 3.50781383,38.1407393 C1.58448487,38.1407393 0.0250948511,36.5375867 0.0250948511,34.5602819 C0.0250948511,32.5829769 1.58448487,30.9798245 3.50781383,30.9798245" id="Fill-9"></path>
                    </g>
                    <g id="Group-16" transform="translate(16.765286, 0.400314)" fill="#C6DEEE" fill-rule="nonzero">
                        <path d="M16.2995324,0.189144414 C17.6385135,0.189144414 18.7235185,1.79229687 18.7235185,3.76960179 C18.7235185,5.74690672 17.6385135,7.35005917 16.2995324,7.35005917 C14.9611575,7.35005917 13.8755463,5.74690672 13.8755463,3.76960179 C13.8755463,1.79229687 14.9611575,0.189144414 16.2995324,0.189144414" id="Fill-12"></path>
                        <path d="M2.44874586,30.9798245 C3.78712079,30.9798245 4.87273199,32.5829769 4.87273199,34.5602819 C4.87273199,36.5375867 3.78712079,38.1407393 2.44874586,38.1407393 C1.10976476,38.1407393 0.0247597055,36.5375867 0.0247597055,34.5602819 C0.0247597055,32.5829769 1.10976476,30.9798245 2.44874586,30.9798245" id="Fill-14"></path>
                    </g>
                    <path d="M4.0433925,29.8233909 C5.9495783,29.8233909 7.49506903,31.3917486 7.49506903,33.3261381 C7.49506903,35.2605277 5.9495783,36.8288854 4.0433925,36.8288854 C2.13720671,36.8288854 0.591715976,35.2605277 0.591715976,33.3261381 C0.591715976,31.3917486 2.13720671,29.8233909 4.0433925,29.8233909" id="Fill-17" fill="#95C5EB" fill-rule="nonzero"></path>
                    <g id="Group-23" transform="translate(0.591716, 4.203297)" fill="#C6DEEE" fill-rule="nonzero">
                        <path d="M8.53058128,0.00910761833 C9.69624389,0.00910761833 10.641459,0.966655161 10.641459,2.14752649 C10.641459,3.32839783 9.69624389,4.28532156 8.53058128,4.28532156 C7.3643029,4.28532156 6.41970361,3.32839783 6.41970361,2.14752649 C6.41970361,0.966655161 7.3643029,0.00910761833 8.53058128,0.00910761833" id="Fill-19"></path>
                        <path d="M2.55023333,25.6675764 C3.91048093,25.6675764 5.01271868,27.2632812 5.01271868,29.2314 C5.01271868,31.199519 3.91048093,32.7952235 2.55023333,32.7952235 C1.19060151,32.7952235 0.0877479775,31.199519 0.0877479775,29.2314 C0.0877479775,27.2632812 1.19060151,25.6675764 2.55023333,25.6675764" id="Fill-21"></path>
                    </g>
                    <path d="M4.1124729,36.8288838 C4.32140684,36.8264291 4.52910813,36.8055627 4.73372781,36.7662851 C3.58120132,36.4735439 2.70417181,35.0472745 2.70417181,33.3227401 C2.70417181,31.5988196 3.58120132,30.1725501 4.73372781,29.8791953 C3.42280598,29.6435292 2.09092911,30.1657993 1.29278911,31.2281369 C0.49464911,32.2898608 0.3676863,33.7099932 0.96490457,34.8963008 C1.56150652,36.0819948 2.78059604,36.8301114 4.1124729,36.8288838" id="Fill-24" fill="#FEFEFE" fill-rule="nonzero"></path>
                    <path d="M20.6799964,38.0298257 C20.8888992,38.027371 21.0965696,38.0065046 21.3017751,37.967227 C20.1488039,37.6744858 19.2719049,36.2482164 19.2719049,34.523682 C19.2719049,32.7997615 20.1488039,31.3734921 21.3017751,31.0801372 C19.9904321,30.8444711 18.6587534,31.3667412 17.8607321,32.4290788 C17.0627109,33.4908027 16.935767,34.9109351 17.5328964,36.0972428 C18.1294096,37.2829367 19.3483177,38.0310533 20.6799964,38.0298257" id="Fill-26" fill="#FEFEFE" fill-rule="nonzero"></path>
                    <path d="M34.4872264,7.60596396 C34.695544,7.6035091 34.9038615,7.58264285 35.1084813,7.5433652 C33.9559548,7.25001028 33.0789252,5.82435442 33.0789252,4.09982023 C33.0789252,2.37528603 33.9559548,0.949630168 35.1084813,0.65627524 C33.7975594,0.420609356 32.4656826,0.942879321 31.6675426,2.00521694 C30.8694026,3.06694084 30.7424398,4.48707327 31.339658,5.67338097 C31.93626,6.85907495 33.1553495,7.60719138 34.4872264,7.60596396" id="Fill-28" fill="#FEFEFE" fill-rule="nonzero"></path>
                    <path d="M31.4595661,27.0211931 C32.603815,27.0211931 33.530572,27.9624127 33.530572,29.1231481 C33.530572,30.2832702 32.603815,31.2244898 31.4595661,31.2244898 C30.3159213,31.2244898 29.3885602,30.2832702 29.3885602,29.1231481 C29.3885602,27.9624127 30.3159213,27.0211931 31.4595661,27.0211931" id="Fill-30" fill="#C6DEEE" fill-rule="nonzero"></path>
                    <path d="M20.2169625,13.4354597 C17.8887437,13.4354597 16.0014474,15.350785 16.0014474,17.7135812 C16.0014474,20.0770015 17.8887437,21.9923269 20.2169625,21.9923269 C22.5451815,21.9923269 24.4324777,20.0770015 24.4324777,17.7135812 C24.4300178,15.3520332 22.5439515,13.437956 20.2169625,13.4354597 M20.2169625,23.4183673 C17.1120558,23.4183673 14.5956607,20.8646002 14.5956607,17.7135812 C14.5956607,14.5631862 17.1120558,12.0094192 20.2169625,12.0094192 C23.3212542,12.0094192 25.8382643,14.5631862 25.8382643,17.7135812 C25.8339596,20.8627279 23.3194095,23.4146228 20.2169625,23.4183673" id="Fill-32" fill="#FFFFFF" fill-rule="nonzero"></path>
                    <path d="M34.2209073,1.43435378 C32.6601323,1.43435378 31.3938199,2.71868106 31.3938199,4.30306133 C31.3938199,5.8874416 32.6601323,7.1717689 34.2209073,7.1717689 C35.7823008,7.1717689 37.0479947,5.8874416 37.0479947,4.30306133 C37.0461389,2.71930879 35.7816822,1.43560923 34.2209073,1.43435378 M34.2209073,8.60675039 C31.878817,8.60675039 29.9802761,6.67963175 29.9802761,4.30306133 C29.9802761,1.92649092 31.878817,0 34.2209073,0 C36.5629976,0 38.4615385,1.92649092 38.4615385,4.30306133 C38.4596826,6.6783763 36.5617604,8.60361177 34.2209073,8.60675039" id="Fill-34" fill="#FFFFFF" fill-rule="nonzero"></path>
                    <g id="Group-38" transform="translate(15.976331, 30.423862)">
                        <g id="Fill-36-Clipped">
                            <mask id="mask-4" fill="white">
                                <use xlink:href="#path-3"></use>
                            </mask>
                            <g id="path-1"></g>
                            <path d="M4.42268809,1.61614258 C2.85807832,1.61614258 1.5897774,2.90066891 1.5897774,4.48529478 C1.5897774,6.06992062 2.85807832,7.35507479 4.42268809,7.35507479 C5.98667793,7.35507479 7.25559876,6.06992062 7.25559876,4.48529478 C7.25373907,2.90129675 5.98605805,1.61802605 4.42268809,1.61614258 M4.42268809,8.78965088 C2.07577345,8.78965088 0.173322063,6.86223354 0.173322063,4.48529478 C0.173322063,2.10835599 2.07577345,0.18156648 4.42268809,0.18156648 C6.7696027,0.18156648 8.6720541,2.10835599 8.6720541,4.48529478 C8.66957454,6.86160573 6.76836292,8.78651178 4.42268809,8.78965088" id="Fill-36" fill="#FFFFFF" fill-rule="nonzero" mask="url(#mask-4)"></path>
                        </g>
                    </g>
                    <path d="M4.24063116,30.6572737 C2.67923757,30.6572737 1.41354372,31.941601 1.41354372,33.5259813 C1.41354372,35.1103615 2.67923757,36.3953165 4.24063116,36.3953165 C5.80202475,36.3953165 7.0677186,35.1103615 7.0677186,33.5259813 C7.06586274,31.9422287 5.80140613,30.6591568 4.24063116,30.6572737 M4.24063116,37.8296703 C1.89854078,37.8296703 0,35.9025517 0,33.5259813 C0,31.1494109 1.89854078,29.2229199 4.24063116,29.2229199 C6.58272154,29.2229199 8.48126233,31.1494109 8.48126233,33.5259813 C8.47940647,35.901924 6.58148432,37.8271594 4.24063116,37.8296703" id="Fill-39" fill="#FFFFFF" fill-rule="nonzero"></path>
                    <path d="M9.0729783,5.00392465 C8.31043724,5.00392465 7.69230769,5.63119999 7.69230769,6.40502355 C7.69230769,7.17884711 8.31043724,7.80612245 9.0729783,7.80612245 C9.83551937,7.80612245 10.4536489,7.17884711 10.4536489,6.40502355 C10.4524405,5.63119999 9.83551937,5.00453783 9.0729783,5.00392465 M9.0729783,9.20722135 C7.54789619,9.20722135 6.31163708,7.95267065 6.31163708,6.40502355 C6.31163708,4.85737645 7.54789619,3.60282575 9.0729783,3.60282575 C10.5974562,3.60282575 11.8343195,4.85737645 11.8343195,6.40502355 C11.8325068,7.95205747 10.596852,9.20599501 9.0729783,9.20722135" id="Fill-41" fill="#FFFFFF" fill-rule="nonzero"></path>
                    <path d="M31.5581854,27.6216641 C30.7956444,27.6216641 30.1775148,28.2489394 30.1775148,29.022763 C30.1775148,29.7965865 30.7956444,30.4238619 31.5581854,30.4238619 C32.3213308,30.4238619 32.938856,29.7965865 32.938856,29.022763 C32.9382519,28.2489394 32.3207264,27.6222771 31.5581854,27.6216641 M31.5581854,31.8249608 C30.0337075,31.8249608 28.7968442,30.57041 28.7968442,29.022763 C28.7968442,27.4751159 30.0337075,26.2205651 31.5581854,26.2205651 C33.0832675,26.2205651 34.3195266,27.4751159 34.3195266,29.022763 C34.3183181,30.5697969 33.0826633,31.8237344 31.5581854,31.8249608" id="Fill-43" fill="#FFFFFF" fill-rule="nonzero"></path>
                    <path d="M20.4142012,31.6248038 C20.2305949,31.6248038 20.0554442,31.5512277 19.9255911,31.420017 C19.796946,31.2881932 19.7238659,31.1103843 19.7238659,30.9239915 L19.7238659,22.5179237 C19.7238659,22.1310361 20.0330974,21.8171115 20.4142012,21.8171115 C20.7953049,21.8171115 21.1045365,22.1310361 21.1045365,22.5179237 L21.1045365,30.9239915 C21.1045365,31.1103843 21.0308525,31.2881932 20.9022073,31.420017 C20.7729582,31.5512277 20.5972036,31.6248038 20.4142012,31.6248038" id="Fill-45" fill="#FFFFFF" fill-rule="nonzero"></path>
                    <path d="M23.7739586,14.811617 C23.4918799,14.811617 23.237887,14.6393708 23.1298178,14.3748058 C23.0223594,14.1102407 23.0815836,13.8054023 23.2806262,13.6034158 L30.954754,5.81578522 C31.1305953,5.63424526 31.3888621,5.56299237 31.6306438,5.62804936 C31.8736467,5.69310634 32.0623097,5.88517933 32.127029,6.13115669 C32.1905272,6.37713403 32.1197024,6.63922075 31.9408083,6.81704316 L24.2679016,14.6046738 C24.1372418,14.7372661 23.9595688,14.811617 23.7739586,14.811617" id="Fill-47" fill="#FFFFFF" fill-rule="nonzero"></path>
                    <path d="M7.01461467,32.0251177 C6.73037126,32.0251177 6.47381391,31.8515478 6.36491544,31.5849495 C6.25663225,31.3183512 6.31631105,31.0111699 6.51749633,30.8076312 L16.3589631,20.8204954 C16.6339778,20.5464048 17.075724,20.5482779 17.3482778,20.8248658 C17.6208315,21.1014538 17.6232925,21.5497386 17.3531997,21.828824 L7.51173302,31.8165842 C7.38007049,31.9501956 7.20103406,32.0251177 7.01461467,32.0251177" id="Fill-49" fill="#FFFFFF" fill-rule="nonzero"></path>
                    <path d="M16.6575612,14.811617 C16.471383,14.811617 16.2937787,14.7370377 16.1621066,14.6040381 L9.86511799,8.21259719 C9.59626191,7.93478952 9.59809921,7.48855706 9.86940497,7.21323538 C10.1407107,6.93791368 10.5804343,6.9360492 10.8541898,7.20888491 L17.1524033,13.5997043 C17.352055,13.8023112 17.412073,14.1080861 17.3036732,14.3734639 C17.1952733,14.6388417 16.9405031,14.811617 16.6575612,14.811617" id="Fill-51" fill="#FFFFFF" fill-rule="nonzero"></path>
                    <path d="M30.0694734,28.422292 C29.8839079,28.422292 29.7056915,28.3477179 29.5746321,28.2141061 L23.277043,21.8237309 C23.0081876,21.5459426 23.0106373,21.099741 23.2819424,20.823817 C23.5532477,20.5485145 23.9929704,20.54665 24.2667254,20.8200883 L30.5643146,27.2098421 C30.7645783,27.4130564 30.8239836,27.71881 30.7161964,27.9835479 C30.6077968,28.2489074 30.3524146,28.422292 30.0694734,28.422292" id="Fill-53" fill="#FFFFFF" fill-rule="nonzero"></path>
                </g>
            </g>
        </g>
    </g>
</svg>