<?xml version="1.0" encoding="UTF-8"?>
<svg width="24px" height="21px" viewBox="0 0 24 21" version="1.1" xmlns="http://www.w3.org/2000/svg" xmlns:xlink="http://www.w3.org/1999/xlink">
    <!-- Generator: Sketch 48.1 (47250) - http://www.bohemiancoding.com/sketch -->
    <title>github-logo</title>
    <desc>Created with Sketch.</desc>
    <defs></defs>
    <g id="vertical-1_fase2" stroke="none" stroke-width="1" fill="none" fill-rule="evenodd" transform="translate(-1388.000000, -28.000000)">
        <g id="github-logo" transform="translate(1388.000000, 28.000000)" fill="#505151" fill-rule="nonzero">
            <path d="M16.1467826,11.882087 C15.2102609,11.882087 14.4506087,12.9323478 14.4506087,14.2288696 C14.4506087,15.5256522 15.2102609,16.5764348 16.1467826,16.5764348 C17.0827826,16.5764348 17.841913,15.5256522 17.841913,14.2288696 C17.8421739,12.9323478 17.0827826,11.882087 16.1467826,11.882087 Z M22.0505217,5.77356522 C22.2435652,5.29721739 22.2532174,2.59069565 21.2235652,0 C21.2235652,0 18.8608696,0.259043478 15.2861739,2.712 C14.5369565,2.50513043 13.268087,2.40156522 12,2.40156522 C10.731913,2.40156522 9.46356522,2.50486957 8.71356522,2.71173913 C5.13886957,0.259043478 2.77695652,0 2.77695652,0 C1.74704348,2.59069565 1.75617391,5.29721739 1.94947826,5.77356522 C0.739304348,7.08756522 0,8.66556522 0,10.8216522 C0,20.1952174 7.77626087,20.3454783 9.73930435,20.3454783 C10.1835652,20.3454783 11.0666087,20.3465217 12,20.3478261 C12.9333913,20.3465217 13.8169565,20.3454783 14.2606957,20.3454783 C16.2237391,20.3454783 24,20.1952174 24,10.8216522 C24,8.66556522 23.2606957,7.08756522 22.0505217,5.77356522 Z M12.0367826,19.1932174 L11.9634783,19.1932174 C7.04373913,19.1932174 3.2126087,18.6057391 3.2126087,13.8245217 C3.2126087,12.6795652 3.61669565,11.6162609 4.57669565,10.734 C6.17869565,9.26373913 8.88808696,10.0424348 11.9634783,10.0424348 C11.9752174,10.0424348 11.9877391,10.0421739 12.0002609,10.0416522 C12.0130435,10.0421739 12.0253043,10.0424348 12.0370435,10.0424348 C15.1124348,10.0424348 17.8226087,9.264 19.4238261,10.734 C20.3838261,11.6162609 20.787913,12.6795652 20.787913,13.8245217 C20.7876522,18.6057391 16.9565217,19.1932174 12.0367826,19.1932174 Z M7.85321739,11.882087 C6.91721739,11.882087 6.15808696,12.9323478 6.15808696,14.2288696 C6.15808696,15.5256522 6.91721739,16.5764348 7.85321739,16.5764348 C8.79026087,16.5764348 9.5493913,15.5256522 9.5493913,14.2288696 C9.54913043,12.9323478 8.79,11.882087 7.85321739,11.882087 Z" id="Shape"></path>
        </g>
    </g>
</svg>
