<?xml version="1.0" encoding="UTF-8"?>
<svg width="232px" height="43px" viewBox="0 0 232 43" version="1.1" xmlns="http://www.w3.org/2000/svg" xmlns:xlink="http://www.w3.org/1999/xlink">
    <!-- Generator: Sketch 49 (51002) - http://www.bohemiancoding.com/sketch -->
    <title>Group 3</title>
    <desc>Created with Sketch.</desc>
    <defs></defs>
    <g id="Diseño" stroke="none" stroke-width="1" fill="none" fill-rule="evenodd">
        <g id="logos" transform="translate(-1149.000000, -242.000000)">
            <g id="Group-3" transform="translate(1133.000000, 241.000000)">
                <text id="ikichron" font-family="Roboto-Black, Roboto" font-size="45" font-weight="700" fill="#21446D">
                    <tspan x="85" y="42">ikichron</tspan>
                </text>
                <g id="profits-(1)" transform="translate(0.000000, 1.000000)" fill-rule="nonzero">
                    <g id="Group-2">
                        <path d="M47.9347826,3.696 C51.2798419,3.696 53.8695652,6.51305706 53.8695652,10.0062078 L53.8695652,34.9089922 C53.8695652,38.4021429 51.2798419,41.2192 47.9347826,41.2192 C44.5897233,41.2192 42,38.4021429 42,34.9089922 L42,10.0062078 C42,6.51305706 44.5897233,3.696 47.9347826,3.696 Z" id="Shape" fill="#1A3554"></path>
                        <path d="M42,10.0062078 C42,6.51305706 44.8532609,3.696 48.3913043,3.696 C51.9293478,3.696 54.7826087,6.51305706 54.7826087,10.0062078 L54.7826087,34.9089922 C54.7826087,38.4021429 51.9293478,41.2192 48.3913043,41.2192" id="Shape" fill="#012037"></path>
                        <path d="M52.9216113,4.54685648 C55.4029412,7.03311706 55.4029412,10.9885316 52.9216113,13.4747922 L27.2060102,39.3545046 C24.7246803,41.8407651 20.77711,41.8407651 18.2957801,39.3545046 C15.8144501,36.868244 15.8144501,32.9128294 18.2957801,30.4265689 L44.0113811,4.65986833 C46.3799233,2.17360775 50.4402813,2.17360775 52.9216113,4.54685648 Z" id="Shape" fill="#366FB0"></path>
                        <path d="M52.9198307,4.6112 C55.4035347,7.09309831 55.4035347,11.0415729 52.9198307,13.5234712 L27.179625,39.3577763 C24.695921,41.8396746 20.7445736,41.8396746 18.2608696,39.3577763" id="Shape" fill="#21446D"></path>
                        <path d="M36.4865178,17.1373785 L18.0773747,35.6933931 C15.5956303,38.180069 11.6474005,38.180069 9.16565614,35.6933931 C6.68391172,33.2067172 6.68391172,29.2506419 9.16565614,26.763966 L27.5747992,8.32098221 C29.9437371,5.83430632 34.0047734,5.83430632 36.4865178,8.20795149 C38.9682622,10.6946274 38.9682622,14.6507027 36.4865178,17.1373785 Z" id="Shape" fill="#366FB0" transform="translate(22.826087, 22.000000) scale(-1, 1) rotate(-45.000000) translate(-22.826087, -22.000000) "></path>
                        <path d="M34.6606464,7.3568 C37.1421034,9.84609012 37.1421034,13.8063244 34.6606464,16.2956145 L16.2150341,34.8900556 C13.7335771,37.3793457 10.020363,37.1433197 7.53890605,34.6540296 L7.30434783,34.8900556 L34.6606464,7.3568 Z" id="Shape" fill="#21446D" transform="translate(21.913043, 22.000000) scale(-1, 1) rotate(-45.000000) translate(-21.913043, -22.000000) "></path>
                        <path d="M84,0.0352 L64.2684564,3.88815505 L67.7637584,7.40114347 L43.8604027,31.3121292 C41.3798658,33.8052178 41.3798658,37.771495 43.8604027,40.2645836 C46.3409396,42.7576721 50.2872483,42.7576721 52.7677852,40.2645836 L76.5583893,16.3535978 L80.0536913,19.8665863 L84,0.0352 Z" id="Shape" fill="#366FB0"></path>
                        <path d="M43.826087,40.2645836 C46.3087445,42.7576721 50.258427,42.7576721 52.7410845,40.2645836 L76.5520274,16.3535978 L80.0503175,19.8665863 L84,0.0352" id="Shape" fill="#21446D"></path>
                    </g>
                </g>
            </g>
        </g>
    </g>
</svg>