<?xml version="1.0" encoding="UTF-8"?>
<svg width="200px" height="198px" viewBox="0 0 200 198" version="1.1" xmlns="http://www.w3.org/2000/svg" xmlns:xlink="http://www.w3.org/1999/xlink">
    <!-- Generator: Sketch 48.1 (47250) - http://www.bohemiancoding.com/sketch -->
    <title>presentation</title>
    <desc>Created with Sketch.</desc>
    <defs></defs>
    <g id="vertical-1_fase2" stroke="none" stroke-width="1" fill="none" fill-rule="evenodd" transform="translate(-792.000000, -361.000000)">
        <g id="presentation" transform="translate(792.000000, 361.000000)" fill-rule="nonzero">
            <rect id="Rectangle-path" fill="#004481" x="3.33333333" y="0.666666667" width="193.333333" height="20"></rect>
            <rect id="Rectangle-path" fill="#ECF0F1" x="10" y="20.6666667" width="180" height="140"></rect>
            <rect id="Rectangle-path" fill="#49A5E6" x="30" y="120.666667" width="20" height="16.6666667"></rect>
            <rect id="Rectangle-path" fill="#49A5E6" x="60" y="120.666667" width="20" height="16.6666667"></rect>
            <rect id="Rectangle-path" fill="#49A5E6" x="90" y="120.666667" width="20" height="16.6666667"></rect>
            <rect id="Rectangle-path" fill="#49A5E6" x="120" y="120.666667" width="20" height="16.6666667"></rect>
            <rect id="Rectangle-path" fill="#49A5E6" x="150" y="120.666667" width="20" height="16.6666667"></rect>
            <rect id="Rectangle-path" fill="#8ECCF9" x="30" y="104" width="20" height="16.6666667"></rect>
            <rect id="Rectangle-path" fill="#49A5E6" x="60" y="85" width="20" height="36.6666667"></rect>
            <rect id="Rectangle-path" fill="#8ECCF9" x="90" y="64" width="20" height="56.6666667"></rect>
            <rect id="Rectangle-path" fill="#8ECCF9" x="120" y="87.3333333" width="20" height="33.3333333"></rect>
            <rect id="Rectangle-path" fill="#8ECCF9" x="150" y="44" width="20" height="76.6666667"></rect>
            <path d="M26.6666667,74 C25.8133333,74 24.96,73.6733333 24.31,73.0233333 C23.0066667,71.72 23.0066667,69.6133333 24.31,68.31 L47.6433333,44.9766667 C48.9466667,43.6733333 51.0533333,43.6733333 52.3566667,44.9766667 C53.66,46.28 53.66,48.3866667 52.3566667,49.69 L29.0233333,73.0233333 C28.3733333,73.6733333 27.52,74 26.6666667,74 Z" id="Shape" fill="#D1D4D1"></path>
            <path d="M50,67.3333333 C48.1566667,67.3333333 46.6666667,65.8433333 46.6666667,64 L46.6666667,47.3333333 C46.6666667,45.49 48.1566667,44 50,44 C51.8433333,44 53.3333333,45.49 53.3333333,47.3333333 L53.3333333,64 C53.3333333,65.8433333 51.8433333,67.3333333 50,67.3333333 Z" id="Shape" fill="#D1D4D1"></path>
            <path d="M50,50.6666667 L33.3333333,50.6666667 C31.49,50.6666667 30,49.1766667 30,47.3333333 C30,45.49 31.49,44 33.3333333,44 L50,44 C51.8433333,44 53.3333333,45.49 53.3333333,47.3333333 C53.3333333,49.1766667 51.8433333,50.6666667 50,50.6666667 Z" id="Shape" fill="#D1D4D1"></path>
            <path d="M196.666667,164 L3.33333333,164 C1.49,164 0,162.51 0,160.666667 C0,158.823333 1.49,157.333333 3.33333333,157.333333 L196.666667,157.333333 C198.51,157.333333 200,158.823333 200,160.666667 C200,162.51 198.51,164 196.666667,164 Z" id="Shape" fill="#004481"></path>
            <path d="M100,174 C98.1566667,174 96.6666667,172.51 96.6666667,170.666667 L96.6666667,160.666667 C96.6666667,158.823333 98.1566667,157.333333 100,157.333333 C101.843333,157.333333 103.333333,158.823333 103.333333,160.666667 L103.333333,170.666667 C103.333333,172.51 101.843333,174 100,174 Z" id="Shape" fill="#004481"></path>
            <path d="M100,197.333333 C92.6466667,197.333333 86.6666667,191.353333 86.6666667,184 C86.6666667,176.646667 92.6466667,170.666667 100,170.666667 C107.353333,170.666667 113.333333,176.646667 113.333333,184 C113.333333,191.353333 107.353333,197.333333 100,197.333333 Z M100,177.333333 C96.3233333,177.333333 93.3333333,180.323333 93.3333333,184 C93.3333333,187.676667 96.3233333,190.666667 100,190.666667 C103.676667,190.666667 106.666667,187.676667 106.666667,184 C106.666667,180.323333 103.676667,177.333333 100,177.333333 Z" id="Shape" fill="#004481"></path>
        </g>
    </g>
</svg>