<?xml version="1.0" encoding="UTF-8"?>
<svg width="18px" height="21px" viewBox="0 0 18 21" version="1.1" xmlns="http://www.w3.org/2000/svg" xmlns:xlink="http://www.w3.org/1999/xlink">
    <!-- Generator: Sketch 49.1 (51147) - http://www.bohemiancoding.com/sketch -->
    <title>file</title>
    <desc>Created with Sketch.</desc>
    <defs></defs>
    <g id="Diseño" stroke="none" stroke-width="1" fill="none" fill-rule="evenodd">
        <g id="vertical-2_fase2" transform="translate(-1319.000000, -98.000000)" fill="#505151" fill-rule="nonzero">
            <g id="file" transform="translate(1319.792276, 98.000000)">
                <path d="M16.043737,2.37620042 L15.4299582,2.37620042 L15.4299582,17.4554499 C15.4299582,18.4572025 14.6145094,19.2726294 13.6127568,19.2726294 L7.39384134,19.2726294 L2.44853862,19.2726294 L2.44853862,19.8316065 C2.44853862,20.4717119 2.96805846,20.9912098 3.60814196,20.9912098 L9.82484342,20.9912098 L16.0415449,20.9912098 C16.6816284,20.9912098 17.2011263,20.4717119 17.2011263,19.8316065 L17.2011263,3.53580376 C17.2011482,2.89572025 16.6838205,2.37620042 16.043737,2.37620042 Z" id="Shape"></path>
                <path d="M7.39384134,18.6150094 L13.6105428,18.6150094 C14.2506263,18.6150094 14.7701461,18.0955115 14.7701461,17.4554499 L14.7701461,2.37620042 L14.7701461,1.15960334 C14.7701461,0.519519833 14.2506263,0 13.6105428,0 L7.39384134,0 L5.32672234,0 L5.32672234,0.383611691 C5.33108455,0.423068894 5.33329854,0.464718163 5.33329854,0.506367432 L5.33329854,3.03382046 L5.33329854,3.68267223 C5.33329854,4.58361169 4.60114823,5.315762 3.70020877,5.315762 L3.05135699,5.315762 L0.523903967,5.315762 C0.491022965,5.315762 0.455949896,5.31356994 0.423068894,5.31137787 L0.0197286013,5.31137787 L0.0197286013,17.4554499 C0.0197286013,18.0955115 0.539248434,18.6150094 1.17933194,18.6150094 L2.45073069,18.6150094 L7.39384134,18.6150094 Z M7.62839248,14.6736952 L3.57526096,14.6736952 C3.27275574,14.6736952 3.02724426,14.4281618 3.02724426,14.1256785 C3.02724426,13.8231514 3.27275574,13.5776618 3.57526096,13.5776618 L7.63058455,13.5776618 C7.93308977,13.5776618 8.17860125,13.8231514 8.17860125,14.1256785 C8.17860125,14.4281618 7.9308977,14.6736952 7.62839248,14.6736952 Z M11.6837161,11.8766399 L3.57526096,11.8766399 C3.27275574,11.8766399 3.02724426,11.6311065 3.02724426,11.3286232 C3.02724426,11.026096 3.27275574,10.7806065 3.57526096,10.7806065 L11.6837161,10.7806065 C11.9862213,10.7806065 12.2317328,11.026096 12.2317328,11.3286232 C12.2317328,11.6311065 11.9862213,11.8766399 11.6837161,11.8766399 Z M3.57526096,7.81033403 L11.6837161,7.81033403 C11.9862213,7.81033403 12.2317328,8.05584551 12.2317328,8.35835073 C12.2317328,8.66085595 11.9862213,8.90636743 11.6837161,8.90636743 L3.57526096,8.90636743 C3.27275574,8.90636743 3.02724426,8.66085595 3.02724426,8.35835073 C3.02724426,8.05584551 3.27275574,7.81033403 3.57526096,7.81033403 Z" id="Shape"></path>
                <path d="M0.523903967,4.65814196 L3.70020877,4.65814196 C3.70240084,4.65814196 3.70678497,4.65814196 3.70897704,4.65814196 C4.2394572,4.65375783 4.6691023,4.22411273 4.67348643,3.69363257 C4.67348643,3.6914405 4.67348643,3.68705637 4.67348643,3.6848643 L4.67348643,0.506367432 C4.67348643,0.21263048 4.43235908,0.0175365344 4.18248539,0.0175365344 C4.06192171,0.0175365344 3.94135804,0.0613778706 3.84052296,0.162212944 L0.177557411,3.82515658 C-0.129331942,4.13204593 0.0876826722,4.65814196 0.523903967,4.65814196 Z" id="Shape"></path>
            </g>
        </g>
    </g>
</svg>