<?xml version="1.0" encoding="UTF-8"?>
<svg width="246px" height="63px" viewBox="0 0 246 63" version="1.1" xmlns="http://www.w3.org/2000/svg" xmlns:xlink="http://www.w3.org/1999/xlink">
    <!-- Generator: Sketch 51.3 (57544) - http://www.bohemiancoding.com/sketch -->
    <title>Artboard 3</title>
    <desc>Created with Sketch.</desc>
    <defs>
        <polygon id="path-1" points="0.484 0.449 188.941 0.449 188.941 56 0.484 56"></polygon>
    </defs>
    <g id="Artboard-3" stroke="none" stroke-width="1" fill="none" fill-rule="evenodd">
        <g id="Group-20" transform="translate(5.000000, 2.000000)">
            <polygon id="Fill-1" fill="#22446D" points="35.0091 3.069 31.0941 22.509 26.7281 3.069 17.8641 3.069 13.9941 22.284 10.3041 3.069 0.0001 3.069 7.4701 35.243 17.6401 35.243 22.1851 16.029 26.6831 35.243 36.9881 35.243 44.4581 3.069"></polygon>
            <g id="Group-19" transform="translate(46.000000, 0.550600)">
                <mask id="mask-2" fill="white">
                    <use xlink:href="#path-1"></use>
                </mask>
                <g id="Clip-3"></g>
                <path d="M0.89,34.692 L9.709,34.692 L9.709,11.158 L0.89,11.158 L0.89,34.692 Z M0.484,4.948 C0.484,2.339 2.554,0.449 5.3,0.449 C7.999,0.449 10.069,2.339 10.069,4.948 C10.069,7.514 7.999,9.403 5.3,9.403 C2.554,9.403 0.484,7.514 0.484,4.948 Z" id="Fill-2" fill="#22446D" mask="url(#mask-2)"></path>
                <polygon id="Fill-4" fill="#22446D" mask="url(#mask-2)" points="14.2539 0.9435 23.1179 0.9435 23.1179 20.0685 28.8329 11.1585 37.9229 11.1585 30.6789 21.6875 38.5089 34.6925 28.6979 34.6925 23.1179 24.8825 23.1179 34.6925 14.2539 34.6925"></polygon>
                <path d="M41.028,34.692 L49.848,34.692 L49.848,11.158 L41.028,11.158 L41.028,34.692 Z M40.624,4.948 C40.624,2.339 42.693,0.449 45.438,0.449 C48.138,0.449 50.208,2.339 50.208,4.948 C50.208,7.514 48.138,9.403 45.438,9.403 C42.693,9.403 40.624,7.514 40.624,4.948 Z" id="Fill-5" fill="#22446D" mask="url(#mask-2)"></path>
                <path d="M53.5381,18.8078 L53.5381,18.4488 C53.5381,8.5038 60.6921,2.0238 70.1871,2.0238 C78.8721,2.0238 84.7221,5.9838 85.4871,14.7128 L74.9581,14.7128 C74.6421,11.7438 73.0671,10.0788 70.2321,10.0788 C66.5431,10.0788 64.2931,12.9578 64.2931,18.4038 L64.2931,18.7628 C64.2931,24.1188 66.4521,27.0878 70.4131,27.0878 C73.2921,27.0878 75.3621,25.6028 75.7221,22.3638 L85.8921,22.3638 C85.3521,30.8228 79.1421,35.2778 70.6381,35.2778 C59.0281,35.2778 53.5381,28.6628 53.5381,18.8078" id="Fill-6" fill="#4B8FCC" mask="url(#mask-2)"></path>
                <path d="M88.7725,0.9435 L97.6375,0.9435 L97.6375,14.9385 C98.9425,12.4635 101.4615,10.5285 105.4225,10.5285 C109.8775,10.5285 112.9815,13.3635 112.9815,19.2135 L112.9815,34.6925 L104.1185,34.6925 L104.1185,21.1935 C104.1185,18.8075 103.2625,17.5925 101.1475,17.5925 C98.9425,17.5925 97.6375,18.8985 97.6375,21.6875 L97.6375,34.6925 L88.7725,34.6925 L88.7725,0.9435 Z" id="Fill-7" fill="#4B8FCC" mask="url(#mask-2)"></path>
                <path d="M117.0772,11.1583 L125.9422,11.1583 L125.9422,15.9283 C127.4272,12.2833 129.9922,10.7993 133.5022,10.8443 L133.5022,19.1233 C128.5972,18.8523 125.9422,20.4723 125.9422,23.8473 L125.9422,34.6923 L117.0772,34.6923 L117.0772,11.1583 Z" id="Fill-8" fill="#4B8FCC" mask="url(#mask-2)"></path>
                <path d="M152.627,23.0382 L152.627,22.7232 C152.627,19.0332 151.322,17.0532 148.577,17.0532 C145.878,17.0532 144.393,18.8982 144.393,22.5882 L144.393,22.9482 C144.393,26.7722 145.742,28.7532 148.577,28.7532 C151.276,28.7532 152.627,26.7722 152.627,23.0382 M135.438,23.2182 L135.438,22.8572 C135.438,15.2082 141.152,10.5282 148.577,10.5282 C155.912,10.5282 161.626,15.0732 161.626,22.6332 L161.626,22.9932 C161.626,30.7322 155.866,35.2772 148.532,35.2772 C141.197,35.2772 135.438,30.9582 135.438,23.2182" id="Fill-9" fill="#4B8FCC" mask="url(#mask-2)"></path>
                <path d="M164.7324,11.1583 L173.5964,11.1583 L173.5964,14.9383 C174.9024,12.4633 177.4214,10.5283 181.3814,10.5283 C185.8364,10.5283 188.9414,13.3633 188.9414,19.2133 L188.9414,34.6923 L180.0774,34.6923 L180.0774,21.1933 C180.0774,18.8073 179.2214,17.5933 177.1064,17.5933 C174.9024,17.5933 173.5964,18.8983 173.5964,21.6873 L173.5964,34.6923 L164.7324,34.6923 L164.7324,11.1583 Z" id="Fill-10" fill="#4B8FCC" mask="url(#mask-2)"></path>
                <path d="M92.0449,42.7404 L92.1529,44.2434 C93.0829,43.0814 94.3299,42.4994 95.8959,42.4994 C97.2739,42.4994 98.3019,42.9044 98.9759,43.7144 C99.6489,44.5254 99.9939,45.7364 100.0099,47.3494 L100.0099,55.7594 L96.5329,55.7594 L96.5329,47.4324 C96.5329,46.6954 96.3729,46.1594 96.0519,45.8264 C95.7309,45.4944 95.1969,45.3274 94.4519,45.3274 C93.4729,45.3274 92.7389,45.7444 92.2489,46.5794 L92.2489,55.7594 L88.7729,55.7594 L88.7729,42.7404 L92.0449,42.7404 Z" id="Fill-11" fill="#EF802E" mask="url(#mask-2)"></path>
                <path d="M108.2412,45.3024 C107.5522,45.3024 106.9912,45.5374 106.5622,46.0044 C106.1342,46.4714 105.8582,47.1394 105.7382,48.0104 L110.5752,48.0104 L110.5752,47.7324 C110.5592,46.9594 110.3502,46.3604 109.9492,45.9374 C109.5492,45.5144 108.9782,45.3024 108.2412,45.3024 M108.6382,56.0004 C106.7292,56.0004 105.1742,55.4144 103.9752,54.2434 C102.7762,53.0724 102.1772,51.5114 102.1772,49.5634 L102.1772,49.2264 C102.1772,47.9184 102.4292,46.7484 102.9342,45.7184 C103.4402,44.6874 104.1562,43.8934 105.0822,43.3354 C106.0092,42.7784 107.0662,42.4994 108.2542,42.4994 C110.0342,42.4994 111.4352,43.0614 112.4592,44.1844 C113.4802,45.3064 113.9922,46.8994 113.9922,48.9604 L113.9922,50.3814 L105.7022,50.3814 C105.8142,51.2314 106.1532,51.9134 106.7192,52.4264 C107.2852,52.9394 108.0002,53.1964 108.8662,53.1964 C110.2062,53.1964 111.2532,52.7114 112.0082,51.7404 L113.7152,53.6544 C113.1942,54.3914 112.4892,54.9674 111.5972,55.3804 C110.7082,55.7944 109.7202,56.0004 108.6382,56.0004" id="Fill-12" fill="#EF802E" mask="url(#mask-2)"></path>
                <path d="M120.1289,39.5397 L120.1289,42.7407 L122.3549,42.7407 L122.3549,45.2907 L120.1289,45.2907 L120.1289,51.7887 C120.1289,52.2697 120.2209,52.6157 120.4049,52.8237 C120.5899,53.0317 120.9429,53.1367 121.4639,53.1367 C121.8489,53.1367 122.1909,53.1077 122.4869,53.0517 L122.4869,55.6867 C121.8059,55.8957 121.1039,55.9997 120.3809,55.9997 C117.9419,55.9997 116.6989,54.7687 116.6509,52.3067 L116.6509,45.2907 L114.7499,45.2907 L114.7499,42.7407 L116.6509,42.7407 L116.6509,39.5397 L120.1289,39.5397 Z" id="Fill-13" fill="#EF802E" mask="url(#mask-2)"></path>
                <polygon id="Fill-14" fill="#EF802E" mask="url(#mask-2)" points="135.6143 51.0299 137.3233 42.7399 140.6803 42.7399 137.3593 55.7589 134.4463 55.7589 131.9803 47.5649 129.5143 55.7589 126.6143 55.7589 123.2933 42.7399 126.6493 42.7399 128.3463 51.0189 130.7293 42.7399 133.2433 42.7399"></polygon>
                <path d="M145.3369,49.3761 C145.3369,50.6131 145.5689,51.5601 146.0349,52.2141 C146.4999,52.8691 147.1649,53.1961 148.0309,53.1961 C148.8749,53.1961 149.5319,52.8731 150.0049,52.2261 C150.4789,51.5791 150.7159,50.5451 150.7159,49.1241 C150.7159,47.9101 150.4789,46.9701 150.0049,46.3031 C149.5319,45.6361 148.8659,45.3021 148.0089,45.3021 C147.1579,45.3021 146.4999,45.6341 146.0349,46.2971 C145.5689,46.9601 145.3369,47.9861 145.3369,49.3761 Z M141.8589,49.1301 C141.8589,47.8381 142.1079,46.6871 142.6059,45.6761 C143.1029,44.6651 143.8189,43.8841 144.7539,43.3291 C145.6889,42.7771 146.7739,42.5001 148.0089,42.5001 C149.7649,42.5001 151.1989,43.0371 152.3109,44.1121 C153.4209,45.1871 154.0409,46.6471 154.1689,48.4921 L154.1919,49.3821 C154.1919,51.3791 153.6359,52.9811 152.5209,54.1881 C151.4049,55.3961 149.9089,56.0001 148.0309,56.0001 C146.1539,56.0001 144.6569,55.3981 143.5379,54.1951 C142.4189,52.9921 141.8589,51.3551 141.8589,49.2861 L141.8589,49.1301 Z" id="Fill-15" fill="#EF802E" mask="url(#mask-2)"></path>
                <path d="M163.6485,46.0016 C163.1755,45.9366 162.7595,45.9056 162.3975,45.9056 C161.0825,45.9056 160.2195,46.3506 159.8105,47.2406 L159.8105,55.7596 L156.3335,55.7596 L156.3335,42.7406 L159.6185,42.7406 L159.7145,44.2926 C160.4125,43.0966 161.3785,42.4996 162.6155,42.4996 C163.0005,42.4996 163.3605,42.5516 163.6975,42.6556 L163.6485,46.0016 Z" id="Fill-16" fill="#EF802E" mask="url(#mask-2)"></path>
                <polygon id="Fill-17" fill="#EF802E" mask="url(#mask-2)" points="170.0508 50.5372 168.7998 51.7882 168.7998 55.7592 165.3218 55.7592 165.3218 37.2772 168.7998 37.2772 168.7998 47.5162 169.4738 46.6502 172.8068 42.7402 176.9818 42.7402 172.2778 48.1672 177.3908 55.7592 173.3968 55.7592"></polygon>
                <path d="M185.5371,52.1622 C185.5371,51.7362 185.3261,51.4012 184.9051,51.1572 C184.4831,50.9122 183.8081,50.6932 182.8781,50.5002 C179.7811,49.8512 178.2331,48.5362 178.2331,46.5542 C178.2331,45.3992 178.7121,44.4352 179.6711,43.6612 C180.6291,42.8872 181.8831,42.4992 183.4321,42.4992 C185.0831,42.4992 186.4051,42.8892 187.3951,43.6662 C188.3871,44.4442 188.8821,45.4552 188.8821,46.6982 L185.4041,46.6982 C185.4041,46.2012 185.2441,45.7902 184.9231,45.4662 C184.6011,45.1402 184.1001,44.9782 183.4201,44.9782 C182.8341,44.9782 182.3811,45.1102 182.0591,45.3762 C181.7381,45.6392 181.5781,45.9762 181.5781,46.3862 C181.5781,46.7712 181.7601,47.0822 182.1251,47.3192 C182.4901,47.5552 183.1051,47.7592 183.9721,47.9322 C184.8391,48.1042 185.5681,48.2992 186.1631,48.5162 C187.9991,49.1892 188.9181,50.3562 188.9181,52.0172 C188.9181,53.2042 188.4081,54.1642 187.3901,54.8992 C186.3711,55.6322 185.0561,56.0002 183.4421,56.0002 C182.3521,56.0002 181.3841,55.8052 180.5371,55.4162 C179.6901,55.0272 179.0271,54.4942 178.5461,53.8162 C178.0641,53.1382 177.8241,52.4062 177.8241,51.6202 L181.1211,51.6202 C181.1531,52.2372 181.3821,52.7112 181.8071,53.0402 C182.2321,53.3682 182.8021,53.5332 183.5161,53.5332 C184.1821,53.5332 184.6841,53.4072 185.0251,53.1542 C185.3671,52.9022 185.5371,52.5702 185.5371,52.1622" id="Fill-18" fill="#EF802E" mask="url(#mask-2)"></path>
            </g>
        </g>
    </g>
</svg>