<?xml version="1.0" encoding="UTF-8"?>
<svg width="167px" height="39px" viewBox="0 0 167 39" version="1.1" xmlns="http://www.w3.org/2000/svg" xmlns:xlink="http://www.w3.org/1999/xlink">
    <!-- Generator: Sketch 51.3 (57544) - http://www.bohemiancoding.com/sketch -->
    <title>logo-mono</title>
    <desc>Created with Sketch.</desc>
    <defs></defs>
    <g id="Diseño" stroke="none" stroke-width="1" fill="none" fill-rule="evenodd">
        <g id="Artboard-2" transform="translate(-77.000000, -17.000000)">
            <g id="logo-mono" transform="translate(77.000000, 17.000000)">
                <g id="Group-33" transform="translate(32.000000, 4.000000)" fill="#FFFFFF">
                    <polygon id="Fill-15" points="20.715375 1.619025 18.481875 12.712275 15.991125 1.619025 10.931625 1.619025 8.724375 12.584775 6.618375 1.619025 0.738375 1.619025 5.000625 19.979025 10.804125 19.979025 13.397625 9.014025 15.965625 19.979025 21.845625 19.979025 26.107875 1.619025"></polygon>
                    <g id="Group-32" transform="translate(27.000000, 0.063150)">
                        <path d="M0.263925,2.942325 C0.263925,1.453575 1.445175,0.375075 3.012675,0.375075 C4.552425,0.375075 5.733675,1.453575 5.733675,2.942325 C5.733675,4.406325 4.552425,5.484825 3.012675,5.484825 C1.445175,5.484825 0.263925,4.406325 0.263925,2.942325 Z M0.495675,19.915575 L5.528175,19.915575 L5.528175,6.486075 L0.495675,6.486075 L0.495675,19.915575 Z" id="Fill-16"></path>
                        <polygon id="Fill-18" points="8.12205 0.657225 13.18005 0.657225 13.18005 11.570475 16.4418 6.486225 21.6288 6.486225 17.4948 12.495225 21.9633 19.915725 16.36455 19.915725 13.18005 14.317725 13.18005 19.915725 8.12205 19.915725"></polygon>
                        <path d="M23.169675,2.942325 C23.169675,1.453575 24.350175,0.375075 25.917675,0.375075 C27.458175,0.375075 28.639425,1.453575 28.639425,2.942325 C28.639425,4.406325 27.458175,5.484825 25.917675,5.484825 C24.350175,5.484825 23.169675,4.406325 23.169675,2.942325 Z M23.400675,19.915575 L28.433925,19.915575 L28.433925,6.486075 L23.400675,6.486075 L23.400675,19.915575 Z" id="Fill-20"></path>
                        <path d="M30.539325,10.851375 L30.539325,10.646625 C30.539325,4.971375 34.621575,1.273125 40.040325,1.273125 C44.996325,1.273125 48.335325,3.533625 48.771825,8.514375 L42.762825,8.514375 C42.582825,6.820125 41.683575,5.869875 40.065825,5.869875 C37.961325,5.869875 36.677325,7.513125 36.677325,10.620375 L36.677325,10.825875 C36.677325,13.882125 37.908825,15.576375 40.169325,15.576375 C41.811825,15.576375 42.993075,14.728875 43.198575,12.880875 L49.002075,12.880875 C48.694575,17.707875 45.150075,20.249625 40.297575,20.249625 C33.672825,20.249625 30.539325,16.474875 30.539325,10.851375" id="Fill-22"></path>
                        <path d="M50.6457,0.657225 L55.70445,0.657225 L55.70445,8.643225 C56.4492,7.230975 57.88695,6.126975 60.14745,6.126975 C62.68995,6.126975 64.4607,7.744725 64.4607,11.082975 L64.4607,19.915725 L59.40345,19.915725 L59.40345,12.213225 C59.40345,10.851225 58.91445,10.157475 57.7077,10.157475 C56.4492,10.157475 55.70445,10.903725 55.70445,12.495225 L55.70445,19.915725 L50.6457,19.915725 L50.6457,0.657225 Z" id="Fill-24"></path>
                        <path d="M66.79785,6.48615 L71.8566,6.48615 L71.8566,9.20865 C72.7041,7.12815 74.1681,6.2814 76.17135,6.3069 L76.17135,11.0319 C73.37235,10.87665 71.8566,11.8014 71.8566,13.72665 L71.8566,19.91565 L66.79785,19.91565 L66.79785,6.48615 Z" id="Fill-26"></path>
                        <path d="M77.275875,13.368 L77.275875,13.1625 C77.275875,8.79675 80.536875,6.12675 84.773625,6.12675 C88.959375,6.12675 92.220375,8.72025 92.220375,13.03425 L92.220375,13.23975 C92.220375,17.6565 88.933125,20.25 84.748125,20.25 C80.562375,20.25 77.275875,17.7855 77.275875,13.368 M87.084375,13.26525 L87.084375,13.086 C87.084375,10.98 86.340375,9.8505 84.773625,9.8505 C83.233125,9.8505 82.385625,10.90275 82.385625,13.00875 L82.385625,13.21425 C82.385625,15.396 83.155875,16.527 84.773625,16.527 C86.314125,16.527 87.084375,15.396 87.084375,13.26525" id="Fill-28"></path>
                        <path d="M93.992625,6.48615 L99.050625,6.48615 L99.050625,8.64315 C99.796125,7.2309 101.233875,6.1269 103.493625,6.1269 C106.036125,6.1269 107.807625,7.74465 107.807625,11.0829 L107.807625,19.91565 L102.749625,19.91565 L102.749625,12.21315 C102.749625,10.85115 102.260625,10.15815 101.053875,10.15815 C99.796125,10.15815 99.050625,10.90365 99.050625,12.49515 L99.050625,19.91565 L93.992625,19.91565 L93.992625,6.48615 Z" id="Fill-30"></path>
                    </g>
                </g>
                <path d="M129.46875,30.15625 L129.554688,31.1484375 C130.153649,30.3828087 130.958328,30 131.96875,30 C133.036464,30 133.757811,30.4244749 134.132812,31.2734375 C134.705732,30.4244749 135.533849,30 136.617188,30 C138.330738,30 139.210937,31.036448 139.257812,33.109375 L139.257812,38.609375 L136.617188,38.609375 L136.617188,33.2734375 C136.617188,32.8411437 136.544272,32.5260427 136.398438,32.328125 C136.252603,32.1302073 135.986981,32.03125 135.601562,32.03125 C135.080727,32.03125 134.69271,32.2630185 134.4375,32.7265625 L134.445312,32.8359375 L134.445312,38.609375 L131.804688,38.609375 L131.804688,33.2890625 C131.804688,32.846352 131.734376,32.5260427 131.59375,32.328125 C131.453124,32.1302073 131.184898,32.03125 130.789062,32.03125 C130.283852,32.03125 129.898439,32.2630185 129.632812,32.7265625 L129.632812,38.609375 L127,38.609375 L127,30.15625 L129.46875,30.15625 Z M140.429688,34.3046875 C140.429688,33.4609333 140.593748,32.7096387 140.921875,32.0507812 C141.250002,31.3919238 141.721351,30.8854184 142.335938,30.53125 C142.950524,30.1770816 143.671871,30 144.5,30 C145.765631,30 146.763017,30.3919232 147.492188,31.1757812 C148.221358,31.9596393 148.585938,33.0260349 148.585938,34.375 L148.585938,34.46875 C148.585938,35.7864649 148.220056,36.8320274 147.488281,37.6054688 C146.756507,38.3789101 145.765631,38.765625 144.515625,38.765625 C143.312494,38.765625 142.346358,38.4049515 141.617188,37.6835938 C140.888017,36.962236 140.494792,35.9843812 140.4375,34.75 L140.429688,34.3046875 Z M143.0625,34.46875 C143.0625,35.2500039 143.184895,35.8229148 143.429688,36.1875 C143.67448,36.5520852 144.036456,36.734375 144.515625,36.734375 C145.45313,36.734375 145.932292,36.013028 145.953125,34.5703125 L145.953125,34.3046875 C145.953125,32.7890549 145.468755,32.03125 144.5,32.03125 C143.619787,32.03125 143.14323,32.6848893 143.070312,33.9921875 L143.0625,34.46875 Z M152.164062,30.15625 L152.25,31.1484375 C152.833336,30.3828087 153.638016,30 154.664062,30 C155.544275,30 156.201821,30.2630182 156.636719,30.7890625 C157.071617,31.3151068 157.296875,32.1067655 157.3125,33.1640625 L157.3125,38.609375 L154.671875,38.609375 L154.671875,33.2734375 C154.671875,32.846352 154.585938,32.5325531 154.414062,32.3320312 C154.242187,32.1315094 153.92969,32.03125 153.476562,32.03125 C152.960935,32.03125 152.578126,32.234373 152.328125,32.640625 L152.328125,38.609375 L149.695312,38.609375 L149.695312,30.15625 L152.164062,30.15625 Z M158.4375,34.3046875 C158.4375,33.4609333 158.601561,32.7096387 158.929688,32.0507812 C159.257814,31.3919238 159.729164,30.8854184 160.34375,30.53125 C160.958336,30.1770816 161.679683,30 162.507812,30 C163.773444,30 164.77083,30.3919232 165.5,31.1757812 C166.22917,31.9596393 166.59375,33.0260349 166.59375,34.375 L166.59375,34.46875 C166.59375,35.7864649 166.227868,36.8320274 165.496094,37.6054688 C164.764319,38.3789101 163.773444,38.765625 162.523438,38.765625 C161.320306,38.765625 160.35417,38.4049515 159.625,37.6835938 C158.89583,36.962236 158.502604,35.9843812 158.445312,34.75 L158.4375,34.3046875 Z M161.070312,34.46875 C161.070312,35.2500039 161.192707,35.8229148 161.4375,36.1875 C161.682293,36.5520852 162.044268,36.734375 162.523438,36.734375 C163.460942,36.734375 163.940104,36.013028 163.960938,34.5703125 L163.960938,34.3046875 C163.960938,32.7890549 163.476567,32.03125 162.507812,32.03125 C161.6276,32.03125 161.151042,32.6848893 161.078125,33.9921875 L161.070312,34.46875 Z" id="mono" fill="#B8E986"></path>
                <g id="stats-1" fill-rule="nonzero">
                    <rect id="XMLID_1450_" fill="#558B1A" x="0.618131868" y="18.2694048" width="5.21978022" height="6.0895696"></rect>
                    <rect id="XMLID_1451_" fill="#7BC62E" x="0.618131868" y="9.56959707" width="5.21978022" height="8.6996337"></rect>
                    <rect id="XMLID_1452_" fill="#B8E986" x="0.618131868" y="3.47985348" width="5.21978022" height="6.08974359"></rect>
                    <rect id="XMLID_1453_" fill="#558B1A" x="8.4478022" y="15.6593407" width="5.21978022" height="8.6996337"></rect>
                    <rect id="XMLID_1454_" fill="#7BC62E" x="8.4478022" y="6.08974359" width="5.21978022" height="9.56959707"></rect>
                    <rect id="XMLID_1455_" fill="#B8E986" x="8.4478022" y="0" width="5.21978022" height="6.08974359"></rect>
                    <rect id="XMLID_1456_" fill="#558B1A" x="16.2774725" y="18.2694048" width="5.21978022" height="6.0895696"></rect>
                    <rect id="XMLID_1457_" fill="#7BC62E" x="16.2774725" y="12.1794872" width="5.21978022" height="6.08974359"></rect>
                    <rect id="XMLID_1458_" fill="#B8E986" x="16.2774725" y="3.48002747" width="5.21978022" height="8.69945971"></rect>
                </g>
            </g>
        </g>
    </g>
</svg>