<?xml version="1.0" encoding="UTF-8"?>
<svg width="187px" height="46px" viewBox="0 0 187 46" version="1.1" xmlns="http://www.w3.org/2000/svg" xmlns:xlink="http://www.w3.org/1999/xlink">
    <!-- Generator: Sketch 51.3 (57544) - http://www.bohemiancoding.com/sketch -->
    <title>wikichron-mono-big</title>
    <desc>Created with Sketch.</desc>
    <defs></defs>
    <g id="Diseño" stroke="none" stroke-width="1" fill="none" fill-rule="evenodd">
        <g id="home_previa_op2" transform="translate(-935.000000, -416.000000)">
            <g id="Group-2" transform="translate(287.000000, 300.000000)">
                <g id="classic" transform="translate(616.000000, 0.000000)">
                    <g id="wikichron-mono-big" transform="translate(31.545741, 115.930599)">
                        <polygon id="Fill-14" fill="#22446D" points="0.52373817 2.39518927 8.64992114 2.39518927 11.5600158 17.5489748 14.6120662 2.39518927 21.6033912 2.39518927 25.0458202 17.7256309 28.1333596 2.39518927 35.5852524 2.39518927 29.6940852 27.7690063 21.5679022 27.7690063 18.019795 12.6160095 14.4354101 27.7690063 6.41490536 27.7690063"></polygon>
                        <path d="M37.5031546,27.7688486 L44.4582019,27.7688486 L44.4582019,9.20891167 L37.5031546,9.20891167 L37.5031546,27.7688486 Z M37.1829653,4.31143533 C37.1829653,2.25386435 38.8154574,0.763328076 40.9810726,0.763328076 C43.1096215,0.763328076 44.7421136,2.25386435 44.7421136,4.31143533 C44.7421136,6.33430599 43.1096215,7.82484227 40.9810726,7.82484227 C38.8154574,7.82484227 37.1829653,6.33430599 37.1829653,4.31143533 Z" id="Fill-16" fill="#22446D"></path>
                        <polygon id="Fill-18" fill="#22446D" points="48.0425868 1.15291798 55.033123 1.15291798 55.033123 16.2357256 59.5402208 9.20891167 66.7089905 9.20891167 60.9960568 17.5125394 67.1711356 27.7688486 59.4337539 27.7688486 55.033123 20.0322555 55.033123 27.7688486 48.0425868 27.7688486"></polygon>
                        <path d="M69.1577287,27.7688486 L76.1135647,27.7688486 L76.1135647,9.20891167 L69.1577287,9.20891167 L69.1577287,27.7688486 Z M68.8391167,4.31143533 C68.8391167,2.25386435 70.4708202,0.763328076 72.6364353,0.763328076 C74.7649842,0.763328076 76.3974763,2.25386435 76.3974763,4.31143533 C76.3974763,6.33430599 74.7649842,7.82484227 72.6364353,7.82484227 C70.4708202,7.82484227 68.8391167,6.33430599 68.8391167,4.31143533 Z" id="Fill-19" fill="#22446D"></path>
                        <path d="M79.0237382,15.2414826 L79.0237382,14.9583596 C79.0237382,7.11529968 84.665694,2.00488959 92.1538644,2.00488959 C99.0032334,2.00488959 103.616798,5.12791798 104.22011,12.0119874 L95.9164826,12.0119874 C95.6672713,9.67050473 94.4251577,8.35741325 92.1893533,8.35741325 C89.2800473,8.35741325 87.5055994,10.627918 87.5055994,14.9228707 L87.5055994,15.2059937 C87.5055994,19.4299685 89.2082808,21.7714511 92.3320978,21.7714511 C94.6026025,21.7714511 96.2350946,20.6003155 96.5190063,18.0458991 L104.539511,18.0458991 C104.113644,24.7170347 99.2161672,28.2304416 92.5095426,28.2304416 C83.3533912,28.2304416 79.0237382,23.0135647 79.0237382,15.2414826" id="Fill-20" fill="#4B8FCC"></path>
                        <path d="M106.81112,1.15291798 L113.802445,1.15291798 L113.802445,12.1899842 C114.831625,10.2380915 116.818218,8.71206625 119.942035,8.71206625 C123.455442,8.71206625 125.903391,10.9478707 125.903391,15.5614353 L125.903391,27.7688486 L118.913644,27.7688486 L118.913644,17.1229495 C118.913644,15.2412461 118.238565,14.2830442 116.570584,14.2830442 C114.831625,14.2830442 113.802445,15.3130126 113.802445,17.5125394 L113.802445,27.7688486 L106.81112,27.7688486 L106.81112,1.15291798 Z" id="Fill-21" fill="#4B8FCC"></path>
                        <path d="M129.133438,9.20883281 L136.124763,9.20883281 L136.124763,12.9706625 C137.295899,10.0960568 139.31877,8.92570978 142.086909,8.96119874 L142.086909,15.4903785 C138.218612,15.2766562 136.124763,16.5542587 136.124763,19.2159306 L136.124763,27.7687697 L129.133438,27.7687697 L129.133438,9.20883281 Z" id="Fill-22" fill="#4B8FCC"></path>
                        <path d="M157.169558,18.5777603 L157.169558,18.3293375 C157.169558,15.4192429 156.140379,13.8577287 153.975552,13.8577287 C151.847003,13.8577287 150.675868,15.312776 150.675868,18.2228707 L150.675868,18.5067823 C150.675868,21.5225552 151.739748,23.084858 153.975552,23.084858 C156.104101,23.084858 157.169558,21.5225552 157.169558,18.5777603 M143.613565,18.7197161 L143.613565,18.4350158 C143.613565,12.4026814 148.119874,8.71182965 153.975552,8.71182965 C159.760252,8.71182965 164.266562,12.2962145 164.266562,18.2583596 L164.266562,18.5422713 C164.266562,24.6455836 159.723975,28.2299685 153.940063,28.2299685 C148.155363,28.2299685 143.613565,24.823817 143.613565,18.7197161" id="Fill-23" fill="#4B8FCC"></path>
                        <path d="M166.716483,9.20883281 L173.707019,9.20883281 L173.707019,12.1899054 C174.736987,10.2380126 176.72358,8.71198738 179.846609,8.71198738 C183.360016,8.71198738 185.808754,10.9477918 185.808754,15.5613565 L185.808754,27.7687697 L178.818218,27.7687697 L178.818218,17.1228707 C178.818218,15.2411672 178.143139,14.2837539 176.475158,14.2837539 C174.736987,14.2837539 173.707019,15.3129338 173.707019,17.5124606 L173.707019,27.7687697 L166.716483,27.7687697 L166.716483,9.20883281 Z" id="Fill-24" fill="#4B8FCC"></path>
                        <path d="M144.921789,36.2394457 L145.00089,37.3029223 C145.674722,36.4767463 146.585845,36.0636645 147.734289,36.0636645 C148.958904,36.0636645 149.799716,36.5470581 150.25675,37.5138598 C150.924722,36.5470581 151.876861,36.0636645 153.113195,36.0636645 C154.14445,36.0636645 154.912021,36.3639544 155.415929,36.9645434 C155.919838,37.5651323 156.171789,38.4689319 156.171789,39.6759692 L156.171789,45.7492114 L153.622961,45.7492114 L153.622961,39.6847582 C153.622961,39.145693 153.517493,38.751654 153.306554,38.5026293 C153.095616,38.2536046 152.723549,38.1290942 152.190343,38.1290942 C151.428621,38.1290942 150.901282,38.4923718 150.608312,39.2189379 L150.617101,45.7492114 L148.077062,45.7492114 L148.077062,39.6935473 C148.077062,39.1427633 147.968665,38.7443298 147.751867,38.4982348 C147.535069,38.2521398 147.165932,38.1290942 146.644445,38.1290942 C145.923738,38.1290942 145.402259,38.4279193 145.079992,39.0255785 L145.079992,45.7492114 L142.539953,45.7492114 L142.539953,36.2394457 L144.921789,36.2394457 Z M157.727453,40.9064379 C157.727453,39.9630738 157.909092,39.1222619 158.272375,38.383977 C158.635658,37.645692 159.158602,37.0744087 159.841222,36.6701098 C160.523843,36.2658109 161.316315,36.0636645 162.218664,36.0636645 C163.501873,36.0636645 164.549226,36.4562387 165.360754,37.2413989 C166.172281,38.026559 166.624913,39.0929546 166.718664,40.4406176 L166.736242,41.0910082 C166.736242,42.5499999 166.329019,43.7203984 165.514562,44.6022387 C164.700105,45.484079 163.607342,45.9249926 162.236242,45.9249926 C160.865141,45.9249926 159.770914,45.4855439 158.953527,44.6066332 C158.13614,43.7277226 157.727453,42.532422 157.727453,41.0206957 L157.727453,40.9064379 Z M160.267492,41.0910082 C160.267492,41.9933565 160.437412,42.683291 160.777257,43.1608325 C161.117103,43.6383739 161.603426,43.877141 162.236242,43.877141 C162.851479,43.877141 163.331943,43.6413036 163.677648,43.1696215 C164.023353,42.6979395 164.196203,41.9435525 164.196203,40.9064379 C164.196203,40.0216679 164.023353,39.3361279 163.677648,38.8497973 C163.331943,38.3634667 162.84562,38.1203051 162.218664,38.1203051 C161.597567,38.1203051 161.117103,38.3620019 160.777257,38.8454028 C160.437412,39.3288036 160.267492,40.0773313 160.267492,41.0910082 Z M170.638586,36.2394457 L170.717687,37.3380785 C171.397378,36.4884649 172.308502,36.0636645 173.451086,36.0636645 C174.458903,36.0636645 175.208896,36.35956 175.701086,36.9513598 C176.193276,37.5431596 176.445226,38.4279164 176.456945,39.6056567 L176.456945,45.7492114 L173.916906,45.7492114 L173.916906,39.6671801 C173.916906,39.1281149 173.79972,38.7370055 173.565343,38.4938403 C173.330967,38.250675 172.941323,38.1290942 172.396398,38.1290942 C171.681551,38.1290942 171.145423,38.4337786 170.788,39.0431567 L170.788,45.7492114 L168.247961,45.7492114 L168.247961,36.2394457 L170.638586,36.2394457 Z M177.986242,40.9064379 C177.986242,39.9630738 178.167881,39.1222619 178.531164,38.383977 C178.894447,37.645692 179.417391,37.0744087 180.100011,36.6701098 C180.782632,36.2658109 181.575105,36.0636645 182.477453,36.0636645 C183.760662,36.0636645 184.808015,36.4562387 185.619543,37.2413989 C186.43107,38.026559 186.883702,39.0929546 186.977453,40.4406176 L186.995031,41.0910082 C186.995031,42.5499999 186.587808,43.7203984 185.773351,44.6022387 C184.958894,45.484079 183.866132,45.9249926 182.495031,45.9249926 C181.12393,45.9249926 180.029703,45.4855439 179.212316,44.6066332 C178.394929,43.7277226 177.986242,42.532422 177.986242,41.0206957 L177.986242,40.9064379 Z M180.526281,41.0910082 C180.526281,41.9933565 180.696201,42.683291 181.036047,43.1608325 C181.375892,43.6383739 181.862215,43.877141 182.495031,43.877141 C183.110268,43.877141 183.590732,43.6413036 183.936437,43.1696215 C184.282142,42.6979395 184.454992,41.9435525 184.454992,40.9064379 C184.454992,40.0216679 184.282142,39.3361279 183.936437,38.8497973 C183.590732,38.3634667 183.104409,38.1203051 182.477453,38.1203051 C181.856356,38.1203051 181.375892,38.3620019 181.036047,38.8454028 C180.696201,39.3288036 180.526281,40.0773313 180.526281,41.0910082 Z" id="mono" fill="#7BC62E"></path>
                    </g>
                </g>
            </g>
        </g>
    </g>
</svg>