<?xml version="1.0" encoding="UTF-8"?>
<svg width="188px" height="48px" viewBox="0 0 188 48" version="1.1" xmlns="http://www.w3.org/2000/svg" xmlns:xlink="http://www.w3.org/1999/xlink">
    <!-- Generator: sketchtool 51.3 (57544) - http://www.bohemiancoding.com/sketch -->
    <title>B852E19C-9724-4172-A7E0-963F51B765B7</title>
    <desc>Created with sketchtool.</desc>
    <defs></defs>
    <g id="Diseño" stroke="none" stroke-width="1" fill="none" fill-rule="evenodd" opacity="0.25">
        <g id="home_previa_op2" transform="translate(-626.000000, -591.000000)">
            <g id="wiki-mono" transform="translate(626.000000, 591.000000)">
                <g id="tipo-logo">
                    <polygon id="Fill-14" fill="#22446D" points="0.529028814 2.41938475 8.7373 2.41938475 11.6767915 17.7262492 14.7596729 2.41938475 21.821622 2.41938475 25.2988254 17.9046898 28.4175542 2.41938475 35.9447237 2.41938475 29.9940458 28.0495203 21.7857746 28.0495203 18.2018254 12.7434525 14.5812322 28.0495203 6.47970678 28.0495203"></polygon>
                    <path d="M37.882,28.049361 L44.9073051,28.049361 L44.9073051,9.30193729 L37.882,9.30193729 L37.882,28.049361 Z M37.5585763,4.35498814 C37.5585763,2.2766322 39.2075593,0.771038983 41.3950508,0.771038983 C43.5451017,0.771038983 45.1940847,2.2766322 45.1940847,4.35498814 C45.1940847,6.39829322 43.5451017,7.90388644 41.3950508,7.90388644 C39.2075593,7.90388644 37.5585763,6.39829322 37.5585763,4.35498814 Z" id="Fill-16" fill="#22446D"></path>
                    <polygon id="Fill-18" fill="#22446D" points="48.5278983 1.16456441 55.5890508 1.16456441 55.5890508 16.3997339 60.141678 9.30193729 67.3828644 9.30193729 61.6122203 17.6894458 67.849678 28.049361 60.0341356 28.049361 55.5890508 20.2346153 55.5890508 28.049361 48.5278983 28.049361"></polygon>
                    <path d="M69.856339,28.049361 L76.8824407,28.049361 L76.8824407,9.30193729 L69.856339,9.30193729 L69.856339,28.049361 Z M69.5345085,4.35498814 C69.5345085,2.2766322 71.1826949,0.771038983 73.3701864,0.771038983 C75.5202373,0.771038983 77.1692203,2.2766322 77.1692203,4.35498814 C77.1692203,6.39829322 75.5202373,7.90388644 73.3701864,7.90388644 C71.1826949,7.90388644 69.5345085,6.39829322 69.5345085,4.35498814 Z" id="Fill-19" fill="#22446D"></path>
                    <path d="M79.8220119,15.3954475 L79.8220119,15.1094644 C79.8220119,7.18717627 85.520961,2.02514237 93.0847746,2.02514237 C100.003334,2.02514237 104.663503,5.17971864 105.27291,12.1333288 L96.8854017,12.1333288 C96.6336729,9.76819322 95.3790119,8.44183729 93.120622,8.44183729 C90.1819271,8.44183729 88.3895542,10.735278 88.3895542,15.0736169 L88.3895542,15.3596 C88.3895542,19.6262441 90.1094356,21.9913797 93.2648085,21.9913797 C95.5582492,21.9913797 97.2072322,20.8084136 97.4940119,18.2281932 L105.595537,18.2281932 C105.165368,24.9667186 100.218419,28.5156169 93.4440458,28.5156169 C84.1954017,28.5156169 79.8220119,23.2460407 79.8220119,15.3954475" id="Fill-20" fill="#4B8FCC"></path>
                    <path d="M107.890093,1.16456441 L114.952042,1.16456441 L114.952042,12.3131237 C115.991619,10.3415136 117.99828,8.80007288 121.153653,8.80007288 C124.702551,8.80007288 127.175229,11.0584627 127.175229,15.7186322 L127.175229,28.049361 L120.114873,28.049361 L120.114873,17.2959203 C120.114873,15.3952085 119.432975,14.4273271 117.748144,14.4273271 C115.991619,14.4273271 114.952042,15.4677 114.952042,17.6894458 L114.952042,28.049361 L107.890093,28.049361 L107.890093,1.16456441 Z" id="Fill-21" fill="#4B8FCC"></path>
                    <path d="M130.437905,9.30185763 L137.499854,9.30185763 L137.499854,13.1016881 C138.68282,10.1980441 140.726125,9.01587458 143.522227,9.05172203 L143.522227,15.6468576 C139.614854,15.4309763 137.499854,16.7214847 137.499854,19.4100441 L137.499854,28.0492814 L130.437905,28.0492814 L130.437905,9.30185763 Z" id="Fill-22" fill="#4B8FCC"></path>
                    <path d="M158.757237,18.7654271 L158.757237,18.5144949 C158.757237,15.5750034 157.717661,13.9977153 155.530966,13.9977153 C153.380915,13.9977153 152.197949,15.467461 152.197949,18.4069525 L152.197949,18.6937322 C152.197949,21.7399695 153.272576,23.3180542 155.530966,23.3180542 C157.681017,23.3180542 158.757237,21.7399695 158.757237,18.7654271 M145.064305,18.9088169 L145.064305,18.6212407 C145.064305,12.5279695 149.616136,8.7998339 155.530966,8.7998339 C161.374102,8.7998339 165.925932,12.4204271 165.925932,18.4428 L165.925932,18.7295797 C165.925932,24.8945458 161.337458,28.515139 155.495119,28.515139 C149.651983,28.515139 145.064305,25.0745797 145.064305,18.9088169" id="Fill-23" fill="#4B8FCC"></path>
                    <path d="M168.084746,9.26457627 L175.145898,9.26457627 L175.145898,12.2757627 C176.186271,10.3041525 178.192932,8.76271186 181.347508,8.76271186 C184.896407,8.76271186 187.369881,11.0211017 187.369881,15.6812712 L187.369881,28.012 L180.308729,28.012 L180.308729,17.2585593 C180.308729,15.3578475 179.626831,14.3907627 177.942,14.3907627 C176.186271,14.3907627 175.145898,15.430339 175.145898,17.6520847 L175.145898,28.012 L168.084746,28.012 L168.084746,9.26457627 Z" id="Fill-24" fill="#4B8FCC"></path>
                    <text id="mono" font-family="Roboto-Bold, Roboto" font-size="18" font-weight="bold" line-spacing="33" fill="#3AC7B4">
                        <tspan x="141.490234" y="40.1355932">mono</tspan>
                    </text>
                </g>
            </g>
        </g>
    </g>
</svg>