<?xml version="1.0" encoding="UTF-8"?>
<svg width="75px" height="73px" viewBox="0 0 75 73" version="1.1" xmlns="http://www.w3.org/2000/svg" xmlns:xlink="http://www.w3.org/1999/xlink">
    <!-- Generator: Sketch 51.3 (57544) - http://www.bohemiancoding.com/sketch -->
    <title>bars-chart</title>
    <desc>Created with Sketch.</desc>
    <defs></defs>
    <g id="Diseño" stroke="none" stroke-width="1" fill="none" fill-rule="evenodd">
        <g id="home_previa_op2" transform="translate(-991.000000, -326.000000)" fill-rule="nonzero">
            <g id="Group-2" transform="translate(287.000000, 300.000000)">
                <g id="classic" transform="translate(616.000000, 0.000000)">
                    <g id="bars-chart" transform="translate(88.000000, 26.000000)">
                        <path d="M43.681276,71.5384615 L37.0879548,71.5384615 C36.3597287,71.5384615 35.7692308,70.959766 35.7692308,70.2460953 L35.7692308,40.5231355 C35.7692308,39.8094647 36.3597287,39.2307692 37.0879548,39.2307692 L43.681276,39.2307692 C44.409502,39.2307692 45,39.8094647 45,40.5231355 L45,70.2460953 C45,70.959766 44.409502,71.5384615 43.681276,71.5384615 Z" id="Shape" fill="#FFD782"></path>
                        <path d="M43.681276,70.3846154 L37.0879548,70.3846154 C36.3597287,70.3846154 35.7692308,69.8135364 35.7692308,69.1092585 L35.7692308,47.429203 C35.7692308,46.7249252 36.3597287,46.1538462 37.0879548,46.1538462 L43.681276,46.1538462 C44.409502,46.1538462 45,46.7249252 45,47.429203 L45,69.1092585 C45,69.8135364 44.409502,70.3846154 43.681276,70.3846154 Z" id="Shape" fill="#FFC36E"></path>
                        <path d="M56.3735837,71.5384615 L49.7802625,71.5384615 C49.0520364,71.5384615 48.4615385,70.9616889 48.4615385,70.2503895 L48.4615385,17.4419181 C48.4615385,16.7306188 49.0520364,16.1538462 49.7802625,16.1538462 L56.3735837,16.1538462 C57.1018097,16.1538462 57.6923077,16.7306188 57.6923077,17.4419181 L57.6923077,70.2503895 C57.6923077,70.9616889 57.1018097,71.5384615 56.3735837,71.5384615 Z" id="Shape" fill="#C3E678"></path>
                        <path d="M56.3735837,71.5384615 L49.7802625,71.5384615 C49.0520364,71.5384615 48.4615385,70.9551 48.4615385,70.2356749 L48.4615385,32.4566328 C48.4615385,31.7372077 49.0520364,31.1538462 49.7802625,31.1538462 L56.3735837,31.1538462 C57.1018097,31.1538462 57.6923077,31.7372077 57.6923077,32.4566328 L57.6923077,70.2356749 C57.6923077,70.9551 57.1018097,71.5384615 56.3735837,71.5384615 Z" id="Shape" fill="#A5D76E"></path>
                        <path d="M17.1428145,70.3846154 L10.5494932,70.3846154 C9.82126719,70.3846154 9.23076923,69.8135364 9.23076923,69.1092585 L9.23076923,47.429203 C9.23076923,46.7249252 9.82126719,46.1538462 10.5494932,46.1538462 L17.1428145,46.1538462 C17.8710405,46.1538462 18.4615385,46.7249252 18.4615385,47.429203 L18.4615385,69.1092585 C18.4615385,69.8135364 17.8710405,70.3846154 17.1428145,70.3846154 Z" id="Shape" fill="#00D2FF"></path>
                        <path d="M69.0658914,71.5384615 L62.4725702,71.5384615 C61.7443441,71.5384615 61.1538462,70.9585001 61.1538462,70.2432682 L61.1538462,9.3721164 C61.1538462,8.65688447 61.7443441,8.07692308 62.4725702,8.07692308 L69.0658914,8.07692308 C69.7941174,8.07692308 70.3846154,8.65688447 70.3846154,9.3721164 L70.3846154,70.2434149 C70.384466,70.9585001 69.7941174,71.5384615 69.0658914,71.5384615 Z" id="Shape" fill="#9BE6D2"></path>
                        <path d="M69.0658914,70.3846154 L62.4725702,70.3846154 C61.7443441,70.3846154 61.1538462,69.812064 61.1538462,69.1059704 L61.1538462,24.3555681 C61.1538462,23.6494745 61.7443441,23.0769231 62.4725702,23.0769231 L69.0658914,23.0769231 C69.7941174,23.0769231 70.3846154,23.6494745 70.3846154,24.3555681 L70.3846154,69.1061152 C70.384466,69.812064 69.7941174,70.3846154 69.0658914,70.3846154 Z" id="Shape" fill="#78D2BE"></path>
                        <path d="M30.9889683,71.5384615 L24.3956471,71.5384615 C23.667421,71.5384615 23.0769231,70.9551 23.0769231,70.2356749 L23.0769231,32.4566328 C23.0769231,31.7372077 23.667421,31.1538462 24.3956471,31.1538462 L30.9889683,31.1538462 C31.7171944,31.1538462 32.3076923,31.7372077 32.3076923,32.4566328 L32.3076923,70.2356749 C32.3076923,70.9551 31.7171944,71.5384615 30.9889683,71.5384615 Z" id="Shape" fill="#FF6464"></path>
                        <path d="M30.9889683,71.5384615 L24.3956471,71.5384615 C23.667421,71.5384615 23.0769231,70.959766 23.0769231,70.2460953 L23.0769231,40.5231355 C23.0769231,39.8094647 23.667421,39.2307692 24.3956471,39.2307692 L30.9889683,39.2307692 C31.7171944,39.2307692 32.3076923,39.8094647 32.3076923,40.5231355 L32.3076923,70.2460953 C32.3076923,70.959766 31.7171944,71.5384615 30.9889683,71.5384615 Z" id="Shape" fill="#D2555A"></path>
                        <path d="M17.1428145,71.5384615 L10.5494932,71.5384615 C9.82126719,71.5384615 9.23076923,70.942279 9.23076923,70.2070426 L9.23076923,55.5621882 C9.23076923,54.8269517 9.82126719,54.2307692 10.5494932,54.2307692 L17.1428145,54.2307692 C17.8710405,54.2307692 18.4615385,54.8269517 18.4615385,55.5621882 L18.4615385,70.2070426 C18.4615385,70.942279 17.8710405,71.5384615 17.1428145,71.5384615 Z" id="Shape" fill="#18BDF6"></path>
                        <g id="Group" transform="translate(0.000000, 8.076923)" fill="#D7DEED">
                            <path d="M3.39525641,57.575 L1.13179487,57.575 C0.506794872,57.575 0,56.9902367 0,56.2690828 C0,55.547929 0.506794872,54.9631657 1.13179487,54.9631657 L3.39525641,54.9631657 L3.39525641,57.575 Z" id="Shape"></path>
                            <path d="M3.39525641,49.7397929 L1.13179487,49.7397929 C0.506794872,49.7397929 0,49.1550296 0,48.4338757 C0,47.7127219 0.506794872,47.1279586 1.13179487,47.1279586 L3.39525641,47.1279586 L3.39525641,49.7397929 Z" id="Shape"></path>
                            <path d="M3.39525641,41.9047337 L1.13179487,41.9047337 C0.506794872,41.9047337 0,41.3199704 0,40.5988166 C0,39.8776627 0.506794872,39.2928994 1.13179487,39.2928994 L3.39525641,39.2928994 L3.39525641,41.9047337 Z" id="Shape"></path>
                            <path d="M3.39525641,34.0695266 L1.13179487,34.0695266 C0.506794872,34.0695266 0,33.4847633 0,32.7636095 C0,32.0424556 0.506794872,31.4576923 1.13179487,31.4576923 L3.39525641,31.4576923 L3.39525641,34.0695266 Z" id="Shape"></path>
                            <path d="M3.39525641,26.2344675 L1.13179487,26.2344675 C0.506794872,26.2344675 0,25.6497041 0,24.9285503 C0,24.2073964 0.506794872,23.6226331 1.13179487,23.6226331 L3.39525641,23.6226331 L3.39525641,26.2344675 Z" id="Shape"></path>
                            <path d="M3.39525641,18.3992604 L1.13179487,18.3992604 C0.506794872,18.3992604 0,17.814497 0,17.0933432 C0,16.3721893 0.506794872,15.787426 1.13179487,15.787426 L3.39525641,15.787426 L3.39525641,18.3992604 Z" id="Shape"></path>
                            <path d="M3.39525641,10.5642012 L1.13179487,10.5642012 C0.506794872,10.5642012 0,9.97943787 0,9.25828402 C0,8.53713018 0.506794872,7.95236686 1.13179487,7.95236686 L3.39525641,7.95236686 L3.39525641,10.5642012 Z" id="Shape"></path>
                            <path d="M3.39525641,2.72899408 L1.13179487,2.72899408 C0.506794872,2.72899408 0,2.1443787 0,1.42322485 C0,0.702071006 0.506794872,0.117307692 1.13179487,0.117307692 L3.39525641,0.117307692 L3.39525641,2.72899408 Z" id="Shape"></path>
                        </g>
                        <path d="M3.46153846,71.5384615 C2.8243613,71.5384615 2.30769231,70.9560083 2.30769231,70.2377033 L2.30769231,1.30075824 C2.30769231,0.582453253 2.8243613,0 3.46153846,0 C4.09871563,0 4.61538462,0.582453253 4.61538462,1.30075824 L4.61538462,70.2377033 C4.61525391,70.9560083 4.09871563,71.5384615 3.46153846,71.5384615 Z" id="Shape" fill="#C7CFE2"></path>
                        <path d="M0,71.5384615 C0,70.9012844 0.579051603,70.3846154 1.29316154,70.3846154 L73.7068385,70.3846154 C74.4209484,70.3846154 75,70.9012844 75,71.5384615 C75,72.1756387 74.4209484,72.6923077 73.7068385,72.6923077 L1.29316154,72.6923077 C0.579051603,72.692177 0,72.1756387 0,71.5384615 Z" id="Shape" fill="#AFB9D2"></path>
                    </g>
                </g>
            </g>
        </g>
    </g>
</svg>