<?xml version="1.0" encoding="UTF-8"?>
<svg width="187px" height="136px" viewBox="0 0 187 136" version="1.1" xmlns="http://www.w3.org/2000/svg" xmlns:xlink="http://www.w3.org/1999/xlink">
    <!-- Generator: Sketch 51.3 (57544) - http://www.bohemiancoding.com/sketch -->
    <title>wikichron-mono-big</title>
    <desc>Created with Sketch.</desc>
    <defs></defs>
    <g id="Diseño" stroke="none" stroke-width="1" fill="none" fill-rule="evenodd">
        <g id="home_previa_op2" transform="translate(-935.000000, -326.000000)">
            <g id="Group-2" transform="translate(287.000000, 300.000000)">
                <g id="classic" transform="translate(616.000000, 0.000000)">
                    <g id="wikichron-mono-big" transform="translate(31.545741, 25.930599)">
                        <polygon id="Fill-14" fill="#22446D" points="0.52373817 92.3951893 8.64992114 92.3951893 11.5600158 107.548975 14.6120662 92.3951893 21.6033912 92.3951893 25.0458202 107.725631 28.1333596 92.3951893 35.5852524 92.3951893 29.6940852 117.769006 21.5679022 117.769006 18.019795 102.616009 14.4354101 117.769006 6.41490536 117.769006"></polygon>
                        <path d="M37.5031546,117.768849 L44.4582019,117.768849 L44.4582019,99.2089117 L37.5031546,99.2089117 L37.5031546,117.768849 Z M37.1829653,94.3114353 C37.1829653,92.2538644 38.8154574,90.7633281 40.9810726,90.7633281 C43.1096215,90.7633281 44.7421136,92.2538644 44.7421136,94.3114353 C44.7421136,96.334306 43.1096215,97.8248423 40.9810726,97.8248423 C38.8154574,97.8248423 37.1829653,96.334306 37.1829653,94.3114353 Z" id="Fill-16" fill="#22446D"></path>
                        <polygon id="Fill-18" fill="#22446D" points="48.0425868 91.152918 55.033123 91.152918 55.033123 106.235726 59.5402208 99.2089117 66.7089905 99.2089117 60.9960568 107.512539 67.1711356 117.768849 59.4337539 117.768849 55.033123 110.032256 55.033123 117.768849 48.0425868 117.768849"></polygon>
                        <path d="M69.1577287,117.768849 L76.1135647,117.768849 L76.1135647,99.2089117 L69.1577287,99.2089117 L69.1577287,117.768849 Z M68.8391167,94.3114353 C68.8391167,92.2538644 70.4708202,90.7633281 72.6364353,90.7633281 C74.7649842,90.7633281 76.3974763,92.2538644 76.3974763,94.3114353 C76.3974763,96.334306 74.7649842,97.8248423 72.6364353,97.8248423 C70.4708202,97.8248423 68.8391167,96.334306 68.8391167,94.3114353 Z" id="Fill-19" fill="#22446D"></path>
                        <path d="M79.0237382,105.241483 L79.0237382,104.95836 C79.0237382,97.1152997 84.665694,92.0048896 92.1538644,92.0048896 C99.0032334,92.0048896 103.616798,95.127918 104.22011,102.011987 L95.9164826,102.011987 C95.6672713,99.6705047 94.4251577,98.3574132 92.1893533,98.3574132 C89.2800473,98.3574132 87.5055994,100.627918 87.5055994,104.922871 L87.5055994,105.205994 C87.5055994,109.429968 89.2082808,111.771451 92.3320978,111.771451 C94.6026025,111.771451 96.2350946,110.600315 96.5190063,108.045899 L104.539511,108.045899 C104.113644,114.717035 99.2161672,118.230442 92.5095426,118.230442 C83.3533912,118.230442 79.0237382,113.013565 79.0237382,105.241483" id="Fill-20" fill="#4B8FCC"></path>
                        <path d="M106.81112,91.152918 L113.802445,91.152918 L113.802445,102.189984 C114.831625,100.238091 116.818218,98.7120662 119.942035,98.7120662 C123.455442,98.7120662 125.903391,100.947871 125.903391,105.561435 L125.903391,117.768849 L118.913644,117.768849 L118.913644,107.12295 C118.913644,105.241246 118.238565,104.283044 116.570584,104.283044 C114.831625,104.283044 113.802445,105.313013 113.802445,107.512539 L113.802445,117.768849 L106.81112,117.768849 L106.81112,91.152918 Z" id="Fill-21" fill="#4B8FCC"></path>
                        <path d="M129.133438,99.2088328 L136.124763,99.2088328 L136.124763,102.970662 C137.295899,100.096057 139.31877,98.9257098 142.086909,98.9611987 L142.086909,105.490379 C138.218612,105.276656 136.124763,106.554259 136.124763,109.215931 L136.124763,117.76877 L129.133438,117.76877 L129.133438,99.2088328 Z" id="Fill-22" fill="#4B8FCC"></path>
                        <path d="M157.169558,108.57776 L157.169558,108.329338 C157.169558,105.419243 156.140379,103.857729 153.975552,103.857729 C151.847003,103.857729 150.675868,105.312776 150.675868,108.222871 L150.675868,108.506782 C150.675868,111.522555 151.739748,113.084858 153.975552,113.084858 C156.104101,113.084858 157.169558,111.522555 157.169558,108.57776 M143.613565,108.719716 L143.613565,108.435016 C143.613565,102.402681 148.119874,98.7118297 153.975552,98.7118297 C159.760252,98.7118297 164.266562,102.296215 164.266562,108.25836 L164.266562,108.542271 C164.266562,114.645584 159.723975,118.229968 153.940063,118.229968 C148.155363,118.229968 143.613565,114.823817 143.613565,108.719716" id="Fill-23" fill="#4B8FCC"></path>
                        <path d="M166.716483,99.2088328 L173.707019,99.2088328 L173.707019,102.189905 C174.736987,100.238013 176.72358,98.7119874 179.846609,98.7119874 C183.360016,98.7119874 185.808754,100.947792 185.808754,105.561356 L185.808754,117.76877 L178.818218,117.76877 L178.818218,107.122871 C178.818218,105.241167 178.143139,104.283754 176.475158,104.283754 C174.736987,104.283754 173.707019,105.312934 173.707019,107.512461 L173.707019,117.76877 L166.716483,117.76877 L166.716483,99.2088328 Z" id="Fill-24" fill="#4B8FCC"></path>
                        <path d="M144.921789,126.239446 L145.00089,127.302922 C145.674722,126.476746 146.585845,126.063664 147.734289,126.063664 C148.958904,126.063664 149.799716,126.547058 150.25675,127.51386 C150.924722,126.547058 151.876861,126.063664 153.113195,126.063664 C154.14445,126.063664 154.912021,126.363954 155.415929,126.964543 C155.919838,127.565132 156.171789,128.468932 156.171789,129.675969 L156.171789,135.749211 L153.622961,135.749211 L153.622961,129.684758 C153.622961,129.145693 153.517493,128.751654 153.306554,128.502629 C153.095616,128.253605 152.723549,128.129094 152.190343,128.129094 C151.428621,128.129094 150.901282,128.492372 150.608312,129.218938 L150.617101,135.749211 L148.077062,135.749211 L148.077062,129.693547 C148.077062,129.142763 147.968665,128.74433 147.751867,128.498235 C147.535069,128.25214 147.165932,128.129094 146.644445,128.129094 C145.923738,128.129094 145.402259,128.427919 145.079992,129.025579 L145.079992,135.749211 L142.539953,135.749211 L142.539953,126.239446 L144.921789,126.239446 Z M157.727453,130.906438 C157.727453,129.963074 157.909092,129.122262 158.272375,128.383977 C158.635658,127.645692 159.158602,127.074409 159.841222,126.67011 C160.523843,126.265811 161.316315,126.063664 162.218664,126.063664 C163.501873,126.063664 164.549226,126.456239 165.360754,127.241399 C166.172281,128.026559 166.624913,129.092955 166.718664,130.440618 L166.736242,131.091008 C166.736242,132.55 166.329019,133.720398 165.514562,134.602239 C164.700105,135.484079 163.607342,135.924993 162.236242,135.924993 C160.865141,135.924993 159.770914,135.485544 158.953527,134.606633 C158.13614,133.727723 157.727453,132.532422 157.727453,131.020696 L157.727453,130.906438 Z M160.267492,131.091008 C160.267492,131.993356 160.437412,132.683291 160.777257,133.160832 C161.117103,133.638374 161.603426,133.877141 162.236242,133.877141 C162.851479,133.877141 163.331943,133.641304 163.677648,133.169622 C164.023353,132.697939 164.196203,131.943552 164.196203,130.906438 C164.196203,130.021668 164.023353,129.336128 163.677648,128.849797 C163.331943,128.363467 162.84562,128.120305 162.218664,128.120305 C161.597567,128.120305 161.117103,128.362002 160.777257,128.845403 C160.437412,129.328804 160.267492,130.077331 160.267492,131.091008 Z M170.638586,126.239446 L170.717687,127.338079 C171.397378,126.488465 172.308502,126.063664 173.451086,126.063664 C174.458903,126.063664 175.208896,126.35956 175.701086,126.95136 C176.193276,127.54316 176.445226,128.427916 176.456945,129.605657 L176.456945,135.749211 L173.916906,135.749211 L173.916906,129.66718 C173.916906,129.128115 173.79972,128.737006 173.565343,128.49384 C173.330967,128.250675 172.941323,128.129094 172.396398,128.129094 C171.681551,128.129094 171.145423,128.433779 170.788,129.043157 L170.788,135.749211 L168.247961,135.749211 L168.247961,126.239446 L170.638586,126.239446 Z M177.986242,130.906438 C177.986242,129.963074 178.167881,129.122262 178.531164,128.383977 C178.894447,127.645692 179.417391,127.074409 180.100011,126.67011 C180.782632,126.265811 181.575105,126.063664 182.477453,126.063664 C183.760662,126.063664 184.808015,126.456239 185.619543,127.241399 C186.43107,128.026559 186.883702,129.092955 186.977453,130.440618 L186.995031,131.091008 C186.995031,132.55 186.587808,133.720398 185.773351,134.602239 C184.958894,135.484079 183.866132,135.924993 182.495031,135.924993 C181.12393,135.924993 180.029703,135.485544 179.212316,134.606633 C178.394929,133.727723 177.986242,132.532422 177.986242,131.020696 L177.986242,130.906438 Z M180.526281,131.091008 C180.526281,131.993356 180.696201,132.683291 181.036047,133.160832 C181.375892,133.638374 181.862215,133.877141 182.495031,133.877141 C183.110268,133.877141 183.590732,133.641304 183.936437,133.169622 C184.282142,132.697939 184.454992,131.943552 184.454992,130.906438 C184.454992,130.021668 184.282142,129.336128 183.936437,128.849797 C183.590732,128.363467 183.104409,128.120305 182.477453,128.120305 C181.856356,128.120305 181.375892,128.362002 181.036047,128.845403 C180.696201,129.328804 180.526281,130.077331 180.526281,131.091008 Z" id="mono" fill="#7BC62E"></path>
                        <g id="bars-chart" transform="translate(56.454259, 0.069401)" fill-rule="nonzero">
                            <path d="M43.681276,71.5384615 L37.0879548,71.5384615 C36.3597287,71.5384615 35.7692308,70.959766 35.7692308,70.2460953 L35.7692308,40.5231355 C35.7692308,39.8094647 36.3597287,39.2307692 37.0879548,39.2307692 L43.681276,39.2307692 C44.409502,39.2307692 45,39.8094647 45,40.5231355 L45,70.2460953 C45,70.959766 44.409502,71.5384615 43.681276,71.5384615 Z" id="Shape" fill="#FFD782"></path>
                            <path d="M43.681276,70.3846154 L37.0879548,70.3846154 C36.3597287,70.3846154 35.7692308,69.8135364 35.7692308,69.1092585 L35.7692308,47.429203 C35.7692308,46.7249252 36.3597287,46.1538462 37.0879548,46.1538462 L43.681276,46.1538462 C44.409502,46.1538462 45,46.7249252 45,47.429203 L45,69.1092585 C45,69.8135364 44.409502,70.3846154 43.681276,70.3846154 Z" id="Shape" fill="#FFC36E"></path>
                            <path d="M56.3735837,71.5384615 L49.7802625,71.5384615 C49.0520364,71.5384615 48.4615385,70.9616889 48.4615385,70.2503895 L48.4615385,17.4419181 C48.4615385,16.7306188 49.0520364,16.1538462 49.7802625,16.1538462 L56.3735837,16.1538462 C57.1018097,16.1538462 57.6923077,16.7306188 57.6923077,17.4419181 L57.6923077,70.2503895 C57.6923077,70.9616889 57.1018097,71.5384615 56.3735837,71.5384615 Z" id="Shape" fill="#C3E678"></path>
                            <path d="M56.3735837,71.5384615 L49.7802625,71.5384615 C49.0520364,71.5384615 48.4615385,70.9551 48.4615385,70.2356749 L48.4615385,32.4566328 C48.4615385,31.7372077 49.0520364,31.1538462 49.7802625,31.1538462 L56.3735837,31.1538462 C57.1018097,31.1538462 57.6923077,31.7372077 57.6923077,32.4566328 L57.6923077,70.2356749 C57.6923077,70.9551 57.1018097,71.5384615 56.3735837,71.5384615 Z" id="Shape" fill="#A5D76E"></path>
                            <path d="M17.1428145,70.3846154 L10.5494932,70.3846154 C9.82126719,70.3846154 9.23076923,69.8135364 9.23076923,69.1092585 L9.23076923,47.429203 C9.23076923,46.7249252 9.82126719,46.1538462 10.5494932,46.1538462 L17.1428145,46.1538462 C17.8710405,46.1538462 18.4615385,46.7249252 18.4615385,47.429203 L18.4615385,69.1092585 C18.4615385,69.8135364 17.8710405,70.3846154 17.1428145,70.3846154 Z" id="Shape" fill="#00D2FF"></path>
                            <path d="M69.0658914,71.5384615 L62.4725702,71.5384615 C61.7443441,71.5384615 61.1538462,70.9585001 61.1538462,70.2432682 L61.1538462,9.3721164 C61.1538462,8.65688447 61.7443441,8.07692308 62.4725702,8.07692308 L69.0658914,8.07692308 C69.7941174,8.07692308 70.3846154,8.65688447 70.3846154,9.3721164 L70.3846154,70.2434149 C70.384466,70.9585001 69.7941174,71.5384615 69.0658914,71.5384615 Z" id="Shape" fill="#9BE6D2"></path>
                            <path d="M69.0658914,70.3846154 L62.4725702,70.3846154 C61.7443441,70.3846154 61.1538462,69.812064 61.1538462,69.1059704 L61.1538462,24.3555681 C61.1538462,23.6494745 61.7443441,23.0769231 62.4725702,23.0769231 L69.0658914,23.0769231 C69.7941174,23.0769231 70.3846154,23.6494745 70.3846154,24.3555681 L70.3846154,69.1061152 C70.384466,69.812064 69.7941174,70.3846154 69.0658914,70.3846154 Z" id="Shape" fill="#78D2BE"></path>
                            <path d="M30.9889683,71.5384615 L24.3956471,71.5384615 C23.667421,71.5384615 23.0769231,70.9551 23.0769231,70.2356749 L23.0769231,32.4566328 C23.0769231,31.7372077 23.667421,31.1538462 24.3956471,31.1538462 L30.9889683,31.1538462 C31.7171944,31.1538462 32.3076923,31.7372077 32.3076923,32.4566328 L32.3076923,70.2356749 C32.3076923,70.9551 31.7171944,71.5384615 30.9889683,71.5384615 Z" id="Shape" fill="#FF6464"></path>
                            <path d="M30.9889683,71.5384615 L24.3956471,71.5384615 C23.667421,71.5384615 23.0769231,70.959766 23.0769231,70.2460953 L23.0769231,40.5231355 C23.0769231,39.8094647 23.667421,39.2307692 24.3956471,39.2307692 L30.9889683,39.2307692 C31.7171944,39.2307692 32.3076923,39.8094647 32.3076923,40.5231355 L32.3076923,70.2460953 C32.3076923,70.959766 31.7171944,71.5384615 30.9889683,71.5384615 Z" id="Shape" fill="#D2555A"></path>
                            <path d="M17.1428145,71.5384615 L10.5494932,71.5384615 C9.82126719,71.5384615 9.23076923,70.942279 9.23076923,70.2070426 L9.23076923,55.5621882 C9.23076923,54.8269517 9.82126719,54.2307692 10.5494932,54.2307692 L17.1428145,54.2307692 C17.8710405,54.2307692 18.4615385,54.8269517 18.4615385,55.5621882 L18.4615385,70.2070426 C18.4615385,70.942279 17.8710405,71.5384615 17.1428145,71.5384615 Z" id="Shape" fill="#18BDF6"></path>
                            <g id="Group" transform="translate(0.000000, 8.076923)" fill="#D7DEED">
                                <path d="M3.39525641,57.575 L1.13179487,57.575 C0.506794872,57.575 0,56.9902367 0,56.2690828 C0,55.547929 0.506794872,54.9631657 1.13179487,54.9631657 L3.39525641,54.9631657 L3.39525641,57.575 Z" id="Shape"></path>
                                <path d="M3.39525641,49.7397929 L1.13179487,49.7397929 C0.506794872,49.7397929 0,49.1550296 0,48.4338757 C0,47.7127219 0.506794872,47.1279586 1.13179487,47.1279586 L3.39525641,47.1279586 L3.39525641,49.7397929 Z" id="Shape"></path>
                                <path d="M3.39525641,41.9047337 L1.13179487,41.9047337 C0.506794872,41.9047337 0,41.3199704 0,40.5988166 C0,39.8776627 0.506794872,39.2928994 1.13179487,39.2928994 L3.39525641,39.2928994 L3.39525641,41.9047337 Z" id="Shape"></path>
                                <path d="M3.39525641,34.0695266 L1.13179487,34.0695266 C0.506794872,34.0695266 0,33.4847633 0,32.7636095 C0,32.0424556 0.506794872,31.4576923 1.13179487,31.4576923 L3.39525641,31.4576923 L3.39525641,34.0695266 Z" id="Shape"></path>
                                <path d="M3.39525641,26.2344675 L1.13179487,26.2344675 C0.506794872,26.2344675 0,25.6497041 0,24.9285503 C0,24.2073964 0.506794872,23.6226331 1.13179487,23.6226331 L3.39525641,23.6226331 L3.39525641,26.2344675 Z" id="Shape"></path>
                                <path d="M3.39525641,18.3992604 L1.13179487,18.3992604 C0.506794872,18.3992604 0,17.814497 0,17.0933432 C0,16.3721893 0.506794872,15.787426 1.13179487,15.787426 L3.39525641,15.787426 L3.39525641,18.3992604 Z" id="Shape"></path>
                                <path d="M3.39525641,10.5642012 L1.13179487,10.5642012 C0.506794872,10.5642012 0,9.97943787 0,9.25828402 C0,8.53713018 0.506794872,7.95236686 1.13179487,7.95236686 L3.39525641,7.95236686 L3.39525641,10.5642012 Z" id="Shape"></path>
                                <path d="M3.39525641,2.72899408 L1.13179487,2.72899408 C0.506794872,2.72899408 0,2.1443787 0,1.42322485 C0,0.702071006 0.506794872,0.117307692 1.13179487,0.117307692 L3.39525641,0.117307692 L3.39525641,2.72899408 Z" id="Shape"></path>
                            </g>
                            <path d="M3.46153846,71.5384615 C2.8243613,71.5384615 2.30769231,70.9560083 2.30769231,70.2377033 L2.30769231,1.30075824 C2.30769231,0.582453253 2.8243613,0 3.46153846,0 C4.09871563,0 4.61538462,0.582453253 4.61538462,1.30075824 L4.61538462,70.2377033 C4.61525391,70.9560083 4.09871563,71.5384615 3.46153846,71.5384615 Z" id="Shape" fill="#C7CFE2"></path>
                            <path d="M0,71.5384615 C0,70.9012844 0.579051603,70.3846154 1.29316154,70.3846154 L73.7068385,70.3846154 C74.4209484,70.3846154 75,70.9012844 75,71.5384615 C75,72.1756387 74.4209484,72.6923077 73.7068385,72.6923077 L1.29316154,72.6923077 C0.579051603,72.692177 0,72.1756387 0,71.5384615 Z" id="Shape" fill="#AFB9D2"></path>
                        </g>
                    </g>
                </g>
            </g>
        </g>
    </g>
</svg>